SplineFontDB: 3.2
FontName: hin58tiro
FullName: hin58tiro
FamilyName: hin58tiro
Weight: Book
Copyright: Copyright 2020 The Indigo Project Authors (https://github.com/TiroTypeworks/Indigo)
Version: 1.52
ItalicAngle: 0
UnderlinePosition: -110
UnderlineWidth: 45
Ascent: 755
Descent: 245
InvalidEm: 0
sfntRevision: 0x0001851f
LayerCount: 2
Layer: 0 1 "Back" 1
Layer: 1 1 "Fore" 0
XUID: [1021 467 -1121320856 7639102]
StyleMap: 0x0040
FSType: 0
OS2Version: 4
OS2_WeightWidthSlopeOnly: 0
OS2_UseTypoMetrics: 1
CreationTime: 1599197003
ModificationTime: 1673346981
PfmFamily: 17
TTFWeight: 400
TTFWidth: 5
LineGap: 330
VLineGap: 0
Panose: 2 0 0 0 0 0 0 0 0 0
OS2TypoAscent: 755
OS2TypoAOffset: 0
OS2TypoDescent: -245
OS2TypoDOffset: 0
OS2TypoLinegap: 330
OS2WinAscent: 1091
OS2WinAOffset: 0
OS2WinDescent: 501
OS2WinDOffset: 0
HheadAscent: 755
HheadAOffset: 0
HheadDescent: -245
HheadDOffset: 0
OS2SubXSize: 700
OS2SubYSize: 650
OS2SubXOff: 0
OS2SubYOff: 140
OS2SupXSize: 700
OS2SupYSize: 650
OS2SupXOff: 0
OS2SupYOff: 477
OS2StrikeYSize: 50
OS2StrikeYPos: 285
OS2CapHeight: 699
OS2XHeight: 478
OS2Vendor: 'TIRO'
OS2CodePages: 00000001.00000000
OS2UnicodeRanges: a000806f.0000200a.00000000.00000000
Lookup: 1 0 0 "'locl' Localized Forms in Devanagari2 lookup 0" { "'locl' Localized Forms in Devanagari2 lookup 0 subtable"  } ['locl' ('dev2' <'dflt' > ) ]
Lookup: 4 0 0 "'nukt' Nukta Forms in Devanagari2 lookup 1" { "'nukt' Nukta Forms in Devanagari2 lookup 1 subtable"  } ['nukt' ('dev2' <'dflt' > ) ]
Lookup: 4 0 0 "'akhn' Akhand in Devanagari2 lookup 2" { "'akhn' Akhand in Devanagari2 lookup 2 subtable"  } ['akhn' ('dev2' <'dflt' > ) ]
Lookup: 6 0 0 "'akhn' Akhand in Devanagari2 lookup 3" { "'akhn' Akhand in Devanagari2 lookup 3 subtable"  } ['akhn' ('dev2' <'dflt' > ) ]
Lookup: 4 0 0 "'rphf' Reph Form in Devanagari2 lookup 4" { "'rphf' Reph Form in Devanagari2 lookup 4 subtable"  } ['rphf' ('dev2' <'dflt' > ) ]

StartChar: A
Encoding: 65 65 3
Width: 787
GlyphClass: 2
Flags: W
AnchorPoint: "Anchor-4" 787 0 basechar 0
AnchorPoint: "Anchor-3" 787 0 basechar 0
AnchorPoint: "Anchor-2" 787 0 basechar 0
AnchorPoint: "Anchor-0" 787 0 basechar 0
LayerCount: 2
Fore
SplineSet
309 71 m 0,0,1
 244 71 244 71 195.5 103.5 c 128,-1,2
 147 136 147 136 109 190.5 c 128,-1,3
 71 245 71 245 36 311 c 1,4,-1
 74 333 l 1,5,6
 100 286 100 286 127.5 242.5 c 128,-1,7
 155 199 155 199 191 171.5 c 128,-1,8
 227 144 227 144 279 144 c 0,9,10
 312 144 312 144 341.5 158.5 c 128,-1,11
 371 173 371 173 390 199 c 128,-1,12
 409 225 409 225 409 260 c 0,13,14
 409 297 409 297 384.5 316 c 128,-1,15
 360 335 360 335 327 335 c 0,16,17
 299 335 299 335 269 323.5 c 128,-1,18
 239 312 239 312 216 301 c 1,19,-1
 173 374 l 1,20,21
 200 389 200 389 232.5 401 c 128,-1,22
 265 413 265 413 299 413 c 0,23,24
 304 413 304 413 308 413 c 0,25,26
 335 430 335 430 349 453.5 c 128,-1,27
 363 477 363 477 363 501 c 0,28,29
 363 527 363 527 347 544 c 128,-1,30
 331 561 331 561 296 561 c 0,31,32
 268 561 268 561 224 547.5 c 128,-1,33
 180 534 180 534 139 508 c 1,34,-1
 95 583 l 1,35,36
 139 609 139 609 183.5 621 c 128,-1,37
 228 633 228 633 260 633 c 0,38,39
 306 633 306 633 338 613.5 c 128,-1,40
 370 594 370 594 390 564 c 128,-1,41
 410 534 410 534 419.5 502.5 c 128,-1,42
 429 471 429 471 429 447 c 0,43,44
 429 431 429 431 424 413 c 128,-1,45
 419 395 419 395 400 374 c 1,46,47
 406 369 406 369 413 360 c 0,48,49
 430 341 430 341 452.5 326 c 128,-1,50
 475 311 475 311 519 311 c 0,51,52
 574 311 574 311 612 344 c 1,53,-1
 614 545 l 1,54,-1
 507 545 l 1,55,-1
 473 610 l 1,56,-1
 473 620 l 1,57,-1
 781 620 l 1,58,-1
 815 555 l 1,59,-1
 815 545 l 1,60,-1
 698 545 l 1,61,-1
 700 -10 l 1,62,-1
 690 -10 l 1,63,-1
 610 42 l 1,64,-1
 611 243 l 1,65,66
 603 240 603 240 594 239 c 128,-1,67
 585 238 585 238 575 238 c 0,68,69
 547 238 547 238 519.5 248 c 128,-1,70
 492 258 492 258 472 271 c 1,71,-1
 468 269 l 1,72,73
 474 255 474 255 476.5 240.5 c 128,-1,74
 479 226 479 226 479 213 c 0,75,76
 479 172 479 172 456.5 140 c 128,-1,77
 434 108 434 108 396 89.5 c 128,-1,78
 358 71 358 71 309 71 c 0,0,1
EndSplineSet
Substitution2: "'c2sc' Capitals to Small Capitals in Latin lookup 37 subtable" A.sc
EndChar

StartChar: B
Encoding: 66 66 4
Width: 637
GlyphClass: 2
Flags: W
LayerCount: 2
Fore
SplineSet
326 -2 m 0,0,1
 291 -2 291 -2 253.5 -0.5 c 128,-1,2
 216 1 216 1 187 1 c 0,3,4
 171 1 171 1 142 0.5 c 128,-1,5
 113 0 113 0 83 -0.5 c 128,-1,6
 53 -1 53 -1 33 -1 c 1,7,8
 31 14 31 14 33 31 c 1,9,10
 80 36 80 36 100 40.5 c 128,-1,11
 120 45 120 45 125 60.5 c 128,-1,12
 130 76 130 76 130 111 c 2,13,-1
 130 576 l 2,14,15
 130 618 130 618 125 636 c 128,-1,16
 120 654 120 654 99.5 659.5 c 128,-1,17
 79 665 79 665 33 669 c 1,18,19
 31 684 31 684 33 701 c 1,20,21
 54 701 54 701 83 700.5 c 128,-1,22
 112 700 112 700 140.5 699.5 c 128,-1,23
 169 699 169 699 188 699 c 0,24,25
 219 699 219 699 259.5 700 c 128,-1,26
 300 701 300 701 324 701 c 0,27,28
 446 701 446 701 505 661 c 128,-1,29
 564 621 564 621 564 545 c 0,30,31
 564 418 564 418 407 373 c 1,32,-1
 407 372 l 1,33,34
 461 368 461 368 505.5 347 c 128,-1,35
 550 326 550 326 577 288 c 128,-1,36
 604 250 604 250 604 194 c 0,37,38
 604 123 604 123 561 75.5 c 128,-1,39
 518 28 518 28 454 11 c 0,40,41
 426 4 426 4 394 1 c 128,-1,42
 362 -2 362 -2 326 -2 c 0,0,1
299 341 m 0,43,44
 287 341 287 341 271.5 340.5 c 128,-1,45
 256 340 256 340 240 338 c 1,46,-1
 240 116 l 2,47,48
 240 91 240 91 240 74 c 128,-1,49
 240 57 240 57 241 46 c 1,50,51
 285 37 285 37 320 37 c 0,52,53
 397 37 397 37 439.5 75.5 c 128,-1,54
 482 114 482 114 482 193 c 0,55,56
 482 270 482 270 438 305.5 c 128,-1,57
 394 341 394 341 299 341 c 0,43,44
240 382 m 1,58,59
 248 381 248 381 254.5 381 c 128,-1,60
 261 381 261 381 267 381 c 0,61,62
 363 381 363 381 403.5 415.5 c 128,-1,63
 444 450 444 450 444 520 c 0,64,65
 444 660 444 660 299 660 c 0,66,67
 284 660 284 660 270.5 658.5 c 128,-1,68
 257 657 257 657 240 655 c 1,69,-1
 240 382 l 1,58,59
EndSplineSet
Substitution2: "'c2sc' Capitals to Small Capitals in Latin lookup 37 subtable" B.sc
EndChar

StartChar: C
Encoding: 67 67 5
Width: 721
GlyphClass: 2
Flags: W
LayerCount: 2
Fore
SplineSet
666 207 m 1,0,1
 654 119 654 119 648 28 c 1,2,3
 593 12 593 12 536 -1 c 128,-1,4
 479 -14 479 -14 414 -14 c 0,5,6
 303 -14 303 -14 221.5 30 c 128,-1,7
 140 74 140 74 95 153.5 c 128,-1,8
 50 233 50 233 50 341 c 0,9,10
 50 450 50 450 95 533.5 c 128,-1,11
 140 617 140 617 222 664 c 128,-1,12
 304 711 304 711 415 711 c 0,13,14
 456 711 456 711 487 706 c 128,-1,15
 518 701 518 701 562 691 c 0,16,17
 582 687 582 687 597 683 c 128,-1,18
 612 679 612 679 628 679 c 0,19,20
 633 679 633 679 639 679.5 c 128,-1,21
 645 680 645 680 649 681 c 1,22,23
 651 637 651 637 653 590 c 128,-1,24
 655 543 655 543 659 492 c 1,25,26
 639 489 639 489 625 490 c 1,27,28
 586 671 586 671 420 671 c 0,29,30
 353 671 353 671 306 644.5 c 128,-1,31
 259 618 259 618 230 572.5 c 128,-1,32
 201 527 201 527 188 470 c 128,-1,33
 175 413 175 413 175 351 c 0,34,35
 175 263 175 263 201 189 c 128,-1,36
 227 115 227 115 283 71 c 128,-1,37
 339 27 339 27 427 27 c 0,38,39
 510 27 510 27 559.5 71 c 128,-1,40
 609 115 609 115 631 208 c 1,41,42
 639 208 639 208 647.5 208 c 128,-1,43
 656 208 656 208 666 207 c 1,0,1
EndSplineSet
Substitution2: "'c2sc' Capitals to Small Capitals in Latin lookup 37 subtable" C.sc
EndChar

StartChar: D
Encoding: 68 68 6
Width: 527
GlyphClass: 2
Flags: W
AnchorPoint: "Anchor-23" 555 0 basechar 0
AnchorPoint: "Anchor-22" 520 0 basechar 0
AnchorPoint: "Anchor-21" 549 0 basechar 0
AnchorPoint: "Anchor-20" 492 60 basechar 0
AnchorPoint: "Anchor-11" 269 107 basechar 0
AnchorPoint: "Anchor-10" 560 11 basechar 0
AnchorPoint: "Anchor-9" 467 28 basechar 0
AnchorPoint: "Anchor-8" 512 -25 basechar 0
AnchorPoint: "Anchor-7" 540 20 basechar 0
AnchorPoint: "Anchor-5" 512 -60 basechar 0
AnchorPoint: "Anchor-4" 502 0 basechar 0
AnchorPoint: "Anchor-3" 510 0 basechar 0
AnchorPoint: "Anchor-2" 410 0 basechar 0
AnchorPoint: "Anchor-1" 510 0 basechar 0
AnchorPoint: "Anchor-0" 510 0 basechar 0
LayerCount: 2
Fore
SplineSet
487 -98 m 1,0,-1
 478 -98 l 1,1,-1
 386 63 l 1,2,3
 358 55 358 55 323 55 c 0,4,5
 271 55 271 55 223 76.5 c 128,-1,6
 175 98 175 98 137 135 c 128,-1,7
 99 172 99 172 77 218.5 c 128,-1,8
 55 265 55 265 55 316 c 0,9,10
 55 368 55 368 81.5 397 c 128,-1,11
 108 426 108 426 155 437.5 c 128,-1,12
 202 449 202 449 265 449 c 2,13,-1
 340 449 l 1,14,-1
 340 545 l 1,15,-1
 6 545 l 1,16,-1
 -28 610 l 1,17,-1
 -28 620 l 1,18,-1
 521 620 l 1,19,-1
 555 555 l 1,20,-1
 555 545 l 1,21,-1
 422 545 l 1,22,23
 422 503 422 503 422.5 458.5 c 128,-1,24
 423 414 423 414 423 382 c 1,25,-1
 411 374 l 1,26,-1
 270 374 l 2,27,28
 206 374 206 374 168 349 c 128,-1,29
 130 324 130 324 130 273 c 0,30,31
 130 226 130 226 150.5 192.5 c 128,-1,32
 171 159 171 159 203 141.5 c 128,-1,33
 235 124 235 124 270 124 c 0,34,35
 288 124 288 124 308.5 127.5 c 128,-1,36
 329 131 329 131 344 140 c 1,37,38
 332 164 332 164 324.5 184 c 128,-1,39
 317 204 317 204 317 218 c 0,40,41
 317 235 317 235 326.5 242.5 c 128,-1,42
 336 250 336 250 352 250 c 0,43,44
 375 250 375 250 403.5 237 c 128,-1,45
 432 224 432 224 453.5 203.5 c 128,-1,46
 475 183 475 183 475 159 c 0,47,48
 475 148 475 148 466 126 c 128,-1,49
 457 104 457 104 431 85 c 1,50,-1
 539 -65 l 1,51,-1
 487 -98 l 1,0,-1
EndSplineSet
Substitution2: "'c2sc' Capitals to Small Capitals in Latin lookup 37 subtable" D.sc
EndChar

StartChar: E
Encoding: 69 69 7
Width: 640
GlyphClass: 2
Flags: W
LayerCount: 2
Fore
SplineSet
33 -1 m 1,0,1
 31 14 31 14 33 31 c 1,2,3
 80 36 80 36 100 40.5 c 128,-1,4
 120 45 120 45 125 60.5 c 128,-1,5
 130 76 130 76 130 111 c 2,6,-1
 130 576 l 2,7,8
 130 618 130 618 125 636 c 128,-1,9
 120 654 120 654 99.5 659.5 c 128,-1,10
 79 665 79 665 33 669 c 1,11,12
 31 684 31 684 33 701 c 1,13,14
 59 701 59 701 78.5 700.5 c 128,-1,15
 98 700 98 700 118 700 c 128,-1,16
 138 700 138 700 166 699.5 c 128,-1,17
 194 699 194 699 237 699 c 0,18,19
 316 699 316 699 385 699.5 c 128,-1,20
 454 700 454 700 500 700.5 c 128,-1,21
 546 701 546 701 554 701 c 1,22,23
 558 664 558 664 563.5 625 c 128,-1,24
 569 586 569 586 576 542 c 1,25,26
 559 540 559 540 543 542 c 1,27,28
 531 572 531 572 515 595 c 128,-1,29
 499 618 499 618 482 630 c 0,30,31
 463 644 463 644 436.5 651 c 128,-1,32
 410 658 410 658 371 658 c 2,33,-1
 240 658 l 1,34,-1
 240 385 l 1,35,-1
 295 385 l 2,36,37
 343 385 343 385 368 391.5 c 128,-1,38
 393 398 393 398 405 420.5 c 128,-1,39
 417 443 417 443 424 492 c 1,40,41
 442 495 442 495 458 492 c 1,42,43
 457 448 457 448 456.5 424.5 c 128,-1,44
 456 401 456 401 456 390 c 128,-1,45
 456 379 456 379 456 372 c 0,46,47
 456 366 456 366 456 362 c 2,48,-1
 458 230 l 1,49,50
 443 227 443 227 424 230 c 1,51,52
 418 283 418 283 406 306 c 128,-1,53
 394 329 394 329 370.5 335 c 128,-1,54
 347 341 347 341 304 341 c 2,55,-1
 240 341 l 1,56,-1
 240 124 l 2,57,58
 240 90 240 90 240.5 69.5 c 128,-1,59
 241 49 241 49 242 43 c 1,60,-1
 379 43 l 2,61,62
 429 43 429 43 459.5 51.5 c 128,-1,63
 490 60 490 60 510 77 c 0,64,65
 524 88 524 88 543 115.5 c 128,-1,66
 562 143 562 143 579 179 c 1,67,68
 595 181 595 181 610 179 c 1,69,70
 600 123 600 123 593 78 c 128,-1,71
 586 33 586 33 581 0 c 1,72,73
 536 0 536 0 483 0 c 128,-1,74
 430 0 430 0 377 0.5 c 128,-1,75
 324 1 324 1 280.5 1 c 128,-1,76
 237 1 237 1 211 1 c 0,77,78
 164 1 164 1 134.5 0.5 c 128,-1,79
 105 0 105 0 82.5 -0.5 c 128,-1,80
 60 -1 60 -1 33 -1 c 1,0,1
EndSplineSet
Substitution2: "'c2sc' Capitals to Small Capitals in Latin lookup 37 subtable" E.sc
EndChar

StartChar: F
Encoding: 70 70 8
Width: 607
GlyphClass: 2
Flags: W
LayerCount: 2
Fore
SplineSet
30 -1 m 1,0,1
 28 14 28 14 30 31 c 1,2,3
 78 36 78 36 99 40.5 c 128,-1,4
 120 45 120 45 125 60 c 128,-1,5
 130 75 130 75 130 111 c 2,6,-1
 130 576 l 2,7,8
 130 618 130 618 125 636 c 128,-1,9
 120 654 120 654 99.5 659.5 c 128,-1,10
 79 665 79 665 33 669 c 1,11,12
 31 684 31 684 33 701 c 1,13,14
 57 701 57 701 73.5 700.5 c 128,-1,15
 90 700 90 700 108 700 c 128,-1,16
 126 700 126 700 153.5 699.5 c 128,-1,17
 181 699 181 699 227 699 c 0,18,19
 284 699 284 699 343 699.5 c 128,-1,20
 402 700 402 700 452.5 700 c 128,-1,21
 503 700 503 700 534.5 700.5 c 128,-1,22
 566 701 566 701 568 701 c 0,23,24
 573 663 573 663 579 622 c 128,-1,25
 585 581 585 581 592 535 c 1,26,27
 584 534 584 534 575.5 534 c 128,-1,28
 567 534 567 534 559 535 c 1,29,30
 533 602 533 602 498 629 c 0,31,32
 462 658 462 658 385 658 c 2,33,-1
 240 658 l 1,34,-1
 240 375 l 1,35,-1
 306 375 l 2,36,37
 354 375 354 375 379 381.5 c 128,-1,38
 404 388 404 388 416 410.5 c 128,-1,39
 428 433 428 433 435 482 c 1,40,41
 453 485 453 485 469 482 c 1,42,43
 468 440 468 440 467.5 415.5 c 128,-1,44
 467 391 467 391 467 377 c 128,-1,45
 467 363 467 363 467 351 c 0,46,47
 467 340 467 340 467 326 c 128,-1,48
 467 312 467 312 467.5 287 c 128,-1,49
 468 262 468 262 469 219 c 1,50,51
 454 216 454 216 435 219 c 1,52,53
 429 272 429 272 417 295.5 c 128,-1,54
 405 319 405 319 381.5 325 c 128,-1,55
 358 331 358 331 315 331 c 2,56,-1
 240 331 l 1,57,-1
 240 124 l 2,58,59
 240 93 240 93 242 76 c 128,-1,60
 244 59 244 59 254 49 c 0,61,62
 264 40 264 40 284.5 37 c 128,-1,63
 305 34 305 34 344 31 c 1,64,65
 347 15 347 15 344 -1 c 1,66,67
 323 -1 323 -1 293 -0.5 c 128,-1,68
 263 0 263 0 233.5 0.5 c 128,-1,69
 204 1 204 1 184 1 c 0,70,71
 165 1 165 1 137 0.5 c 128,-1,72
 109 0 109 0 80.5 -0.5 c 128,-1,73
 52 -1 52 -1 30 -1 c 1,0,1
EndSplineSet
Substitution2: "'c2sc' Capitals to Small Capitals in Latin lookup 37 subtable" F.sc
EndChar

StartChar: G
Encoding: 71 71 9
Width: 788
GlyphClass: 2
Flags: W
LayerCount: 2
Fore
SplineSet
424 -15 m 0,0,1
 311 -15 311 -15 227 27 c 128,-1,2
 143 69 143 69 96.5 149 c 128,-1,3
 50 229 50 229 50 341 c 256,4,5
 50 453 50 453 96.5 536 c 128,-1,6
 143 619 143 619 227.5 665 c 128,-1,7
 312 711 312 711 426 711 c 0,8,9
 464 711 464 711 507 705.5 c 128,-1,10
 550 700 550 700 581 691 c 0,11,12
 600 686 600 686 616 682 c 128,-1,13
 632 678 632 678 648 678 c 0,14,15
 660 678 660 678 672 681 c 1,16,17
 674 637 674 637 676 590 c 128,-1,18
 678 543 678 543 682 492 c 1,19,20
 661 489 661 489 647 490 c 1,21,22
 627 582 627 582 574 626.5 c 128,-1,23
 521 671 521 671 433 671 c 0,24,25
 363 671 363 671 313.5 645.5 c 128,-1,26
 264 620 264 620 233.5 576 c 128,-1,27
 203 532 203 532 189 474.5 c 128,-1,28
 175 417 175 417 175 352 c 0,29,30
 175 257 175 257 204 184 c 128,-1,31
 233 111 233 111 292.5 69.5 c 128,-1,32
 352 28 352 28 442 28 c 0,33,34
 470 28 470 28 504 33.5 c 128,-1,35
 538 39 538 39 569 51 c 1,36,-1
 569 177 l 2,37,38
 569 208 569 208 566.5 225.5 c 128,-1,39
 564 243 564 243 553.5 251 c 128,-1,40
 543 259 543 259 520.5 262.5 c 128,-1,41
 498 266 498 266 459 269 c 1,42,43
 456 285 456 285 459 301 c 1,44,45
 480 301 480 301 510 300.5 c 128,-1,46
 540 300 540 300 570.5 299.5 c 128,-1,47
 601 299 601 299 621 299 c 0,48,49
 652 299 652 299 692.5 300 c 128,-1,50
 733 301 733 301 762 301 c 1,51,52
 764 286 764 286 762 270 c 1,53,54
 721 265 721 265 703 260 c 128,-1,55
 685 255 685 255 681 240 c 128,-1,56
 677 225 677 225 677 189 c 2,57,-1
 677 157 l 2,58,59
 677 110 677 110 679.5 78 c 128,-1,60
 682 46 682 46 684 32 c 1,61,62
 545 -15 545 -15 424 -15 c 0,0,1
EndSplineSet
Substitution2: "'c2sc' Capitals to Small Capitals in Latin lookup 37 subtable" G.sc
EndChar

StartChar: H
Encoding: 72 72 10
Width: 532
GlyphClass: 2
Flags: W
AnchorPoint: "Anchor-23" 555 0 basechar 0
AnchorPoint: "Anchor-22" 520 0 basechar 0
AnchorPoint: "Anchor-21" 549 0 basechar 0
AnchorPoint: "Anchor-20" 516 40 basechar 0
AnchorPoint: "Anchor-11" 278 -47 basechar 0
AnchorPoint: "Anchor-10" 462 -50 basechar 0
AnchorPoint: "Anchor-9" 462 -50 basechar 0
AnchorPoint: "Anchor-8" 536 -77 basechar 0
AnchorPoint: "Anchor-7" 536 -83 basechar 0
AnchorPoint: "Anchor-5" 536 -158 basechar 0
AnchorPoint: "Anchor-4" 536 -133 basechar 0
AnchorPoint: "Anchor-3" 534 0 basechar 0
AnchorPoint: "Anchor-2" 394 0 basechar 0
AnchorPoint: "Anchor-1" 534 0 basechar 0
AnchorPoint: "Anchor-0" 534 0 basechar 0
LayerCount: 2
Fore
SplineSet
440 -121 m 1,0,-1
 429 -164 l 1,1,2
 309 -134 309 -134 236 -91 c 128,-1,3
 163 -48 163 -48 129.5 2 c 128,-1,4
 96 52 96 52 96 103 c 256,5,6
 96 154 96 154 125 198 c 1,7,8
 94 224 94 224 71.5 262.5 c 128,-1,9
 49 301 49 301 49 341 c 0,10,11
 49 394 49 394 92.5 427 c 128,-1,12
 136 460 136 460 229 460 c 2,13,-1
 364 460 l 1,14,-1
 364 545 l 1,15,-1
 6 545 l 1,16,-1
 -28 610 l 1,17,-1
 -28 620 l 1,18,-1
 526 620 l 1,19,-1
 560 555 l 1,20,-1
 560 545 l 1,21,-1
 446 545 l 1,22,23
 446 507 446 507 446.5 465.5 c 128,-1,24
 447 424 447 424 447 393 c 1,25,-1
 435 385 l 1,26,-1
 247 385 l 2,27,28
 188 385 188 385 155 366 c 128,-1,29
 122 347 122 347 122 306 c 0,30,31
 122 286 122 286 132 266.5 c 128,-1,32
 142 247 142 247 155 234 c 1,33,34
 187 263 187 263 229.5 280 c 128,-1,35
 272 297 272 297 319 297 c 256,36,37
 366 297 366 297 398.5 281.5 c 128,-1,38
 431 266 431 266 450.5 242 c 128,-1,39
 470 218 470 218 479 192 c 128,-1,40
 488 166 488 166 488 145 c 0,41,42
 488 62 488 62 383 18 c 1,43,-1
 336 85 l 1,44,45
 369 101 369 101 393.5 124.5 c 128,-1,46
 418 148 418 148 418 183 c 0,47,48
 418 212 418 212 398 225.5 c 128,-1,49
 378 239 378 239 343 239 c 0,50,51
 296 239 296 239 258.5 216.5 c 128,-1,52
 221 194 221 194 199.5 158.5 c 128,-1,53
 178 123 178 123 178 84 c 0,54,55
 178 49 178 49 201 11.5 c 128,-1,56
 224 -26 224 -26 281.5 -60 c 128,-1,57
 339 -94 339 -94 440 -121 c 1,0,-1
EndSplineSet
Substitution2: "'c2sc' Capitals to Small Capitals in Latin lookup 37 subtable" H.sc
EndChar

StartChar: I
Encoding: 73 73 11
Width: 370
GlyphClass: 2
Flags: W
LayerCount: 2
Fore
SplineSet
240 589 m 2,0,-1
 240 124 l 2,1,2
 240 93 240 93 242 75 c 128,-1,3
 244 57 244 57 253 49 c 128,-1,4
 262 41 262 41 282 37.5 c 128,-1,5
 302 34 302 34 339 31 c 1,6,7
 342 15 342 15 339 -1 c 1,8,9
 319 -1 319 -1 290 -0.5 c 128,-1,10
 261 0 261 0 232.5 0.5 c 128,-1,11
 204 1 204 1 185 1 c 256,12,13
 166 1 166 1 137.5 0.5 c 128,-1,14
 109 0 109 0 80.5 -0.5 c 128,-1,15
 52 -1 52 -1 30 -1 c 1,16,17
 27 14 27 14 30 31 c 1,18,19
 78 36 78 36 99 40.5 c 128,-1,20
 120 45 120 45 125 60 c 128,-1,21
 130 75 130 75 130 111 c 2,22,-1
 130 576 l 2,23,24
 130 618 130 618 125 636 c 128,-1,25
 120 654 120 654 99 659.5 c 128,-1,26
 78 665 78 665 30 669 c 1,27,28
 28 684 28 684 30 701 c 1,29,30
 51 701 51 701 80.5 700.5 c 128,-1,31
 110 700 110 700 139 699.5 c 128,-1,32
 168 699 168 699 187 699 c 256,33,34
 206 699 206 699 234 699.5 c 128,-1,35
 262 700 262 700 291 700.5 c 128,-1,36
 320 701 320 701 339 701 c 1,37,38
 342 686 342 686 339 669 c 1,39,40
 292 665 292 665 271 660 c 128,-1,41
 250 655 250 655 245 640 c 128,-1,42
 240 625 240 625 240 589 c 2,0,-1
EndSplineSet
Substitution2: "'c2sc' Capitals to Small Capitals in Latin lookup 37 subtable" I.sc
EndChar

StartChar: J
Encoding: 74 74 12
Width: 329
GlyphClass: 2
Flags: W
LayerCount: 2
Fore
SplineSet
3 -242 m 0,0,1
 -32 -242 -32 -242 -61 -227 c 128,-1,2
 -90 -212 -90 -212 -90 -178 c 0,3,4
 -90 -152 -90 -152 -72 -137.5 c 128,-1,5
 -54 -123 -54 -123 -28 -123 c 0,6,7
 0 -123 0 -123 23 -140.5 c 128,-1,8
 46 -158 46 -158 62 -189 c 1,9,10
 89 -181 89 -181 100 -151 c 128,-1,11
 111 -121 111 -121 113 -75.5 c 128,-1,12
 115 -30 115 -30 115 26 c 2,13,-1
 115 576 l 2,14,15
 115 618 115 618 110 636 c 128,-1,16
 105 654 105 654 84.5 659.5 c 128,-1,17
 64 665 64 665 16 669 c 1,18,19
 13 684 13 684 16 701 c 1,20,21
 36 701 36 701 64.5 700.5 c 128,-1,22
 93 700 93 700 122 699.5 c 128,-1,23
 151 699 151 699 171 699 c 0,24,25
 192 699 192 699 220 699.5 c 128,-1,26
 248 700 248 700 275.5 700.5 c 128,-1,27
 303 701 303 701 324 701 c 1,28,29
 326 686 326 686 324 669 c 1,30,31
 276 665 276 665 255 660 c 128,-1,32
 234 655 234 655 229 640 c 128,-1,33
 224 625 224 625 224 589 c 2,34,-1
 224 74 l 2,35,36
 224 -8 224 -8 208 -65 c 128,-1,37
 192 -122 192 -122 160 -163 c 0,38,39
 129 -202 129 -202 88 -222 c 128,-1,40
 47 -242 47 -242 3 -242 c 0,0,1
EndSplineSet
Substitution2: "'c2sc' Capitals to Small Capitals in Latin lookup 37 subtable" J.sc
EndChar

StartChar: K
Encoding: 75 75 13
Width: 715
GlyphClass: 2
Flags: W
LayerCount: 2
Fore
SplineSet
30 -1 m 1,0,1
 28 14 28 14 30 31 c 1,2,3
 78 36 78 36 99 40.5 c 128,-1,4
 120 45 120 45 125 60 c 128,-1,5
 130 75 130 75 130 111 c 2,6,-1
 130 576 l 2,7,8
 130 618 130 618 125 636 c 128,-1,9
 120 654 120 654 99 659.5 c 128,-1,10
 78 665 78 665 30 669 c 1,11,12
 28 684 28 684 30 701 c 1,13,14
 50 701 50 701 79.5 700.5 c 128,-1,15
 109 700 109 700 138 699.5 c 128,-1,16
 167 699 167 699 185 699 c 0,17,18
 204 699 204 699 231.5 699.5 c 128,-1,19
 259 700 259 700 287.5 700.5 c 128,-1,20
 316 701 316 701 336 701 c 1,21,22
 339 686 339 686 336 669 c 1,23,24
 290 665 290 665 270 660 c 128,-1,25
 250 655 250 655 245 640 c 128,-1,26
 240 625 240 625 240 589 c 2,27,-1
 240 342 l 1,28,-1
 470 586 l 2,29,30
 508 627 508 627 508 642 c 0,31,32
 508 655 508 655 490 660.5 c 128,-1,33
 472 666 472 666 431 669 c 1,34,35
 429 686 429 686 431 701 c 1,36,37
 448 701 448 701 474 700.5 c 128,-1,38
 500 700 500 700 526 699.5 c 128,-1,39
 552 699 552 699 568 699 c 0,40,41
 600 699 600 699 628.5 700 c 128,-1,42
 657 701 657 701 691 701 c 1,43,44
 693 685 693 685 691 669 c 1,45,46
 660 666 660 666 639.5 661 c 128,-1,47
 619 656 619 656 600.5 644 c 128,-1,48
 582 632 582 632 559 610 c 128,-1,49
 536 588 536 588 501 552 c 2,50,-1
 354 400 l 1,51,-1
 560 129 l 2,52,53
 584 98 584 98 600 79.5 c 128,-1,54
 616 61 616 61 631.5 51.5 c 128,-1,55
 647 42 647 42 667.5 38 c 128,-1,56
 688 34 688 34 720 31 c 1,57,58
 723 15 723 15 720 -1 c 1,59,60
 701 -1 701 -1 675 -0.5 c 128,-1,61
 649 0 649 0 624 0.5 c 128,-1,62
 599 1 599 1 581 1 c 0,63,64
 570 1 570 1 552.5 0.5 c 128,-1,65
 535 0 535 0 521 0 c 1,66,-1
 281 323 l 1,67,-1
 240 278 l 1,68,-1
 240 124 l 2,69,70
 240 82 240 82 245 63.5 c 128,-1,71
 250 45 250 45 270.5 40 c 128,-1,72
 291 35 291 35 336 31 c 1,73,74
 339 15 339 15 336 -1 c 1,75,76
 316 -1 316 -1 287.5 -0.5 c 128,-1,77
 259 0 259 0 230.5 0.5 c 128,-1,78
 202 1 202 1 183 1 c 256,79,80
 164 1 164 1 136 0.5 c 128,-1,81
 108 0 108 0 79.5 -0.5 c 128,-1,82
 51 -1 51 -1 30 -1 c 1,0,1
EndSplineSet
Substitution2: "'c2sc' Capitals to Small Capitals in Latin lookup 37 subtable" K.sc
EndChar

StartChar: L
Encoding: 76 76 14
Width: 555
GlyphClass: 2
Flags: W
LayerCount: 2
Fore
SplineSet
482 -1 m 1,0,1
 439 0 439 0 389.5 0.5 c 128,-1,2
 340 1 340 1 291 1 c 128,-1,3
 242 1 242 1 200 1 c 0,4,5
 140 1 140 1 96 1 c 128,-1,6
 52 1 52 1 29 0 c 1,7,8
 25 13 25 13 25 28 c 1,9,10
 90 75 90 75 111.5 126 c 128,-1,11
 133 177 133 177 133 227 c 0,12,13
 133 242 133 242 131 258 c 1,14,-1
 50 258 l 1,15,16
 49 282 49 282 50 302 c 1,17,-1
 124 302 l 1,18,19
 116 338 116 338 107 373 c 128,-1,20
 98 408 98 408 98 450 c 0,21,22
 98 511 98 511 132 551 c 128,-1,23
 166 591 166 591 219 610.5 c 128,-1,24
 272 630 272 630 327 630 c 0,25,26
 381 630 381 630 417 614.5 c 128,-1,27
 453 599 453 599 470.5 577 c 128,-1,28
 488 555 488 555 488 533 c 0,29,30
 488 513 488 513 475 498 c 128,-1,31
 462 483 462 483 439 483 c 0,32,33
 411 483 411 483 391 508 c 128,-1,34
 371 533 371 533 371 575 c 1,35,36
 345 591 345 591 314 591 c 0,37,38
 262 591 262 591 229.5 557 c 128,-1,39
 197 523 197 523 197 461 c 0,40,41
 197 429 197 429 201.5 407 c 128,-1,42
 206 385 206 385 211 361.5 c 128,-1,43
 216 338 216 338 219 302 c 1,44,-1
 407 302 l 1,45,46
 408 282 408 282 407 258 c 1,47,-1
 220 258 l 1,48,49
 219 215 219 215 200.5 173 c 128,-1,50
 182 131 182 131 132 87 c 1,51,-1
 133 84 l 1,52,53
 188 84 188 84 258 84.5 c 128,-1,54
 328 85 328 85 387 86 c 0,55,56
 413 87 413 87 427.5 91.5 c 128,-1,57
 442 96 442 96 455 114 c 128,-1,58
 468 132 468 132 489 173 c 1,59,60
 496 173 496 173 504.5 172 c 128,-1,61
 513 171 513 171 520 168 c 1,62,63
 509 126 509 126 499.5 82.5 c 128,-1,64
 490 39 490 39 482 -1 c 1,0,1
EndSplineSet
Substitution2: "'c2sc' Capitals to Small Capitals in Latin lookup 37 subtable" L.sc
EndChar

StartChar: M
Encoding: 77 77 15
Width: 969
GlyphClass: 2
Flags: W
LayerCount: 2
Fore
SplineSet
482 152 m 1,0,-1
 696 700 l 1,1,2
 717 699 717 699 740 699 c 128,-1,3
 763 699 763 699 779 699 c 0,4,5
 787 699 787 699 808.5 699.5 c 128,-1,6
 830 700 830 700 855.5 700 c 128,-1,7
 881 700 881 700 902.5 700.5 c 128,-1,8
 924 701 924 701 932 701 c 1,9,10
 935 686 935 686 932 670 c 1,11,-1
 930 670 l 1,12,13
 884 665 884 665 863 660.5 c 128,-1,14
 842 656 842 656 837.5 640.5 c 128,-1,15
 833 625 833 625 833 590 c 2,16,-1
 841 123 l 2,17,18
 841 92 841 92 843 74 c 128,-1,19
 845 56 845 56 854 48 c 128,-1,20
 863 40 863 40 883 36.5 c 128,-1,21
 903 33 903 33 940 30 c 1,22,23
 943 15 943 15 940 -1 c 1,24,25
 932 -1 932 -1 910.5 -0.5 c 128,-1,26
 889 0 889 0 863.5 0 c 128,-1,27
 838 0 838 0 816.5 0.5 c 128,-1,28
 795 1 795 1 787 1 c 256,29,30
 779 1 779 1 758 0.5 c 128,-1,31
 737 0 737 0 712 0 c 128,-1,32
 687 0 687 0 666 -0.5 c 128,-1,33
 645 -1 645 -1 637 -1 c 1,34,35
 636 14 636 14 637 30 c 1,36,-1
 639 30 l 1,37,38
 683 35 683 35 703 39.5 c 128,-1,39
 723 44 723 44 727.5 59.5 c 128,-1,40
 732 75 732 75 732 110 c 2,41,-1
 723 646 l 1,42,-1
 471 1 l 1,43,44
 464 -2 464 -2 449 -3 c 128,-1,45
 434 -4 434 -4 423 -4 c 1,46,-1
 186 625 l 1,47,-1
 170 110 l 2,48,49
 169 77 169 77 173 62.5 c 128,-1,50
 177 48 177 48 197 42 c 128,-1,51
 217 36 217 36 264 30 c 1,52,53
 268 14 268 14 264 -1 c 1,54,55
 254 -1 254 -1 229.5 -0.5 c 128,-1,56
 205 0 205 0 180.5 0.5 c 128,-1,57
 156 1 156 1 145 1 c 0,58,59
 139 1 139 1 121.5 0.5 c 128,-1,60
 104 0 104 0 83 0 c 128,-1,61
 62 0 62 0 44.5 -0.5 c 128,-1,62
 27 -1 27 -1 21 -1 c 1,63,64
 19 15 19 15 21 30 c 1,65,66
 68 36 68 36 88 42 c 128,-1,67
 108 48 108 48 113.5 66 c 128,-1,68
 119 84 119 84 120 123 c 2,69,-1
 139 590 l 2,70,71
 141 625 141 625 136 640 c 128,-1,72
 131 655 131 655 109.5 660.5 c 128,-1,73
 88 666 88 666 39 670 c 1,74,75
 38 686 38 686 39 701 c 1,76,77
 73 701 73 701 109 700 c 128,-1,78
 145 699 145 699 189 699 c 0,79,80
 204 699 204 699 229 699 c 128,-1,81
 254 699 254 699 275 700 c 1,82,-1
 482 152 l 1,0,-1
EndSplineSet
Substitution2: "'c2sc' Capitals to Small Capitals in Latin lookup 37 subtable" M.sc
EndChar

StartChar: N
Encoding: 78 78 16
Width: 793
GlyphClass: 2
Flags: W
LayerCount: 2
Fore
SplineSet
621 -7 m 1,0,-1
 176 577 l 1,1,-1
 176 149 l 2,2,3
 176 111 176 111 178 90.5 c 128,-1,4
 180 70 180 70 190 59 c 0,5,6
 200 49 200 49 221 42 c 128,-1,7
 242 35 242 35 281 31 c 1,8,9
 283 15 283 15 281 -1 c 1,10,11
 251 -1 251 -1 214.5 0 c 128,-1,12
 178 1 178 1 153 1 c 256,13,14
 128 1 128 1 91.5 0 c 128,-1,15
 55 -1 55 -1 26 -1 c 1,16,17
 23 14 23 14 26 31 c 1,18,19
 62 36 62 36 82 40.5 c 128,-1,20
 102 45 102 45 111 54.5 c 128,-1,21
 120 64 120 64 122.5 83 c 128,-1,22
 125 102 125 102 125 136 c 2,23,-1
 125 546 l 2,24,25
 125 586 125 586 122.5 609 c 128,-1,26
 120 632 120 632 109.5 643.5 c 128,-1,27
 99 655 99 655 77.5 660.5 c 128,-1,28
 56 666 56 666 18 670 c 1,29,30
 17 685 17 685 18 701 c 1,31,32
 49 701 49 701 84 700 c 128,-1,33
 119 699 119 699 154 699 c 0,34,35
 159 699 159 699 181.5 699 c 128,-1,36
 204 699 204 699 221 700 c 1,37,-1
 627 166 l 1,38,-1
 627 550 l 2,39,40
 627 588 627 588 625.5 609 c 128,-1,41
 624 630 624 630 613 640 c 0,42,43
 592 662 592 662 512 668 c 1,44,45
 509 685 509 685 512 700 c 1,46,47
 531 700 531 700 557.5 699.5 c 128,-1,48
 584 699 584 699 609 698.5 c 128,-1,49
 634 698 634 698 650 698 c 0,50,51
 675 698 675 698 712 699 c 128,-1,52
 749 700 749 700 778 700 c 1,53,54
 780 685 780 685 778 669 c 1,55,56
 730 663 730 663 709 655.5 c 128,-1,57
 688 648 688 648 683 628 c 128,-1,58
 678 608 678 608 678 563 c 2,59,-1
 678 -2 l 1,60,61
 668 -4 668 -4 651 -5.5 c 128,-1,62
 634 -7 634 -7 621 -7 c 1,0,-1
EndSplineSet
Substitution2: "'c2sc' Capitals to Small Capitals in Latin lookup 37 subtable" N.sc
EndChar

StartChar: O
Encoding: 79 79 17
Width: 802
GlyphClass: 2
Flags: W
LayerCount: 2
Fore
SplineSet
752 354 m 0,0,1
 752 246 752 246 708 163 c 128,-1,2
 664 80 664 80 584 32.5 c 128,-1,3
 504 -15 504 -15 395 -15 c 0,4,5
 287 -15 287 -15 210 31 c 128,-1,6
 133 77 133 77 91.5 158 c 128,-1,7
 50 239 50 239 50 342 c 0,8,9
 50 449 50 449 94 532.5 c 128,-1,10
 138 616 138 616 218.5 663.5 c 128,-1,11
 299 711 299 711 407 711 c 0,12,13
 514 711 514 711 591 665 c 128,-1,14
 668 619 668 619 710 538.5 c 128,-1,15
 752 458 752 458 752 354 c 0,0,1
628 344 m 0,16,17
 628 405 628 405 616 463 c 128,-1,18
 604 521 604 521 577.5 568 c 128,-1,19
 551 615 551 615 508 642.5 c 128,-1,20
 465 670 465 670 403 670 c 0,21,22
 340 670 340 670 296.5 642 c 128,-1,23
 253 614 253 614 226.5 568 c 128,-1,24
 200 522 200 522 187.5 465 c 128,-1,25
 175 408 175 408 175 349 c 0,26,27
 175 291 175 291 187.5 233.5 c 128,-1,28
 200 176 200 176 227 129 c 128,-1,29
 254 82 254 82 298.5 53.5 c 128,-1,30
 343 25 343 25 406 25 c 0,31,32
 468 25 468 25 510.5 52 c 128,-1,33
 553 79 553 79 579 124.5 c 128,-1,34
 605 170 605 170 616.5 227 c 128,-1,35
 628 284 628 284 628 344 c 0,16,17
EndSplineSet
Substitution2: "'c2sc' Capitals to Small Capitals in Latin lookup 37 subtable" O.sc
EndChar

StartChar: P
Encoding: 80 80 18
Width: 592
GlyphClass: 2
Flags: W
LayerCount: 2
Fore
SplineSet
330 310 m 0,0,1
 312 310 312 310 290 312 c 128,-1,2
 268 314 268 314 240 320 c 1,3,-1
 240 124 l 2,4,5
 240 93 240 93 242 75.5 c 128,-1,6
 244 58 244 58 254 49 c 0,7,8
 265 40 265 40 284.5 37 c 128,-1,9
 304 34 304 34 347 31 c 1,10,11
 349 15 349 15 347 -1 c 1,12,13
 325 -1 325 -1 294.5 -0.5 c 128,-1,14
 264 0 264 0 234.5 0.5 c 128,-1,15
 205 1 205 1 185 1 c 0,16,17
 166 1 166 1 137.5 0.5 c 128,-1,18
 109 0 109 0 80.5 -0.5 c 128,-1,19
 52 -1 52 -1 30 -1 c 1,20,21
 28 14 28 14 30 31 c 1,22,23
 78 36 78 36 99 40.5 c 128,-1,24
 120 45 120 45 125 60 c 128,-1,25
 130 75 130 75 130 111 c 2,26,-1
 130 576 l 2,27,28
 130 618 130 618 125 636 c 128,-1,29
 120 654 120 654 99 659.5 c 128,-1,30
 78 665 78 665 30 669 c 1,31,32
 28 684 28 684 30 701 c 1,33,34
 50 701 50 701 80.5 700.5 c 128,-1,35
 111 700 111 700 140 699.5 c 128,-1,36
 169 699 169 699 182 699 c 0,37,38
 201 699 201 699 229.5 699.5 c 128,-1,39
 258 700 258 700 286 701 c 128,-1,40
 314 702 314 702 330 702 c 0,41,42
 393 702 393 702 447 684.5 c 128,-1,43
 501 667 501 667 534 627 c 128,-1,44
 567 587 567 587 567 517 c 0,45,46
 567 450 567 450 536 404 c 128,-1,47
 505 358 505 358 451.5 334 c 128,-1,48
 398 310 398 310 330 310 c 0,0,1
240 360 m 1,49,50
 253 357 253 357 269 354 c 128,-1,51
 285 351 285 351 303 351 c 0,52,53
 369 351 369 351 407 395.5 c 128,-1,54
 445 440 445 440 445 512 c 0,55,56
 445 582 445 582 407 622 c 128,-1,57
 369 662 369 662 293 662 c 0,58,59
 283 662 283 662 268.5 661 c 128,-1,60
 254 660 254 660 240 658 c 1,61,-1
 240 360 l 1,49,50
EndSplineSet
Substitution2: "'c2sc' Capitals to Small Capitals in Latin lookup 37 subtable" P.sc
EndChar

StartChar: Q
Encoding: 81 81 19
Width: 802
GlyphClass: 2
Flags: W
LayerCount: 2
Fore
SplineSet
323 -9 m 0,0,1
 236 8 236 8 175 56 c 128,-1,2
 114 104 114 104 82 177 c 128,-1,3
 50 250 50 250 50 340 c 0,4,5
 50 449 50 449 94 532.5 c 128,-1,6
 138 616 138 616 218.5 663.5 c 128,-1,7
 299 711 299 711 407 711 c 0,8,9
 514 711 514 711 591 665 c 128,-1,10
 668 619 668 619 710 538.5 c 128,-1,11
 752 458 752 458 752 354 c 0,12,13
 752 261 752 261 718.5 185 c 128,-1,14
 685 109 685 109 622 58.5 c 128,-1,15
 559 8 559 8 470 -6 c 1,16,-1
 470 -9 l 1,17,18
 535 -68 535 -68 582.5 -100.5 c 128,-1,19
 630 -133 630 -133 670.5 -145 c 128,-1,20
 711 -157 711 -157 756 -157 c 0,21,22
 778 -157 778 -157 798.5 -154 c 128,-1,23
 819 -151 819 -151 841 -142 c 1,24,25
 849 -153 849 -153 856 -169 c 1,26,27
 819 -200 819 -200 771.5 -221 c 128,-1,28
 724 -242 724 -242 672 -242 c 0,29,30
 618 -242 618 -242 580.5 -221 c 128,-1,31
 543 -200 543 -200 515.5 -167 c 128,-1,32
 488 -134 488 -134 463 -100 c 0,33,34
 453 -86 453 -86 444 -72.5 c 128,-1,35
 435 -59 435 -59 424 -47 c 0,36,37
 409 -28 409 -28 396 -22.5 c 128,-1,38
 383 -17 383 -17 366.5 -15.5 c 128,-1,39
 350 -14 350 -14 323 -9 c 0,0,1
628 344 m 0,40,41
 628 405 628 405 616 463 c 128,-1,42
 604 521 604 521 577.5 568 c 128,-1,43
 551 615 551 615 508 642.5 c 128,-1,44
 465 670 465 670 403 670 c 0,45,46
 340 670 340 670 296.5 642.5 c 128,-1,47
 253 615 253 615 226.5 568.5 c 128,-1,48
 200 522 200 522 187.5 465 c 128,-1,49
 175 408 175 408 175 350 c 256,50,51
 175 292 175 292 187.5 234 c 128,-1,52
 200 176 200 176 227 129 c 128,-1,53
 254 82 254 82 298.5 53.5 c 128,-1,54
 343 25 343 25 406 25 c 0,55,56
 468 25 468 25 510.5 52 c 128,-1,57
 553 79 553 79 579 124.5 c 128,-1,58
 605 170 605 170 616.5 227 c 128,-1,59
 628 284 628 284 628 344 c 0,40,41
EndSplineSet
Substitution2: "'c2sc' Capitals to Small Capitals in Latin lookup 37 subtable" Q.sc
EndChar

StartChar: R
Encoding: 82 82 20
Width: 693
GlyphClass: 2
Flags: W
LayerCount: 2
Fore
SplineSet
266 316 m 2,0,-1
 240 319 l 1,1,-1
 240 124 l 2,2,3
 240 93 240 93 242 75 c 128,-1,4
 244 57 244 57 252.5 49 c 128,-1,5
 261 41 261 41 280.5 37.5 c 128,-1,6
 300 34 300 34 335 31 c 1,7,8
 338 15 338 15 335 -1 c 1,9,10
 315 -1 315 -1 287 -0.5 c 128,-1,11
 259 0 259 0 231 0.5 c 128,-1,12
 203 1 203 1 184 1 c 0,13,14
 166 1 166 1 137 0.5 c 128,-1,15
 108 0 108 0 79 -0.5 c 128,-1,16
 50 -1 50 -1 30 -1 c 1,17,18
 27 14 27 14 30 31 c 1,19,20
 78 35 78 35 99 39.5 c 128,-1,21
 120 44 120 44 125 59.5 c 128,-1,22
 130 75 130 75 130 111 c 2,23,-1
 130 577 l 2,24,25
 130 618 130 618 124.5 636 c 128,-1,26
 119 654 119 654 98 660 c 128,-1,27
 77 666 77 666 30 669 c 1,28,29
 27 684 27 684 30 701 c 1,30,31
 49 701 49 701 79.5 700.5 c 128,-1,32
 110 700 110 700 139.5 699.5 c 128,-1,33
 169 699 169 699 183 699 c 0,34,35
 201 699 201 699 229.5 699.5 c 128,-1,36
 258 700 258 700 286.5 701 c 128,-1,37
 315 702 315 702 331 702 c 0,38,39
 394 702 394 702 448.5 685 c 128,-1,40
 503 668 503 668 536.5 629.5 c 128,-1,41
 570 591 570 591 570 526 c 0,42,43
 570 462 570 462 531.5 412 c 128,-1,44
 493 362 493 362 410 337 c 1,45,-1
 410 334 l 1,46,47
 425 322 425 322 444 294 c 2,48,-1
 549 142 l 2,49,50
 575 105 575 105 592.5 84 c 128,-1,51
 610 63 610 63 626 52.5 c 128,-1,52
 642 42 642 42 663 38 c 128,-1,53
 684 34 684 34 716 31 c 1,54,55
 719 15 719 15 716 -1 c 1,56,57
 697 -1 697 -1 669 -0.5 c 128,-1,58
 641 0 641 0 615 0.5 c 128,-1,59
 589 1 589 1 573 1 c 256,60,61
 557 1 557 1 545 0.5 c 128,-1,62
 533 0 533 0 517 0 c 1,63,-1
 332 273 l 2,64,65
 315 299 315 299 302 306.5 c 128,-1,66
 289 314 289 314 266 316 c 2,0,-1
240 360 m 1,67,68
 253 358 253 358 263 357 c 128,-1,69
 273 356 273 356 282 356 c 0,70,71
 360 356 360 356 405.5 396 c 128,-1,72
 451 436 451 436 451 514 c 0,73,74
 451 585 451 585 411.5 623 c 128,-1,75
 372 661 372 661 295 661 c 0,76,77
 285 661 285 661 270.5 660 c 128,-1,78
 256 659 256 659 240 657 c 1,79,-1
 240 360 l 1,67,68
EndSplineSet
Substitution2: "'c2sc' Capitals to Small Capitals in Latin lookup 37 subtable" R.sc
EndChar

StartChar: S
Encoding: 83 83 21
Width: 547
GlyphClass: 2
Flags: W
LayerCount: 2
Fore
SplineSet
256 -14 m 0,0,1
 255 -14 255 -14 223.5 -12.5 c 128,-1,2
 192 -11 192 -11 151 -4 c 0,3,4
 117 2 117 2 89.5 4.5 c 128,-1,5
 62 7 62 7 56 7 c 1,6,7
 55 90 55 90 47 208 c 1,8,9
 55 209 55 209 63.5 209 c 128,-1,10
 72 209 72 209 79 209 c 1,11,12
 98 121 98 121 142.5 73 c 128,-1,13
 187 25 187 25 260 25 c 0,14,15
 325 25 325 25 366 60.5 c 128,-1,16
 407 96 407 96 407 154 c 0,17,18
 407 198 407 198 384.5 226 c 128,-1,19
 362 254 362 254 325.5 273.5 c 128,-1,20
 289 293 289 293 248 310 c 0,21,22
 200 331 200 331 156.5 354.5 c 128,-1,23
 113 378 113 378 85 415 c 128,-1,24
 57 452 57 452 57 511 c 0,25,26
 57 574 57 574 88.5 619 c 128,-1,27
 120 664 120 664 173 687.5 c 128,-1,28
 226 711 226 711 290 711 c 0,29,30
 310 711 310 711 331.5 709 c 128,-1,31
 353 707 353 707 376 703 c 0,32,33
 405 699 405 699 420.5 698 c 128,-1,34
 436 697 436 697 441 697 c 0,35,36
 444 697 444 697 452 697.5 c 128,-1,37
 460 698 460 698 465 699 c 1,38,39
 467 655 467 655 469 608 c 128,-1,40
 471 561 471 561 475 510 c 1,41,42
 455 507 455 507 442 508 c 1,43,44
 419 595 419 595 385 633 c 0,45,46
 351 672 351 672 288 672 c 0,47,48
 233 672 233 672 194 642.5 c 128,-1,49
 155 613 155 613 155 555 c 0,50,51
 155 524 155 524 169.5 500 c 128,-1,52
 184 476 184 476 218 454 c 128,-1,53
 252 432 252 432 312 407 c 0,54,55
 345 393 345 393 378.5 376 c 128,-1,56
 412 359 412 359 440 335.5 c 128,-1,57
 468 312 468 312 485 278.5 c 128,-1,58
 502 245 502 245 502 199 c 0,59,60
 502 131 502 131 468 83.5 c 128,-1,61
 434 36 434 36 378.5 11 c 128,-1,62
 323 -14 323 -14 256 -14 c 0,0,1
EndSplineSet
Substitution2: "'c2sc' Capitals to Small Capitals in Latin lookup 37 subtable" S.sc
EndChar

StartChar: T
Encoding: 84 84 22
Width: 573
GlyphClass: 2
Flags: W
AnchorPoint: "Anchor-22" 520 0 basechar 0
AnchorPoint: "Anchor-21" 549 0 basechar 0
AnchorPoint: "Anchor-20" 539 20 basechar 0
AnchorPoint: "Anchor-11" 216 90 basechar 0
AnchorPoint: "Anchor-10" 573 0 basechar 0
AnchorPoint: "Anchor-9" 573 0 basechar 0
AnchorPoint: "Anchor-8" 573 -10 basechar 0
AnchorPoint: "Anchor-7" 573 0 basechar 0
AnchorPoint: "Anchor-5" 573 0 basechar 0
AnchorPoint: "Anchor-4" 573 0 basechar 0
AnchorPoint: "Anchor-3" 573 0 basechar 0
AnchorPoint: "Anchor-2" 423 0 basechar 0
AnchorPoint: "Anchor-1" 573 0 basechar 0
AnchorPoint: "Anchor-0" 453 0 basechar 0
LayerCount: 2
Fore
SplineSet
223 -10 m 1,0,-1
 213 -10 l 1,1,2
 142 82 142 82 95 156 c 128,-1,3
 48 230 48 230 48 294 c 0,4,5
 48 368 48 368 105.5 401.5 c 128,-1,6
 163 435 163 435 258 435 c 2,7,-1
 399 435 l 1,8,-1
 400 545 l 1,9,-1
 6 545 l 1,10,-1
 -28 610 l 1,11,-1
 -28 620 l 1,12,-1
 567 620 l 1,13,-1
 601 555 l 1,14,-1
 601 545 l 1,15,-1
 484 545 l 1,16,-1
 486 -10 l 1,17,-1
 476 -10 l 1,18,-1
 396 42 l 1,19,-1
 398 360 l 1,20,-1
 269 360 l 2,21,22
 196 360 196 360 160.5 327.5 c 128,-1,23
 125 295 125 295 125 248 c 0,24,25
 125 226 125 226 131.5 206 c 128,-1,26
 138 186 138 186 153.5 162 c 128,-1,27
 169 138 169 138 196.5 105.5 c 128,-1,28
 224 73 224 73 266 25 c 1,29,-1
 223 -10 l 1,0,-1
EndSplineSet
Substitution2: "'c2sc' Capitals to Small Capitals in Latin lookup 37 subtable" T.sc
EndChar

StartChar: U
Encoding: 85 85 23
Width: 767
GlyphClass: 2
Flags: W
LayerCount: 2
Fore
SplineSet
14 701 m 1,0,1
 34 701 34 701 62.5 700.5 c 128,-1,2
 91 700 91 700 119.5 699.5 c 128,-1,3
 148 699 148 699 167 699 c 256,4,5
 186 699 186 699 214.5 699.5 c 128,-1,6
 243 700 243 700 272 700.5 c 128,-1,7
 301 701 301 701 321 701 c 1,8,9
 324 686 324 686 321 670 c 1,10,11
 275 666 275 666 254 661 c 128,-1,12
 233 656 233 656 228 641 c 128,-1,13
 223 626 223 626 223 590 c 2,14,-1
 223 263 l 2,15,16
 223 151 223 151 271.5 96.5 c 128,-1,17
 320 42 320 42 413 42 c 0,18,19
 511 42 511 42 561 103 c 128,-1,20
 611 164 611 164 611 292 c 2,21,-1
 611 566 l 2,22,23
 611 601 611 601 608.5 620.5 c 128,-1,24
 606 640 606 640 595.5 649 c 128,-1,25
 585 658 585 658 564 661.5 c 128,-1,26
 543 665 543 665 505 669 c 1,27,28
 502 684 502 684 505 700 c 1,29,30
 532 700 532 700 570 699 c 128,-1,31
 608 698 608 698 631 698 c 0,32,33
 656 698 656 698 693.5 699 c 128,-1,34
 731 700 731 700 759 700 c 1,35,36
 762 685 762 685 759 669 c 1,37,38
 713 664 713 664 692 659 c 128,-1,39
 671 654 671 654 665.5 637 c 128,-1,40
 660 620 660 620 660 579 c 2,41,-1
 660 271 l 2,42,43
 660 138 660 138 591 63.5 c 128,-1,44
 522 -11 522 -11 382 -11 c 0,45,46
 302 -11 302 -11 241.5 15 c 128,-1,47
 181 41 181 41 147 95.5 c 128,-1,48
 113 150 113 150 113 233 c 2,49,-1
 113 577 l 2,50,51
 113 619 113 619 108 637 c 128,-1,52
 103 655 103 655 82 660.5 c 128,-1,53
 61 666 61 666 14 670 c 1,54,55
 11 685 11 685 14 701 c 1,0,1
EndSplineSet
Substitution2: "'c2sc' Capitals to Small Capitals in Latin lookup 37 subtable" U.sc
EndChar

StartChar: V
Encoding: 86 86 24
Width: 678
GlyphClass: 2
Flags: W
LayerCount: 2
Fore
SplineSet
311 -7 m 1,0,-1
 95 563 l 2,1,2
 82 599 82 599 72.5 619 c 128,-1,3
 63 639 63 639 52 649 c 128,-1,4
 41 659 41 659 23.5 662.5 c 128,-1,5
 6 666 6 666 -23 669 c 1,6,7
 -26 685 -26 685 -23 701 c 1,8,9
 12 701 12 701 50.5 700 c 128,-1,10
 89 699 89 699 125 699 c 0,11,12
 147 699 147 699 175.5 699.5 c 128,-1,13
 204 700 204 700 232.5 700.5 c 128,-1,14
 261 701 261 701 283 701 c 1,15,16
 286 686 286 686 283 669 c 1,17,18
 230 665 230 665 209 659 c 128,-1,19
 188 653 188 653 188 635 c 0,20,21
 188 628 188 628 191.5 617.5 c 128,-1,22
 195 607 195 607 200 593 c 2,23,-1
 371 135 l 1,24,-1
 538 575 l 2,25,26
 545 594 545 594 549 607.5 c 128,-1,27
 553 621 553 621 553 630 c 0,28,29
 553 650 553 650 532.5 657.5 c 128,-1,30
 512 665 512 665 456 669 c 1,31,32
 453 686 453 686 456 701 c 1,33,34
 471 701 471 701 500 700.5 c 128,-1,35
 529 700 529 700 558 699.5 c 128,-1,36
 587 699 587 699 602 699 c 0,37,38
 634 699 634 699 659.5 700 c 128,-1,39
 685 701 685 701 716 701 c 1,40,41
 719 685 719 685 716 669 c 1,42,43
 687 666 687 666 668.5 663 c 128,-1,44
 650 660 650 660 637 650 c 128,-1,45
 624 640 624 640 612.5 618.5 c 128,-1,46
 601 597 601 597 586 558 c 2,47,-1
 365 1 l 1,48,49
 353 -3 353 -3 337.5 -5 c 128,-1,50
 322 -7 322 -7 311 -7 c 1,0,-1
EndSplineSet
Substitution2: "'c2sc' Capitals to Small Capitals in Latin lookup 37 subtable" V.sc
EndChar

StartChar: W
Encoding: 87 87 25
Width: 1012
GlyphClass: 2
Flags: W
LayerCount: 2
Fore
SplineSet
638 -9 m 1,0,-1
 510 362 l 1,1,-1
 357 1 l 1,2,3
 346 -2 346 -2 330 -4 c 128,-1,4
 314 -6 314 -6 303 -7 c 1,5,-1
 101 565 l 2,6,7
 88 601 88 601 79 621 c 128,-1,8
 70 641 70 641 59 650 c 128,-1,9
 48 659 48 659 30.5 662.5 c 128,-1,10
 13 666 13 666 -17 669 c 1,11,12
 -19 685 -19 685 -17 701 c 1,13,14
 16 701 16 701 54.5 700 c 128,-1,15
 93 699 93 699 127 699 c 0,16,17
 156 699 156 699 197.5 700 c 128,-1,18
 239 701 239 701 270 701 c 1,19,20
 273 686 273 686 270 669 c 1,21,22
 229 665 229 665 212 660 c 128,-1,23
 195 655 195 655 195 637 c 0,24,25
 195 630 195 630 198 619.5 c 128,-1,26
 201 609 201 609 206 593 c 2,27,-1
 364 135 l 1,28,-1
 489 425 l 1,29,-1
 441 564 l 2,30,31
 429 600 429 600 420.5 620.5 c 128,-1,32
 412 641 412 641 402 650 c 128,-1,33
 392 659 392 659 376.5 662.5 c 128,-1,34
 361 666 361 666 334 669 c 1,35,36
 332 685 332 685 334 701 c 1,37,38
 369 701 369 701 405 700 c 128,-1,39
 441 699 441 699 475 699 c 0,40,41
 505 699 505 699 548 700 c 128,-1,42
 591 701 591 701 624 701 c 1,43,44
 627 686 627 686 624 669 c 1,45,46
 575 665 575 665 555.5 660 c 128,-1,47
 536 655 536 655 536 636 c 0,48,49
 536 622 536 622 546 593 c 2,50,-1
 698 133 l 1,51,-1
 861 577 l 2,52,53
 869 597 869 597 873.5 610 c 128,-1,54
 878 623 878 623 878 633 c 0,55,56
 878 652 878 652 858 658.5 c 128,-1,57
 838 665 838 665 789 669 c 1,58,59
 786 686 786 686 789 701 c 1,60,61
 803 701 803 701 830 700.5 c 128,-1,62
 857 700 857 700 884.5 699.5 c 128,-1,63
 912 699 912 699 926 699 c 0,64,65
 957 699 957 699 983 700 c 128,-1,66
 1009 701 1009 701 1039 701 c 1,67,68
 1042 685 1042 685 1039 669 c 1,69,70
 1010 666 1010 666 991.5 662 c 128,-1,71
 973 658 973 658 960 647.5 c 128,-1,72
 947 637 947 637 935.5 614.5 c 128,-1,73
 924 592 924 592 909 553 c 2,74,-1
 691 -1 l 1,75,76
 681 -4 681 -4 664.5 -6 c 128,-1,77
 648 -8 648 -8 638 -9 c 1,0,-1
EndSplineSet
Substitution2: "'c2sc' Capitals to Small Capitals in Latin lookup 37 subtable" W.sc
EndChar

StartChar: X
Encoding: 88 88 26
Width: 696
GlyphClass: 2
Flags: W
LayerCount: 2
Fore
SplineSet
380 -1 m 1,0,1
 378 14 378 14 380 31 c 1,2,3
 424 35 424 35 443 40.5 c 128,-1,4
 462 46 462 46 462 59 c 0,5,6
 462 67 462 67 456.5 77 c 128,-1,7
 451 87 451 87 442 101 c 2,8,-1
 317 297 l 1,9,-1
 178 105 l 2,10,11
 168 90 168 90 162 80 c 128,-1,12
 156 70 156 70 156 62 c 0,13,14
 156 48 156 48 178 42 c 128,-1,15
 200 36 200 36 246 31 c 1,16,17
 248 14 248 14 246 -1 c 1,18,19
 235 -1 235 -1 214.5 -0.5 c 128,-1,20
 194 0 194 0 170 0 c 128,-1,21
 146 0 146 0 126 0.5 c 128,-1,22
 106 1 106 1 95 1 c 0,23,24
 63 1 63 1 33.5 0 c 128,-1,25
 4 -1 4 -1 -19 -1 c 1,26,27
 -21 15 -21 15 -19 31 c 1,28,29
 10 34 10 34 30 39 c 128,-1,30
 50 44 50 44 66 55.5 c 128,-1,31
 82 67 82 67 99.5 87.5 c 128,-1,32
 117 108 117 108 142 141 c 2,33,-1
 289 340 l 1,34,-1
 144 566 l 2,35,36
 123 599 123 599 108 618 c 128,-1,37
 93 637 93 637 78 647 c 128,-1,38
 63 657 63 657 44.5 661.5 c 128,-1,39
 26 666 26 666 -3 669 c 1,40,41
 -6 685 -6 685 -3 701 c 1,42,43
 33 701 33 701 72.5 700 c 128,-1,44
 112 699 112 699 149 699 c 0,45,46
 171 699 171 699 200.5 699.5 c 128,-1,47
 230 700 230 700 259.5 700.5 c 128,-1,48
 289 701 289 701 310 701 c 1,49,50
 312 686 312 686 310 669 c 1,51,52
 267 665 267 665 249.5 659.5 c 128,-1,53
 232 654 232 654 232 641 c 0,54,55
 232 634 232 634 237 624 c 128,-1,56
 242 614 242 614 252 598 c 2,57,-1
 363 424 l 1,58,-1
 488 596 l 2,59,60
 509 626 509 626 509 638 c 0,61,62
 509 652 509 652 488.5 658 c 128,-1,63
 468 664 468 664 424 669 c 1,64,65
 421 686 421 686 424 701 c 1,66,67
 438 701 438 701 467.5 700.5 c 128,-1,68
 497 700 497 700 526.5 699.5 c 128,-1,69
 556 699 556 699 570 699 c 0,70,71
 602 699 602 699 634 700 c 128,-1,72
 666 701 666 701 683 701 c 1,73,74
 686 685 686 685 683 669 c 1,75,76
 654 666 654 666 634.5 661 c 128,-1,77
 615 656 615 656 599 645 c 128,-1,78
 583 634 583 634 565 613.5 c 128,-1,79
 547 593 547 593 522 559 c 2,80,-1
 390 382 l 1,81,-1
 548 134 l 2,82,83
 569 101 569 101 584 81.5 c 128,-1,84
 599 62 599 62 614 52.5 c 128,-1,85
 629 43 629 43 648 38.5 c 128,-1,86
 667 34 667 34 696 31 c 1,87,88
 698 15 698 15 696 -1 c 1,89,90
 659 -1 659 -1 621 0 c 128,-1,91
 583 1 583 1 545 1 c 0,92,93
 524 1 524 1 493.5 0.5 c 128,-1,94
 463 0 463 0 432.5 -0.5 c 128,-1,95
 402 -1 402 -1 380 -1 c 1,0,1
EndSplineSet
Substitution2: "'c2sc' Capitals to Small Capitals in Latin lookup 37 subtable" X.sc
EndChar

StartChar: Y
Encoding: 89 89 27
Width: 620
GlyphClass: 2
Flags: W
LayerCount: 2
Fore
SplineSet
512 560 m 2,0,-1
 365 298 l 1,1,-1
 365 124 l 2,2,3
 365 93 365 93 367 75 c 128,-1,4
 369 57 369 57 378 49 c 128,-1,5
 387 41 387 41 407 37.5 c 128,-1,6
 427 34 427 34 464 31 c 1,7,8
 467 15 467 15 464 -1 c 1,9,10
 443 -1 443 -1 414 -0.5 c 128,-1,11
 385 0 385 0 356.5 0.5 c 128,-1,12
 328 1 328 1 309 1 c 256,13,14
 290 1 290 1 262 0.5 c 128,-1,15
 234 0 234 0 205 -0.5 c 128,-1,16
 176 -1 176 -1 155 -1 c 1,17,18
 153 14 153 14 155 31 c 1,19,20
 203 36 203 36 224 40.5 c 128,-1,21
 245 45 245 45 250 60.5 c 128,-1,22
 255 76 255 76 255 111 c 2,23,-1
 255 288 l 1,24,-1
 103 566 l 2,25,26
 85 600 85 600 73 619.5 c 128,-1,27
 61 639 61 639 49.5 648.5 c 128,-1,28
 38 658 38 658 21.5 662 c 128,-1,29
 5 666 5 666 -24 669 c 1,30,31
 -26 685 -26 685 -24 701 c 1,32,33
 12 701 12 701 50 700 c 128,-1,34
 88 699 88 699 125 699 c 0,35,36
 157 699 157 699 196 700 c 128,-1,37
 235 701 235 701 271 701 c 1,38,39
 273 686 273 686 271 669 c 1,40,41
 228 665 228 665 210 659.5 c 128,-1,42
 192 654 192 654 192 640 c 0,43,44
 192 633 192 633 197.5 621.5 c 128,-1,45
 203 610 203 610 212 593 c 2,46,-1
 343 348 l 1,47,-1
 475 592 l 2,48,49
 493 625 493 625 493 637 c 0,50,51
 493 652 493 652 472.5 657.5 c 128,-1,52
 452 663 452 663 402 669 c 1,53,54
 400 686 400 686 402 701 c 1,55,56
 418 701 418 701 443 700.5 c 128,-1,57
 468 700 468 700 492.5 699.5 c 128,-1,58
 517 699 517 699 533 699 c 0,59,60
 565 699 565 699 592.5 700 c 128,-1,61
 620 701 620 701 651 701 c 1,62,63
 653 685 653 685 651 669 c 1,64,65
 622 666 622 666 604 662 c 128,-1,66
 586 658 586 658 573 647.5 c 128,-1,67
 560 637 560 637 546 616.5 c 128,-1,68
 532 596 532 596 512 560 c 2,0,-1
EndSplineSet
Substitution2: "'c2sc' Capitals to Small Capitals in Latin lookup 37 subtable" Y.sc
EndChar

StartChar: Z
Encoding: 90 90 28
Width: 656
GlyphClass: 2
Flags: W
LayerCount: 2
Fore
SplineSet
617 679 m 2,0,-1
 170 43 l 1,1,-1
 393 43 l 2,2,3
 488 43 488 43 530 86 c 0,4,5
 562 119 562 119 595 198 c 1,6,7
 611 200 611 200 626 198 c 1,8,9
 615 136 615 136 607 86.5 c 128,-1,10
 599 37 599 37 595 0 c 1,11,12
 580 0 580 0 502.5 0.5 c 128,-1,13
 425 1 425 1 276 1 c 0,14,15
 197 1 197 1 151 0.5 c 128,-1,16
 105 0 105 0 78 -0.5 c 128,-1,17
 51 -1 51 -1 29 -1 c 1,18,19
 25 8 25 8 25 19 c 1,20,-1
 472 657 l 1,21,-1
 254 657 l 2,22,23
 178 657 178 657 142 622 c 0,24,25
 110 591 110 591 87 519 c 1,26,27
 71 518 71 518 53 519 c 1,28,29
 61 569 61 569 67 614 c 128,-1,30
 73 659 73 659 77 702 c 1,31,32
 142 698 142 698 212.5 697.5 c 128,-1,33
 283 697 283 697 362 697 c 0,34,35
 443 697 443 697 491.5 697.5 c 128,-1,36
 540 698 540 698 568 699 c 128,-1,37
 596 700 596 700 613 700 c 1,38,39
 615 696 615 696 616 690.5 c 128,-1,40
 617 685 617 685 617 679 c 2,0,-1
EndSplineSet
Substitution2: "'c2sc' Capitals to Small Capitals in Latin lookup 37 subtable" Z.sc
EndChar

StartChar: Agrave
Encoding: 192 192 29
Width: 573
GlyphClass: 2
Flags: W
AnchorPoint: "Anchor-22" 520 0 basechar 0
AnchorPoint: "Anchor-21" 549 0 basechar 0
AnchorPoint: "Anchor-20" 539 20 basechar 0
AnchorPoint: "Anchor-11" 216 90 basechar 0
AnchorPoint: "Anchor-10" 573 0 basechar 0
AnchorPoint: "Anchor-9" 573 0 basechar 0
AnchorPoint: "Anchor-8" 573 -10 basechar 0
AnchorPoint: "Anchor-7" 573 0 basechar 0
AnchorPoint: "Anchor-5" 573 0 basechar 0
AnchorPoint: "Anchor-4" 573 0 basechar 0
AnchorPoint: "Anchor-3" 573 0 basechar 0
AnchorPoint: "Anchor-2" 423 0 basechar 0
AnchorPoint: "Anchor-1" 573 0 basechar 0
AnchorPoint: "Anchor-0" 453 0 basechar 0
LayerCount: 2
Fore
SplineSet
223 -10 m 1,0,-1
 213 -10 l 1,1,2
 142 82 142 82 95 156 c 128,-1,3
 48 230 48 230 48 294 c 0,4,5
 48 368 48 368 105.5 401.5 c 128,-1,6
 163 435 163 435 258 435 c 2,7,-1
 399 435 l 1,8,-1
 400 545 l 1,9,-1
 6 545 l 1,10,-1
 -28 610 l 1,11,-1
 -28 620 l 1,12,-1
 567 620 l 1,13,-1
 601 555 l 1,14,-1
 601 545 l 1,15,-1
 484 545 l 1,16,-1
 486 -10 l 1,17,-1
 476 -10 l 1,18,-1
 396 42 l 1,19,-1
 398 360 l 1,20,-1
 269 360 l 2,21,22
 196 360 196 360 160.5 327.5 c 128,-1,23
 125 295 125 295 125 248 c 0,24,25
 125 226 125 226 131.5 206 c 128,-1,26
 138 186 138 186 153.5 162 c 128,-1,27
 169 138 169 138 196.5 105.5 c 128,-1,28
 224 73 224 73 266 25 c 1,29,-1
 223 -10 l 1,0,-1
EndSplineSet
Substitution2: "'c2sc' Capitals to Small Capitals in Latin lookup 37 subtable" Agrave.sc
Ligature2: "'ccmp' Glyph Composition/Decomposition in Latin lookup 29 subtable" A gravecomb
EndChar

StartChar: Aacute
Encoding: 193 193 30
Width: 763
GlyphClass: 2
Flags: W
AnchorPoint: "Anchor-23" 555 0 basechar 0
AnchorPoint: "Anchor-22" 520 0 basechar 0
AnchorPoint: "Anchor-21" 549 0 basechar 0
AnchorPoint: "Anchor-20" 520 36 basechar 0
AnchorPoint: "Anchor-11" 336 130 basechar 0
AnchorPoint: "Anchor-10" 541 0 basechar 0
AnchorPoint: "Anchor-9" 541 0 basechar 0
AnchorPoint: "Anchor-8" 651 0 basechar 0
AnchorPoint: "Anchor-7" 541 0 basechar 0
AnchorPoint: "Anchor-5" 541 0 basechar 0
AnchorPoint: "Anchor-4" 631 0 basechar 0
AnchorPoint: "Anchor-3" 540 0 basechar 0
AnchorPoint: "Anchor-2" 540 0 basechar 0
AnchorPoint: "Anchor-1" 540 0 basechar 0
AnchorPoint: "Anchor-0" 541 0 basechar 0
LayerCount: 2
Fore
SplineSet
645 68 m 1,0,-1
 637 68 l 1,1,-1
 568 127 l 1,2,3
 603 168 603 168 627.5 216 c 128,-1,4
 652 264 652 264 652 297 c 0,5,6
 652 323 652 323 637.5 336.5 c 128,-1,7
 623 350 623 350 604 350 c 0,8,9
 583 350 583 350 556 336.5 c 128,-1,10
 529 323 529 323 502 304 c 128,-1,11
 475 285 475 285 453 268 c 1,12,-1
 454 -10 l 1,13,-1
 444 -10 l 1,14,-1
 364 44 l 1,15,-1
 365 203 l 1,16,17
 330 177 330 177 307.5 163 c 128,-1,18
 285 149 285 149 266 143.5 c 128,-1,19
 247 138 247 138 224 138 c 0,20,21
 173 138 173 138 132.5 165 c 128,-1,22
 92 192 92 192 68.5 233.5 c 128,-1,23
 45 275 45 275 45 316 c 0,24,25
 45 359 45 359 68 390 c 128,-1,26
 91 421 91 421 127.5 438 c 128,-1,27
 164 455 164 455 203 455 c 0,28,29
 254 455 254 455 295.5 428.5 c 128,-1,30
 337 402 337 402 367 365 c 1,31,-1
 369 545 l 1,32,-1
 6 545 l 1,33,-1
 -28 610 l 1,34,-1
 -28 620 l 1,35,-1
 757 620 l 1,36,-1
 791 555 l 1,37,-1
 791 545 l 1,38,-1
 451 545 l 1,39,-1
 452 369 l 1,40,41
 485 392 485 392 516.5 408.5 c 128,-1,42
 548 425 548 425 571 425 c 0,43,44
 589 425 589 425 613.5 413.5 c 128,-1,45
 638 402 638 402 661.5 379 c 128,-1,46
 685 356 685 356 700.5 322 c 128,-1,47
 716 288 716 288 716 243 c 0,48,49
 716 197 716 197 697.5 156 c 128,-1,50
 679 115 679 115 645 68 c 1,0,-1
366 304 m 1,51,-1
 366 310 l 1,52,53
 340 338 340 338 304 358 c 128,-1,54
 268 378 268 378 229 378 c 0,55,56
 186 378 186 378 151.5 352 c 128,-1,57
 117 326 117 326 117 277 c 0,58,59
 117 239 117 239 137 220.5 c 128,-1,60
 157 202 157 202 184 202 c 0,61,62
 208 202 208 202 238.5 217.5 c 128,-1,63
 269 233 269 233 302 256 c 128,-1,64
 335 279 335 279 366 304 c 1,51,-1
EndSplineSet
Substitution2: "'c2sc' Capitals to Small Capitals in Latin lookup 37 subtable" Aacute.sc
Ligature2: "'ccmp' Glyph Composition/Decomposition in Latin lookup 29 subtable" A acutecomb
EndChar

StartChar: Acircumflex
Encoding: 194 194 31
Width: 735
GlyphClass: 2
Flags: W
AnchorPoint: "Anchor-22" 630 0 basechar 0
AnchorPoint: "Anchor-20" 661 20 basechar 0
AnchorPoint: "Anchor-11" 437 80 basechar 0
AnchorPoint: "Anchor-10" 735 0 basechar 0
AnchorPoint: "Anchor-9" 735 0 basechar 0
AnchorPoint: "Anchor-8" 735 0 basechar 0
AnchorPoint: "Anchor-7" 735 0 basechar 0
AnchorPoint: "Anchor-5" 735 0 basechar 0
AnchorPoint: "Anchor-4" 735 0 basechar 0
AnchorPoint: "Anchor-3" 735 0 basechar 0
AnchorPoint: "Anchor-2" 565 0 basechar 0
AnchorPoint: "Anchor-1" 735 0 basechar 0
AnchorPoint: "Anchor-0" 565 0 basechar 0
LayerCount: 2
Fore
SplineSet
325 85 m 0,0,1
 274 85 274 85 230.5 110.5 c 128,-1,2
 187 136 187 136 150 179.5 c 128,-1,3
 113 223 113 223 81.5 278 c 128,-1,4
 50 333 50 333 22 393 c 1,5,-1
 63 411 l 1,6,7
 115 302 115 302 173 234 c 128,-1,8
 231 166 231 166 298 166 c 0,9,10
 339 166 339 166 362 189.5 c 128,-1,11
 385 213 385 213 385 246 c 0,12,13
 385 278 385 278 360.5 308.5 c 128,-1,14
 336 339 336 339 287 361 c 1,15,-1
 260 419 l 1,16,-1
 260 430 l 1,17,-1
 561 430 l 1,18,-1
 562 545 l 1,19,-1
 6 545 l 1,20,-1
 -28 610 l 1,21,-1
 -28 620 l 1,22,-1
 729 620 l 1,23,-1
 763 555 l 1,24,-1
 763 545 l 1,25,-1
 646 545 l 1,26,-1
 648 -10 l 1,27,-1
 638 -10 l 1,28,-1
 558 42 l 1,29,-1
 560 355 l 1,30,-1
 383 355 l 1,31,32
 423 314 423 314 443.5 280 c 128,-1,33
 464 246 464 246 464 208 c 0,34,35
 464 169 464 169 444.5 141.5 c 128,-1,36
 425 114 425 114 393.5 99.5 c 128,-1,37
 362 85 362 85 325 85 c 0,0,1
EndSplineSet
Substitution2: "'c2sc' Capitals to Small Capitals in Latin lookup 37 subtable" Acircumflex.sc
Ligature2: "'ccmp' Glyph Composition/Decomposition in Latin lookup 29 subtable" A circumflexcomb
EndChar

StartChar: Atilde
Encoding: 195 195 32
Width: 539
GlyphClass: 2
Flags: W
AnchorPoint: "Anchor-23" 555 0 basechar 0
AnchorPoint: "Anchor-22" 520 0 basechar 0
AnchorPoint: "Anchor-21" 549 0 basechar 0
AnchorPoint: "Anchor-20" 491 60 basechar 0
AnchorPoint: "Anchor-11" 450 40 basechar 0
AnchorPoint: "Anchor-10" 477 0 basechar 0
AnchorPoint: "Anchor-9" 477 0 basechar 0
AnchorPoint: "Anchor-8" 537 0 basechar 0
AnchorPoint: "Anchor-7" 502 0 basechar 0
AnchorPoint: "Anchor-6" 556 0 basechar 0
AnchorPoint: "Anchor-5" 497 0 basechar 0
AnchorPoint: "Anchor-4" 527 0 basechar 0
AnchorPoint: "Anchor-3" 499 0 basechar 0
AnchorPoint: "Anchor-2" 414 0 basechar 0
AnchorPoint: "Anchor-1" 499 0 basechar 0
AnchorPoint: "Anchor-0" 499 0 basechar 0
LayerCount: 2
Fore
SplineSet
567 545 m 1,0,-1
 411 545 l 1,1,2
 411 517 411 517 411.5 483.5 c 128,-1,3
 412 450 412 450 412 419.5 c 128,-1,4
 412 389 412 389 412 368 c 1,5,-1
 400 360 l 1,6,-1
 272 360 l 2,7,8
 208 360 208 360 168.5 330 c 128,-1,9
 129 300 129 300 129 239 c 0,10,11
 129 196 129 196 149.5 167.5 c 128,-1,12
 170 139 170 139 204 125 c 128,-1,13
 238 111 238 111 279 111 c 0,14,15
 333 111 333 111 376.5 132 c 128,-1,16
 420 153 420 153 454 187 c 1,17,-1
 514 126 l 1,18,19
 475 84 475 84 427 60.5 c 128,-1,20
 379 37 379 37 325 37 c 0,21,22
 276 37 276 37 228 56 c 128,-1,23
 180 75 180 75 140.5 109.5 c 128,-1,24
 101 144 101 144 77.5 189.5 c 128,-1,25
 54 235 54 235 54 289 c 0,26,27
 54 346 54 346 81 377.5 c 128,-1,28
 108 409 108 409 156.5 422 c 128,-1,29
 205 435 205 435 269 435 c 2,30,-1
 329 435 l 1,31,-1
 329 545 l 1,32,-1
 6 545 l 1,33,-1
 -28 610 l 1,34,-1
 -28 620 l 1,35,-1
 533 620 l 1,36,-1
 567 555 l 1,37,-1
 567 545 l 1,0,-1
EndSplineSet
Substitution2: "'c2sc' Capitals to Small Capitals in Latin lookup 37 subtable" Atilde.sc
Ligature2: "'ccmp' Glyph Composition/Decomposition in Latin lookup 29 subtable" A tildecomb
EndChar

StartChar: Adieresis
Encoding: 196 196 33
Width: 577
GlyphClass: 2
Flags: W
AnchorPoint: "Anchor-22" 520 0 basechar 0
AnchorPoint: "Anchor-21" 549 0 basechar 0
AnchorPoint: "Anchor-20" 540 20 basechar 0
AnchorPoint: "Anchor-11" 477 10 basechar 0
AnchorPoint: "Anchor-10" 502 0 basechar 0
AnchorPoint: "Anchor-9" 502 0 basechar 0
AnchorPoint: "Anchor-8" 562 0 basechar 0
AnchorPoint: "Anchor-7" 562 0 basechar 0
AnchorPoint: "Anchor-6" 582 -7 basechar 0
AnchorPoint: "Anchor-5" 529 0 basechar 0
AnchorPoint: "Anchor-4" 562 0 basechar 0
AnchorPoint: "Anchor-3" 560 0 basechar 0
AnchorPoint: "Anchor-2" 450 0 basechar 0
AnchorPoint: "Anchor-1" 560 0 basechar 0
AnchorPoint: "Anchor-0" 560 0 basechar 0
LayerCount: 2
Fore
SplineSet
355 7 m 0,0,1
 258 7 258 7 171 72 c 128,-1,2
 84 137 84 137 26 259 c 1,3,-1
 64 281 l 1,4,5
 91 228 91 228 127.5 182.5 c 128,-1,6
 164 137 164 137 214 109.5 c 128,-1,7
 264 82 264 82 331 82 c 0,8,9
 387 82 387 82 416.5 99.5 c 128,-1,10
 446 117 446 117 457 141.5 c 128,-1,11
 468 166 468 166 468 187 c 0,12,13
 468 204 468 204 458 214.5 c 128,-1,14
 448 225 448 225 430 225 c 0,15,16
 411 225 411 225 379.5 219 c 128,-1,17
 348 213 348 213 318 207 c 128,-1,18
 288 201 288 201 271 201 c 0,19,20
 246 201 246 201 218.5 216.5 c 128,-1,21
 191 232 191 232 167 257.5 c 128,-1,22
 143 283 143 283 128 314.5 c 128,-1,23
 113 346 113 346 113 378 c 0,24,25
 113 415 113 415 142 437.5 c 128,-1,26
 171 460 171 460 232 460 c 2,27,-1
 390 460 l 1,28,-1
 390 545 l 1,29,-1
 6 545 l 1,30,-1
 -28 610 l 1,31,-1
 -28 620 l 1,32,-1
 571 620 l 1,33,-1
 605 555 l 1,34,-1
 605 545 l 1,35,-1
 471 545 l 1,36,37
 472 508 472 508 472.5 467 c 128,-1,38
 473 426 473 426 473 393 c 1,39,-1
 461 385 l 1,40,-1
 250 385 l 2,41,42
 185 385 185 385 185 339 c 0,43,44
 185 308 185 308 202.5 290.5 c 128,-1,45
 220 273 220 273 238 273 c 0,46,47
 247 273 247 273 268 277 c 128,-1,48
 289 281 289 281 315 285.5 c 128,-1,49
 341 290 341 290 365 294 c 128,-1,50
 389 298 389 298 404 298 c 0,51,52
 432 298 432 298 462.5 275 c 128,-1,53
 493 252 493 252 514.5 215 c 128,-1,54
 536 178 536 178 536 137 c 0,55,56
 536 111 536 111 518 80.5 c 128,-1,57
 500 50 500 50 460 28.5 c 128,-1,58
 420 7 420 7 355 7 c 0,0,1
EndSplineSet
Substitution2: "'c2sc' Capitals to Small Capitals in Latin lookup 37 subtable" Adieresis.sc
Ligature2: "'ccmp' Glyph Composition/Decomposition in Latin lookup 29 subtable" A dieresiscomb
EndChar

StartChar: Aring
Encoding: 197 197 35
Width: 573
GlyphClass: 2
Flags: W
AnchorPoint: "Anchor-22" 520 0 basechar 0
AnchorPoint: "Anchor-21" 549 0 basechar 0
AnchorPoint: "Anchor-20" 539 20 basechar 0
AnchorPoint: "Anchor-11" 216 90 basechar 0
AnchorPoint: "Anchor-10" 573 0 basechar 0
AnchorPoint: "Anchor-9" 573 0 basechar 0
AnchorPoint: "Anchor-8" 573 -10 basechar 0
AnchorPoint: "Anchor-7" 573 0 basechar 0
AnchorPoint: "Anchor-5" 573 0 basechar 0
AnchorPoint: "Anchor-4" 573 0 basechar 0
AnchorPoint: "Anchor-3" 573 0 basechar 0
AnchorPoint: "Anchor-2" 423 0 basechar 0
AnchorPoint: "Anchor-1" 573 0 basechar 0
AnchorPoint: "Anchor-0" 453 0 basechar 0
LayerCount: 2
Fore
SplineSet
223 -10 m 1,0,-1
 213 -10 l 1,1,2
 142 82 142 82 95 156 c 128,-1,3
 48 230 48 230 48 294 c 0,4,5
 48 368 48 368 105.5 401.5 c 128,-1,6
 163 435 163 435 258 435 c 2,7,-1
 399 435 l 1,8,-1
 400 545 l 1,9,-1
 6 545 l 1,10,-1
 -28 610 l 1,11,-1
 -28 620 l 1,12,-1
 567 620 l 1,13,-1
 601 555 l 1,14,-1
 601 545 l 1,15,-1
 484 545 l 1,16,-1
 486 -10 l 1,17,-1
 476 -10 l 1,18,-1
 396 42 l 1,19,-1
 398 360 l 1,20,-1
 269 360 l 2,21,22
 196 360 196 360 160.5 327.5 c 128,-1,23
 125 295 125 295 125 248 c 0,24,25
 125 226 125 226 131.5 206 c 128,-1,26
 138 186 138 186 153.5 162 c 128,-1,27
 169 138 169 138 196.5 105.5 c 128,-1,28
 224 73 224 73 266 25 c 1,29,-1
 223 -10 l 1,0,-1
EndSplineSet
Substitution2: "'c2sc' Capitals to Small Capitals in Latin lookup 37 subtable" Aring.sc
Ligature2: "'ccmp' Glyph Composition/Decomposition in Latin lookup 29 subtable" A ringcomb
EndChar

StartChar: AE
Encoding: 198 198 36
Width: 527
GlyphClass: 2
Flags: W
AnchorPoint: "Anchor-23" 555 0 basechar 0
AnchorPoint: "Anchor-22" 520 0 basechar 0
AnchorPoint: "Anchor-21" 549 0 basechar 0
AnchorPoint: "Anchor-20" 492 60 basechar 0
AnchorPoint: "Anchor-11" 269 107 basechar 0
AnchorPoint: "Anchor-10" 560 11 basechar 0
AnchorPoint: "Anchor-9" 467 28 basechar 0
AnchorPoint: "Anchor-8" 512 -25 basechar 0
AnchorPoint: "Anchor-7" 540 20 basechar 0
AnchorPoint: "Anchor-5" 512 -60 basechar 0
AnchorPoint: "Anchor-4" 502 0 basechar 0
AnchorPoint: "Anchor-3" 510 0 basechar 0
AnchorPoint: "Anchor-2" 410 0 basechar 0
AnchorPoint: "Anchor-1" 510 0 basechar 0
AnchorPoint: "Anchor-0" 510 0 basechar 0
LayerCount: 2
Fore
SplineSet
487 -98 m 1,0,-1
 478 -98 l 1,1,-1
 386 63 l 1,2,3
 358 55 358 55 323 55 c 0,4,5
 271 55 271 55 223 76.5 c 128,-1,6
 175 98 175 98 137 135 c 128,-1,7
 99 172 99 172 77 218.5 c 128,-1,8
 55 265 55 265 55 316 c 0,9,10
 55 368 55 368 81.5 397 c 128,-1,11
 108 426 108 426 155 437.5 c 128,-1,12
 202 449 202 449 265 449 c 2,13,-1
 340 449 l 1,14,-1
 340 545 l 1,15,-1
 6 545 l 1,16,-1
 -28 610 l 1,17,-1
 -28 620 l 1,18,-1
 521 620 l 1,19,-1
 555 555 l 1,20,-1
 555 545 l 1,21,-1
 422 545 l 1,22,23
 422 503 422 503 422.5 458.5 c 128,-1,24
 423 414 423 414 423 382 c 1,25,-1
 411 374 l 1,26,-1
 270 374 l 2,27,28
 206 374 206 374 168 349 c 128,-1,29
 130 324 130 324 130 273 c 0,30,31
 130 226 130 226 150.5 192.5 c 128,-1,32
 171 159 171 159 203 141.5 c 128,-1,33
 235 124 235 124 270 124 c 0,34,35
 288 124 288 124 308.5 127.5 c 128,-1,36
 329 131 329 131 344 140 c 1,37,38
 332 164 332 164 324.5 184 c 128,-1,39
 317 204 317 204 317 218 c 0,40,41
 317 235 317 235 326.5 242.5 c 128,-1,42
 336 250 336 250 352 250 c 0,43,44
 375 250 375 250 403.5 237 c 128,-1,45
 432 224 432 224 453.5 203.5 c 128,-1,46
 475 183 475 183 475 159 c 0,47,48
 475 148 475 148 466 126 c 128,-1,49
 457 104 457 104 431 85 c 1,50,-1
 539 -65 l 1,51,-1
 487 -98 l 1,0,-1
EndSplineSet
Substitution2: "'c2sc' Capitals to Small Capitals in Latin lookup 37 subtable" AE.sc
EndChar

StartChar: Ccedilla
Encoding: 199 199 38
Width: 557
GlyphClass: 2
Flags: W
AnchorPoint: "Anchor-22" 520 0 basechar 0
AnchorPoint: "Anchor-21" 549 0 basechar 0
AnchorPoint: "Anchor-20" 539 20 basechar 0
AnchorPoint: "Anchor-11" 343 150 basechar 0
AnchorPoint: "Anchor-10" 557 0 basechar 0
AnchorPoint: "Anchor-9" 557 0 basechar 0
AnchorPoint: "Anchor-8" 557 0 basechar 0
AnchorPoint: "Anchor-7" 557 0 basechar 0
AnchorPoint: "Anchor-5" 557 0 basechar 0
AnchorPoint: "Anchor-4" 557 0 basechar 0
AnchorPoint: "Anchor-3" 557 0 basechar 0
AnchorPoint: "Anchor-2" 417 0 basechar 0
AnchorPoint: "Anchor-1" 557 0 basechar 0
AnchorPoint: "Anchor-0" 407 0 basechar 0
LayerCount: 2
Fore
SplineSet
278 168 m 0,0,1
 239 168 239 168 203 186 c 128,-1,2
 167 204 167 204 138 232 c 128,-1,3
 109 260 109 260 92 291 c 128,-1,4
 75 322 75 322 74 347 c 0,5,6
 73 361 73 361 73 373 c 128,-1,7
 73 385 73 385 73 396 c 0,8,9
 73 428 73 428 73.5 467 c 128,-1,10
 74 506 74 506 74 545 c 1,11,-1
 6 545 l 1,12,-1
 -28 610 l 1,13,-1
 -28 620 l 1,14,-1
 551 620 l 1,15,-1
 585 555 l 1,16,-1
 585 545 l 1,17,-1
 468 545 l 1,18,-1
 470 -10 l 1,19,-1
 460 -10 l 1,20,-1
 380 42 l 1,21,-1
 381 200 l 1,22,23
 328 168 328 168 278 168 c 0,0,1
384 545 m 1,24,-1
 159 545 l 1,25,-1
 161 325 l 2,26,27
 161 277 161 277 183 255 c 128,-1,28
 205 233 205 233 230 233 c 0,29,30
 260 233 260 233 297.5 252 c 128,-1,31
 335 271 335 271 382 304 c 1,32,-1
 384 545 l 1,24,-1
EndSplineSet
Substitution2: "'c2sc' Capitals to Small Capitals in Latin lookup 37 subtable" Ccedilla.sc
EndChar

StartChar: Egrave
Encoding: 200 200 39
Width: 602
GlyphClass: 2
Flags: W
AnchorPoint: "Anchor-22" 520 0 basechar 0
AnchorPoint: "Anchor-20" 539 20 basechar 0
AnchorPoint: "Anchor-11" 352 125 basechar 0
AnchorPoint: "Anchor-10" 602 0 basechar 0
AnchorPoint: "Anchor-9" 602 0 basechar 0
AnchorPoint: "Anchor-8" 602 0 basechar 0
AnchorPoint: "Anchor-7" 602 0 basechar 0
AnchorPoint: "Anchor-5" 602 0 basechar 0
AnchorPoint: "Anchor-4" 602 0 basechar 0
AnchorPoint: "Anchor-3" 602 0 basechar 0
AnchorPoint: "Anchor-2" 422 0 basechar 0
AnchorPoint: "Anchor-1" 602 0 basechar 0
AnchorPoint: "Anchor-0" 412 0 basechar 0
LayerCount: 2
Fore
SplineSet
256 128 m 0,0,1
 202 128 202 128 161.5 147 c 128,-1,2
 121 166 121 166 94 195.5 c 128,-1,3
 67 225 67 225 54 258.5 c 128,-1,4
 41 292 41 292 41 321 c 0,5,6
 41 365 41 365 67 397.5 c 128,-1,7
 93 430 93 430 137.5 448.5 c 128,-1,8
 182 467 182 467 235 467 c 0,9,10
 299 467 299 467 349.5 438 c 128,-1,11
 400 409 400 409 425 357 c 1,12,-1
 428 357 l 1,13,-1
 429 545 l 1,14,-1
 6 545 l 1,15,-1
 -28 610 l 1,16,-1
 -28 620 l 1,17,-1
 596 620 l 1,18,-1
 630 555 l 1,19,-1
 630 545 l 1,20,-1
 513 545 l 1,21,-1
 515 -10 l 1,22,-1
 505 -10 l 1,23,-1
 425 42 l 1,24,-1
 426 202 l 1,25,-1
 424 202 l 1,26,27
 399 164 399 164 351 146 c 128,-1,28
 303 128 303 128 256 128 c 0,0,1
226 192 m 0,29,30
 262 192 262 192 294 204 c 1,31,-1
 164 367 l 1,32,33
 141 352 141 352 126.5 331 c 128,-1,34
 112 310 112 310 112 282 c 0,35,36
 112 242 112 242 145 217 c 128,-1,37
 178 192 178 192 226 192 c 0,29,30
205 385 m 1,38,-1
 333 224 l 1,39,40
 356 241 356 241 370 264 c 128,-1,41
 384 287 384 287 384 315 c 0,42,43
 384 359 384 359 349 376.5 c 128,-1,44
 314 394 314 394 268 394 c 0,45,46
 235 394 235 394 205 385 c 1,38,-1
EndSplineSet
Substitution2: "'c2sc' Capitals to Small Capitals in Latin lookup 37 subtable" Egrave.sc
Ligature2: "'ccmp' Glyph Composition/Decomposition in Latin lookup 29 subtable" E gravecomb
EndChar

StartChar: Eacute
Encoding: 201 201 40
Width: 679
GlyphClass: 2
Flags: W
AnchorPoint: "Anchor-22" 630 0 basechar 0
AnchorPoint: "Anchor-21" 678 0 basechar 0
AnchorPoint: "Anchor-20" 660 21 basechar 0
AnchorPoint: "Anchor-11" 280 90 basechar 0
AnchorPoint: "Anchor-10" 679 0 basechar 0
AnchorPoint: "Anchor-9" 679 0 basechar 0
AnchorPoint: "Anchor-8" 679 -10 basechar 0
AnchorPoint: "Anchor-7" 679 0 basechar 0
AnchorPoint: "Anchor-5" 679 0 basechar 0
AnchorPoint: "Anchor-4" 679 0 basechar 0
AnchorPoint: "Anchor-3" 679 0 basechar 0
AnchorPoint: "Anchor-2" 519 0 basechar 0
AnchorPoint: "Anchor-1" 679 0 basechar 0
AnchorPoint: "Anchor-0" 529 0 basechar 0
LayerCount: 2
Fore
SplineSet
316 -20 m 1,0,-1
 306 -20 l 1,1,-1
 129 196 l 2,2,3
 80 257 80 257 63 288.5 c 128,-1,4
 46 320 46 320 46 342 c 0,5,6
 46 374 46 374 97 374 c 0,7,8
 112 374 112 374 138.5 372 c 128,-1,9
 165 370 165 370 183 368 c 1,10,11
 188 393 188 393 189.5 425.5 c 128,-1,12
 191 458 191 458 191 482 c 0,13,14
 191 504 191 504 190.5 518.5 c 128,-1,15
 190 533 190 533 189 545 c 1,16,-1
 6 545 l 1,17,-1
 -28 610 l 1,18,-1
 -28 620 l 1,19,-1
 673 620 l 1,20,-1
 707 555 l 1,21,-1
 707 545 l 1,22,-1
 590 545 l 1,23,-1
 592 -10 l 1,24,-1
 582 -10 l 1,25,-1
 502 42 l 1,26,-1
 503 239 l 1,27,28
 462 224 462 224 417 224 c 0,29,30
 389 224 389 224 345 235.5 c 128,-1,31
 301 247 301 247 244 293 c 1,32,33
 220 249 220 249 159 237 c 1,34,-1
 367 22 l 1,35,-1
 316 -20 l 1,0,-1
260 333 m 1,36,37
 272 326 272 326 294.5 318.5 c 128,-1,38
 317 311 317 311 342.5 306 c 128,-1,39
 368 301 368 301 391 301 c 0,40,41
 426 301 426 301 457 312.5 c 128,-1,42
 488 324 488 324 504 338 c 1,43,-1
 506 545 l 1,44,-1
 270 545 l 1,45,46
 272 526 272 526 272.5 503 c 128,-1,47
 273 480 273 480 273 471 c 0,48,49
 273 427 273 427 269.5 391 c 128,-1,50
 266 355 266 355 260 333 c 1,36,37
EndSplineSet
Substitution2: "'c2sc' Capitals to Small Capitals in Latin lookup 37 subtable" Eacute.sc
Ligature2: "'ccmp' Glyph Composition/Decomposition in Latin lookup 29 subtable" E acutecomb
EndChar

StartChar: Ecircumflex
Encoding: 202 202 41
Width: 582
GlyphClass: 2
Flags: W
AnchorPoint: "Anchor-22" 520 0 basechar 0
AnchorPoint: "Anchor-21" 549 0 basechar 0
AnchorPoint: "Anchor-20" 539 20 basechar 0
AnchorPoint: "Anchor-11" 393 139 basechar 0
AnchorPoint: "Anchor-10" 582 0 basechar 0
AnchorPoint: "Anchor-9" 582 0 basechar 0
AnchorPoint: "Anchor-8" 582 0 basechar 0
AnchorPoint: "Anchor-7" 582 0 basechar 0
AnchorPoint: "Anchor-5" 582 0 basechar 0
AnchorPoint: "Anchor-4" 582 0 basechar 0
AnchorPoint: "Anchor-3" 582 0 basechar 0
AnchorPoint: "Anchor-2" 432 0 basechar 0
AnchorPoint: "Anchor-1" 582 0 basechar 0
AnchorPoint: "Anchor-0" 442 0 basechar 0
LayerCount: 2
Fore
SplineSet
289 136 m 0,0,1
 230 136 230 136 177.5 167.5 c 128,-1,2
 125 199 125 199 88.5 252 c 128,-1,3
 52 305 52 305 40 371 c 1,4,5
 118 390 118 390 154.5 412.5 c 128,-1,6
 191 435 191 435 191 469 c 0,7,8
 191 482 191 482 184.5 502 c 128,-1,9
 178 522 178 522 162 545 c 1,10,-1
 6 545 l 1,11,-1
 -28 610 l 1,12,-1
 -28 620 l 1,13,-1
 576 620 l 1,14,-1
 610 555 l 1,15,-1
 610 545 l 1,16,-1
 493 545 l 1,17,-1
 495 -10 l 1,18,-1
 485 -10 l 1,19,-1
 405 42 l 1,20,-1
 406 172 l 1,21,22
 376 152 376 152 346 144 c 128,-1,23
 316 136 316 136 289 136 c 0,0,1
409 545 m 1,24,-1
 217 545 l 1,25,26
 263 475 263 475 263 426 c 0,27,28
 263 388 263 388 231.5 359 c 128,-1,29
 200 330 200 330 127 310 c 1,30,31
 128 280 128 280 144.5 254.5 c 128,-1,32
 161 229 161 229 188.5 214 c 128,-1,33
 216 199 216 199 250 199 c 256,34,35
 284 199 284 199 323 216 c 128,-1,36
 362 233 362 233 407 270 c 1,37,-1
 409 545 l 1,24,-1
EndSplineSet
Substitution2: "'c2sc' Capitals to Small Capitals in Latin lookup 37 subtable" Ecircumflex.sc
Ligature2: "'ccmp' Glyph Composition/Decomposition in Latin lookup 29 subtable" E circumflexcomb
EndChar

StartChar: Edieresis
Encoding: 203 203 42
Width: 394
GlyphClass: 2
Flags: W
AnchorPoint: "Anchor-23" 391 0 basechar 0
AnchorPoint: "Anchor-22" 377 0 basechar 0
AnchorPoint: "Anchor-21" 378 0 basechar 0
AnchorPoint: "Anchor-20" 352 60 basechar 0
AnchorPoint: "Anchor-11" 238 168 basechar 0
AnchorPoint: "Anchor-10" 363 -10 basechar 0
AnchorPoint: "Anchor-9" 363 -10 basechar 0
AnchorPoint: "Anchor-8" 473 -10 basechar 0
AnchorPoint: "Anchor-7" 443 -10 basechar 0
AnchorPoint: "Anchor-5" 363 -10 basechar 0
AnchorPoint: "Anchor-4" 434 0 basechar 0
AnchorPoint: "Anchor-3" 360 0 basechar 0
AnchorPoint: "Anchor-2" 360 0 basechar 0
AnchorPoint: "Anchor-1" 360 0 basechar 0
AnchorPoint: "Anchor-0" 360 0 basechar 0
LayerCount: 2
Fore
SplineSet
322 -20 m 1,0,-1
 312 -20 l 1,1,-1
 114 223 l 2,2,3
 77 268 77 268 61.5 296.5 c 128,-1,4
 46 325 46 325 46 342 c 0,5,6
 46 374 46 374 97 374 c 0,7,8
 112 374 112 374 138 372 c 128,-1,9
 164 370 164 370 182 368 c 1,10,11
 187 393 187 393 188.5 425.5 c 128,-1,12
 190 458 190 458 190 482 c 0,13,14
 190 503 190 503 189.5 518 c 128,-1,15
 189 533 189 533 188 545 c 1,16,-1
 6 545 l 1,17,-1
 -28 610 l 1,18,-1
 -28 620 l 1,19,-1
 388 620 l 1,20,-1
 422 555 l 1,21,-1
 422 545 l 1,22,-1
 271 545 l 1,23,24
 272 526 272 526 273 503 c 128,-1,25
 274 480 274 480 274 471 c 0,26,27
 274 389 274 389 262 341 c 128,-1,28
 250 293 250 293 225.5 269 c 128,-1,29
 201 245 201 245 165 237 c 1,30,-1
 373 22 l 1,31,-1
 322 -20 l 1,0,-1
EndSplineSet
Substitution2: "'c2sc' Capitals to Small Capitals in Latin lookup 37 subtable" Edieresis.sc
Ligature2: "'ccmp' Glyph Composition/Decomposition in Latin lookup 29 subtable" E dieresiscomb
EndChar

StartChar: Igrave
Encoding: 204 204 43
Width: 686
GlyphClass: 2
Flags: W
AnchorPoint: "Anchor-22" 630 0 basechar 0
AnchorPoint: "Anchor-21" 678 0 basechar 0
AnchorPoint: "Anchor-20" 665 18 basechar 0
AnchorPoint: "Anchor-11" 240 90 basechar 0
AnchorPoint: "Anchor-10" 686 0 basechar 0
AnchorPoint: "Anchor-9" 686 0 basechar 0
AnchorPoint: "Anchor-8" 686 0 basechar 0
AnchorPoint: "Anchor-7" 686 0 basechar 0
AnchorPoint: "Anchor-5" 686 0 basechar 0
AnchorPoint: "Anchor-4" 686 0 basechar 0
AnchorPoint: "Anchor-3" 686 0 basechar 0
AnchorPoint: "Anchor-2" 526 0 basechar 0
AnchorPoint: "Anchor-1" 686 0 basechar 0
AnchorPoint: "Anchor-0" 546 0 basechar 0
LayerCount: 2
Fore
SplineSet
264 -10 m 1,0,-1
 254 -10 l 1,1,2
 192 50 192 50 146 100 c 128,-1,3
 100 150 100 150 74.5 198 c 128,-1,4
 49 246 49 246 49 299 c 0,5,6
 49 341 49 341 65.5 375 c 128,-1,7
 82 409 82 409 113 429.5 c 128,-1,8
 144 450 144 450 187 450 c 0,9,10
 233 450 233 450 265.5 426 c 128,-1,11
 298 402 298 402 324 372 c 1,12,13
 347 400 347 400 376 419.5 c 128,-1,14
 405 439 405 439 439 439 c 0,15,16
 475 439 475 439 512 414 c 1,17,-1
 513 545 l 1,18,-1
 6 545 l 1,19,-1
 -28 610 l 1,20,-1
 -28 620 l 1,21,-1
 680 620 l 1,22,-1
 714 555 l 1,23,-1
 714 545 l 1,24,-1
 597 545 l 1,25,-1
 599 -10 l 1,26,-1
 589 -10 l 1,27,-1
 509 42 l 1,28,-1
 511 368 l 1,29,30
 504 370 504 370 496.5 372 c 128,-1,31
 489 374 489 374 481 374 c 0,32,33
 442 374 442 374 409.5 339.5 c 128,-1,34
 377 305 377 305 340 225 c 1,35,-1
 263 263 l 1,36,37
 270 281 270 281 280 301 c 128,-1,38
 290 321 290 321 302 340 c 1,39,40
 286 356 286 356 265.5 366 c 128,-1,41
 245 376 245 376 222 376 c 0,42,43
 182 376 182 376 155.5 347 c 128,-1,44
 129 318 129 318 129 265 c 0,45,46
 129 229 129 229 144.5 194.5 c 128,-1,47
 160 160 160 160 199 120 c 128,-1,48
 238 80 238 80 307 25 c 1,49,-1
 264 -10 l 1,0,-1
EndSplineSet
LCarets2: 1 0
Substitution2: "'c2sc' Capitals to Small Capitals in Latin lookup 37 subtable" Igrave.sc
Ligature2: "'ccmp' Glyph Composition/Decomposition in Latin lookup 29 subtable" I gravecomb
EndChar

StartChar: Iacute
Encoding: 205 205 44
Width: 597
GlyphClass: 2
Flags: W
AnchorPoint: "Anchor-22" 520 0 basechar 0
AnchorPoint: "Anchor-21" 549 0 basechar 0
AnchorPoint: "Anchor-20" 539 20 basechar 0
AnchorPoint: "Anchor-11" 357 130 basechar 0
AnchorPoint: "Anchor-10" 597 0 basechar 0
AnchorPoint: "Anchor-9" 597 0 basechar 0
AnchorPoint: "Anchor-8" 597 0 basechar 0
AnchorPoint: "Anchor-7" 597 0 basechar 0
AnchorPoint: "Anchor-5" 597 0 basechar 0
AnchorPoint: "Anchor-4" 597 0 basechar 0
AnchorPoint: "Anchor-3" 597 0 basechar 0
AnchorPoint: "Anchor-2" 427 0 basechar 0
AnchorPoint: "Anchor-1" 597 0 basechar 0
AnchorPoint: "Anchor-0" 437 0 basechar 0
LayerCount: 2
Fore
SplineSet
251 133 m 0,0,1
 199 133 199 133 160 151 c 128,-1,2
 121 169 121 169 94.5 198 c 128,-1,3
 68 227 68 227 54.5 260 c 128,-1,4
 41 293 41 293 41 322 c 0,5,6
 41 364 41 364 66.5 397 c 128,-1,7
 92 430 92 430 134 448.5 c 128,-1,8
 176 467 176 467 225 467 c 0,9,10
 285 467 285 467 335 439 c 128,-1,11
 385 411 385 411 422 368 c 1,12,-1
 424 545 l 1,13,-1
 6 545 l 1,14,-1
 -28 610 l 1,15,-1
 -28 620 l 1,16,-1
 591 620 l 1,17,-1
 625 555 l 1,18,-1
 625 545 l 1,19,-1
 508 545 l 1,20,-1
 510 -10 l 1,21,-1
 500 -10 l 1,22,-1
 420 42 l 1,23,-1
 421 201 l 1,24,25
 386 178 386 178 360 163 c 128,-1,26
 334 148 334 148 308.5 140.5 c 128,-1,27
 283 133 283 133 251 133 c 0,0,1
422 313 m 1,28,29
 390 344 390 344 342.5 366.5 c 128,-1,30
 295 389 295 389 247 389 c 0,31,32
 192 389 192 389 153 360.5 c 128,-1,33
 114 332 114 332 114 279 c 0,34,35
 114 239 114 239 142 218 c 128,-1,36
 170 197 170 197 208 197 c 0,37,38
 245 197 245 197 294 221 c 128,-1,39
 343 245 343 245 422 305 c 1,40,-1
 422 313 l 1,28,29
EndSplineSet
LCarets2: 1 0
Substitution2: "'c2sc' Capitals to Small Capitals in Latin lookup 37 subtable" Iacute.sc
Ligature2: "'ccmp' Glyph Composition/Decomposition in Latin lookup 29 subtable" I acutecomb
EndChar

StartChar: Icircumflex
Encoding: 206 206 45
Width: 612
GlyphClass: 2
Flags: W
AnchorPoint: "Anchor-23" 678 0 basechar 0
AnchorPoint: "Anchor-22" 630 0 basechar 0
AnchorPoint: "Anchor-21" 678 0 basechar 0
AnchorPoint: "Anchor-20" 602 60 basechar 0
AnchorPoint: "Anchor-11" 429 156 basechar 0
AnchorPoint: "Anchor-10" 612 0 basechar 0
AnchorPoint: "Anchor-9" 612 0 basechar 0
AnchorPoint: "Anchor-8" 612 0 basechar 0
AnchorPoint: "Anchor-7" 612 0 basechar 0
AnchorPoint: "Anchor-5" 612 0 basechar 0
AnchorPoint: "Anchor-4" 612 0 basechar 0
AnchorPoint: "Anchor-3" 612 0 basechar 0
AnchorPoint: "Anchor-2" 472 0 basechar 0
AnchorPoint: "Anchor-1" 612 0 basechar 0
AnchorPoint: "Anchor-0" 462 0 basechar 0
LayerCount: 2
Fore
SplineSet
78 310 m 2,0,-1
 132 310 l 1,1,-1
 133 545 l 1,2,-1
 6 545 l 1,3,-1
 -28 610 l 1,4,-1
 -28 620 l 1,5,-1
 606 620 l 1,6,-1
 640 555 l 1,7,-1
 640 545 l 1,8,-1
 523 545 l 1,9,-1
 525 -10 l 1,10,-1
 515 -10 l 1,11,-1
 435 42 l 1,12,-1
 436 235 l 1,13,-1
 217 235 l 1,14,-1
 217 163 l 2,15,16
 217 138 217 138 194 138 c 0,17,18
 179 138 179 138 155.5 153.5 c 128,-1,19
 132 169 132 169 108.5 193 c 128,-1,20
 85 217 85 217 69 242.5 c 128,-1,21
 53 268 53 268 53 287 c 0,22,23
 53 296 53 296 59 303 c 128,-1,24
 65 310 65 310 78 310 c 2,0,-1
439 545 m 1,25,-1
 215 545 l 1,26,-1
 216 310 l 1,27,-1
 437 310 l 1,28,-1
 439 545 l 1,25,-1
EndSplineSet
LCarets2: 1 0
Substitution2: "'c2sc' Capitals to Small Capitals in Latin lookup 37 subtable" Icircumflex.sc
Ligature2: "'ccmp' Glyph Composition/Decomposition in Latin lookup 29 subtable" I circumflexcomb
EndChar

StartChar: Idieresis
Encoding: 207 207 46
Width: 570
GlyphClass: 2
Flags: W
AnchorPoint: "Anchor-22" 520 0 basechar 0
AnchorPoint: "Anchor-21" 549 0 basechar 0
AnchorPoint: "Anchor-20" 539 20 basechar 0
AnchorPoint: "Anchor-11" 385 168 basechar 0
AnchorPoint: "Anchor-10" 570 0 basechar 0
AnchorPoint: "Anchor-9" 570 0 basechar 0
AnchorPoint: "Anchor-8" 570 0 basechar 0
AnchorPoint: "Anchor-7" 570 0 basechar 0
AnchorPoint: "Anchor-5" 570 0 basechar 0
AnchorPoint: "Anchor-4" 570 0 basechar 0
AnchorPoint: "Anchor-3" 570 0 basechar 0
AnchorPoint: "Anchor-2" 420 0 basechar 0
AnchorPoint: "Anchor-1" 570 0 basechar 0
AnchorPoint: "Anchor-0" 450 0 basechar 0
LayerCount: 2
Fore
SplineSet
598 545 m 1,0,-1
 481 545 l 1,1,-1
 483 -10 l 1,2,-1
 473 -10 l 1,3,-1
 393 42 l 1,4,-1
 395 293 l 1,5,-1
 219 293 l 1,6,7
 219 235 219 235 213 212 c 128,-1,8
 207 189 207 189 184 189 c 0,9,10
 163 189 163 189 139 202 c 128,-1,11
 115 215 115 215 94.5 236 c 128,-1,12
 74 257 74 257 61 282 c 128,-1,13
 48 307 48 307 48 330 c 0,14,15
 48 358 48 358 70.5 364.5 c 128,-1,16
 93 371 93 371 132 371 c 0,17,18
 150 371 150 371 191 370.5 c 128,-1,19
 232 370 232 370 285.5 368.5 c 128,-1,20
 339 367 339 367 395 366 c 1,21,-1
 397 545 l 1,22,-1
 6 545 l 1,23,-1
 -28 610 l 1,24,-1
 -28 620 l 1,25,-1
 564 620 l 1,26,-1
 598 555 l 1,27,-1
 598 545 l 1,0,-1
EndSplineSet
Substitution2: "'c2sc' Capitals to Small Capitals in Latin lookup 37 subtable" Idieresis.sc
Ligature2: "'ccmp' Glyph Composition/Decomposition in Latin lookup 29 subtable" I dieresiscomb
EndChar

StartChar: Ntilde
Encoding: 209 209 47
Width: 463
GlyphClass: 2
Flags: W
LayerCount: 2
Fore
SplineSet
50 449 m 256,0,1
 50 499 50 499 74.5 540 c 128,-1,2
 99 581 99 581 140 605.5 c 128,-1,3
 181 630 181 630 231 630 c 256,4,5
 281 630 281 630 322.5 605.5 c 128,-1,6
 364 581 364 581 388.5 540 c 128,-1,7
 413 499 413 499 413 449 c 0,8,9
 413 400 413 400 388 358.5 c 128,-1,10
 363 317 363 317 322 292 c 128,-1,11
 281 267 281 267 231 267 c 0,12,13
 182 267 182 267 140.5 291.5 c 128,-1,14
 99 316 99 316 74.5 357.5 c 128,-1,15
 50 399 50 399 50 449 c 256,0,1
106 449 m 256,16,17
 106 414 106 414 122.5 384 c 128,-1,18
 139 354 139 354 167.5 336.5 c 128,-1,19
 196 319 196 319 231 319 c 0,20,21
 267 319 267 319 295.5 336.5 c 128,-1,22
 324 354 324 354 340.5 383.5 c 128,-1,23
 357 413 357 413 357 449 c 256,24,25
 357 485 357 485 340.5 514.5 c 128,-1,26
 324 544 324 544 295.5 561 c 128,-1,27
 267 578 267 578 231 578 c 0,28,29
 196 578 196 578 167.5 560.5 c 128,-1,30
 139 543 139 543 122.5 513.5 c 128,-1,31
 106 484 106 484 106 449 c 256,16,17
EndSplineSet
Substitution2: "'c2sc' Capitals to Small Capitals in Latin lookup 37 subtable" Ntilde.sc
Ligature2: "'ccmp' Glyph Composition/Decomposition in Latin lookup 29 subtable" N tildecomb
EndChar

StartChar: Ograve
Encoding: 210 210 48
Width: 581
GlyphClass: 2
Flags: W
LayerCount: 2
Fore
SplineSet
529 261 m 1,0,-1
 318 261 l 1,1,-1
 318 110 l 1,2,3
 308 109 308 109 291 109 c 128,-1,4
 274 109 274 109 263 110 c 1,5,-1
 263 261 l 1,6,-1
 52 261 l 1,7,8
 48 288 48 288 52 316 c 1,9,-1
 263 316 l 1,10,-1
 263 477 l 1,11,12
 274 478 274 478 291 478 c 128,-1,13
 308 478 308 478 318 477 c 1,14,-1
 318 316 l 1,15,-1
 529 316 l 1,16,17
 531 288 531 288 529 261 c 1,0,-1
529 1 m 1,18,-1
 52 1 l 1,19,20
 48 28 48 28 52 56 c 1,21,-1
 529 56 l 1,22,23
 531 28 531 28 529 1 c 1,18,-1
EndSplineSet
Substitution2: "'c2sc' Capitals to Small Capitals in Latin lookup 37 subtable" Ograve.sc
Ligature2: "'ccmp' Glyph Composition/Decomposition in Latin lookup 29 subtable" O gravecomb
EndChar

StartChar: Oacute
Encoding: 211 211 49
Width: 477
GlyphClass: 2
Flags: W
LayerCount: 2
Fore
SplineSet
345 246 m 1,0,1
 324 266 324 266 299 295 c 128,-1,2
 274 324 274 324 250 355 c 128,-1,3
 226 386 226 386 209 412 c 1,4,5
 212 417 212 417 218 421.5 c 128,-1,6
 224 426 224 426 230 430 c 1,7,8
 274 387 274 387 328 343 c 128,-1,9
 382 299 382 299 436 264 c 0,10,11
 437 261 437 261 437 258 c 128,-1,12
 437 255 437 255 437 252 c 0,13,14
 437 240 437 240 434 228 c 1,15,16
 378 191 378 191 323 147 c 128,-1,17
 268 103 268 103 225 61 c 1,18,19
 218 65 218 65 212.5 69.5 c 128,-1,20
 207 74 207 74 204 80 c 1,21,22
 222 107 222 107 246.5 137.5 c 128,-1,23
 271 168 271 168 297.5 197 c 128,-1,24
 324 226 324 226 345 246 c 1,0,1
171 247 m 1,25,26
 151 267 151 267 127 294.5 c 128,-1,27
 103 322 103 322 80.5 351.5 c 128,-1,28
 58 381 58 381 42 407 c 1,29,30
 49 415 49 415 61 424 c 1,31,32
 105 383 105 383 154.5 341 c 128,-1,33
 204 299 204 299 256 264 c 0,34,35
 257 261 257 261 257 258 c 128,-1,36
 257 255 257 255 257 252 c 0,37,38
 257 241 257 241 254 229 c 1,39,40
 199 193 199 193 147.5 151.5 c 128,-1,41
 96 110 96 110 55 69 c 1,42,43
 49 73 49 73 43.5 77.5 c 128,-1,44
 38 82 38 82 35 86 c 1,45,46
 52 113 52 113 76 143 c 128,-1,47
 100 173 100 173 125 200.5 c 128,-1,48
 150 228 150 228 171 247 c 1,25,26
EndSplineSet
Substitution2: "'c2sc' Capitals to Small Capitals in Latin lookup 37 subtable" Oacute.sc
Ligature2: "'ccmp' Glyph Composition/Decomposition in Latin lookup 29 subtable" O acutecomb
EndChar

StartChar: Ocircumflex
Encoding: 212 212 50
Width: 581
GlyphClass: 2
Flags: W
LayerCount: 2
Fore
SplineSet
62 428 m 1,0,1
 69 436 69 436 81.5 448 c 128,-1,2
 94 460 94 460 101 467 c 1,3,-1
 290 278 l 1,4,-1
 480 467 l 1,5,6
 489 459 489 459 500 447.5 c 128,-1,7
 511 436 511 436 518 428 c 1,8,-1
 329 239 l 1,9,-1
 518 50 l 1,10,11
 511 42 511 42 499.5 30 c 128,-1,12
 488 18 488 18 480 11 c 1,13,-1
 290 200 l 1,14,-1
 101 11 l 1,15,16
 80 27 80 27 62 50 c 1,17,-1
 251 239 l 1,18,-1
 62 428 l 1,0,1
EndSplineSet
Substitution2: "'c2sc' Capitals to Small Capitals in Latin lookup 37 subtable" Ocircumflex.sc
Ligature2: "'ccmp' Glyph Composition/Decomposition in Latin lookup 29 subtable" O circumflexcomb
EndChar

StartChar: Oslash
Encoding: 216 216 53
Width: 676
GlyphClass: 2
Flags: W
AnchorPoint: "Anchor-23" 678 0 basechar 0
AnchorPoint: "Anchor-22" 630 0 basechar 0
AnchorPoint: "Anchor-21" 678 0 basechar 0
AnchorPoint: "Anchor-20" 655 24 basechar 0
AnchorPoint: "Anchor-11" 457 125 basechar 0
AnchorPoint: "Anchor-10" 676 0 basechar 0
AnchorPoint: "Anchor-9" 676 0 basechar 0
AnchorPoint: "Anchor-8" 676 0 basechar 0
AnchorPoint: "Anchor-7" 676 0 basechar 0
AnchorPoint: "Anchor-5" 676 0 basechar 0
AnchorPoint: "Anchor-4" 676 0 basechar 0
AnchorPoint: "Anchor-3" 676 0 basechar 0
AnchorPoint: "Anchor-2" 526 0 basechar 0
AnchorPoint: "Anchor-1" 676 0 basechar 0
AnchorPoint: "Anchor-0" 536 0 basechar 0
LayerCount: 2
Fore
SplineSet
361 128 m 0,0,1
 310 128 310 128 271 145 c 128,-1,2
 232 162 232 162 204.5 189.5 c 128,-1,3
 177 217 177 217 163 249 c 128,-1,4
 149 281 149 281 149 310 c 0,5,6
 149 323 149 323 153 338.5 c 128,-1,7
 157 354 157 354 167 370 c 1,8,-1
 72 370 l 1,9,-1
 37 436 l 1,10,-1
 37 446 l 1,11,-1
 411 446 l 1,12,-1
 444 382 l 1,13,-1
 444 372 l 1,14,15
 428 373 428 373 420.5 373 c 128,-1,16
 413 373 413 373 402 373 c 0,17,18
 358 373 358 373 316.5 367.5 c 128,-1,19
 275 362 275 362 248 341.5 c 128,-1,20
 221 321 221 321 221 277 c 0,21,22
 221 231 221 231 249.5 211.5 c 128,-1,23
 278 192 278 192 314 192 c 0,24,25
 343 192 343 192 387.5 209 c 128,-1,26
 432 226 432 226 501 283 c 1,27,-1
 503 545 l 1,28,-1
 6 545 l 1,29,-1
 -28 610 l 1,30,-1
 -28 620 l 1,31,-1
 670 620 l 1,32,-1
 704 555 l 1,33,-1
 704 545 l 1,34,-1
 587 545 l 1,35,-1
 589 -10 l 1,36,-1
 579 -10 l 1,37,-1
 499 42 l 1,38,-1
 500 180 l 1,39,40
 455 147 455 147 423 137.5 c 128,-1,41
 391 128 391 128 361 128 c 0,0,1
EndSplineSet
Substitution2: "'c2sc' Capitals to Small Capitals in Latin lookup 37 subtable" Oslash.sc
EndChar

StartChar: Ugrave
Encoding: 217 217 54
Width: 583
GlyphClass: 2
Flags: W
AnchorPoint: "Anchor-22" 520 0 basechar 0
AnchorPoint: "Anchor-21" 549 0 basechar 0
AnchorPoint: "Anchor-20" 539 20 basechar 0
AnchorPoint: "Anchor-11" 386 140 basechar 0
AnchorPoint: "Anchor-10" 583 0 basechar 0
AnchorPoint: "Anchor-9" 583 0 basechar 0
AnchorPoint: "Anchor-8" 583 0 basechar 0
AnchorPoint: "Anchor-7" 583 0 basechar 0
AnchorPoint: "Anchor-5" 583 0 basechar 0
AnchorPoint: "Anchor-4" 583 0 basechar 0
AnchorPoint: "Anchor-3" 583 0 basechar 0
AnchorPoint: "Anchor-2" 445 0 basechar 0
AnchorPoint: "Anchor-1" 583 0 basechar 0
AnchorPoint: "Anchor-0" 452 0 basechar 0
LayerCount: 2
Fore
SplineSet
611 545 m 1,0,-1
 494 545 l 1,1,-1
 496 -10 l 1,2,-1
 486 -10 l 1,3,-1
 407 41 l 1,4,-1
 411 545 l 1,5,-1
 225 545 l 1,6,-1
 227 195 l 2,7,8
 227 170 227 170 204 170 c 0,9,10
 188 170 188 170 162.5 186 c 128,-1,11
 137 202 137 202 112 226.5 c 128,-1,12
 87 251 87 251 70 277.5 c 128,-1,13
 53 304 53 304 53 324 c 0,14,15
 53 333 53 333 59 340 c 128,-1,16
 65 347 65 347 78 347 c 2,17,-1
 142 347 l 1,18,-1
 143 545 l 1,19,-1
 6 545 l 1,20,-1
 -28 610 l 1,21,-1
 -28 620 l 1,22,-1
 577 620 l 1,23,-1
 611 555 l 1,24,-1
 611 545 l 1,0,-1
EndSplineSet
Substitution2: "'c2sc' Capitals to Small Capitals in Latin lookup 37 subtable" Ugrave.sc
Ligature2: "'ccmp' Glyph Composition/Decomposition in Latin lookup 29 subtable" U gravecomb
EndChar

StartChar: Uacute
Encoding: 218 218 55
Width: 721
GlyphClass: 2
Flags: W
LayerCount: 2
Fore
SplineSet
458.35546875 222.375 m 5,0,1
 456.8359375 229.822265625 456.8359375 229.822265625 458.35546875 237.37890625 c 5,2,3
 476.8359375 238.822265625 476.8359375 238.822265625 485.403320312 240.524414062 c 4,4,5
 495.8359375 242.822265625 495.8359375 242.822265625 497.163085938 249.961914062 c 4,6,7
 499.8359375 271.822265625 499.8359375 271.822265625 500.103515625 273.194335938 c 6,8,-1
 500.103515625 308.698242188 l 6,9,10
 499.8359375 337.822265625 499.8359375 337.822265625 489.225585938 352.015625 c 4,11,12
 477.8359375 366.822265625 477.8359375 366.822265625 446.008789062 366.294921875 c 4,13,14
 428.8359375 365.822265625 428.8359375 365.822265625 413.080078125 361.211914062 c 4,15,16
 396.8359375 355.822265625 396.8359375 355.822265625 378.975585938 342.578125 c 5,17,-1
 378.975585938 278.034179688 l 6,18,19
 378.8359375 258.822265625 378.8359375 258.822265625 381.622070312 250.9296875 c 4,20,21
 383.8359375 242.822265625 383.8359375 242.822265625 392.793945312 240.524414062 c 4,22,23
 400.8359375 238.822265625 400.8359375 238.822265625 419.547851562 237.37890625 c 5,24,25
 422.8359375 229.822265625 422.8359375 229.822265625 419.547851562 222.375 c 5,26,27
 404.8359375 222.822265625 404.8359375 222.822265625 387.208007812 222.858398438 c 4,28,29
 369.8359375 223.822265625 369.8359375 223.822265625 347.8125 223.341796875 c 260,30,31
 325.8359375 223.822265625 325.8359375 223.822265625 309.00390625 222.858398438 c 4,32,33
 291.8359375 222.822265625 291.8359375 222.822265625 274.3125 222.375 c 5,34,35
 272.8359375 229.822265625 272.8359375 229.822265625 274.3125 237.37890625 c 5,36,37
 293.8359375 238.822265625 293.8359375 238.822265625 303.711914062 240.524414062 c 4,38,39
 312.8359375 242.822265625 312.8359375 242.822265625 316.059570312 249.961914062 c 4,40,41
 319 257.227539062 319 257.227539062 319 273.194335938 c 6,42,-1
 319 466.482421875 l 6,43,44
 318.8359375 467.822265625 318.8359375 467.822265625 318.412109375 488.98828125 c 4,45,46
 317.8359375 497.822265625 317.8359375 497.822265625 313.120117188 502.298828125 c 4,47,48
 308.8359375 507.822265625 308.8359375 507.822265625 299.595703125 509.799804688 c 4,49,50
 290.8359375 511.822265625 290.8359375 511.822265625 271.372070312 513.4296875 c 5,51,52
 269.8359375 519.822265625 269.8359375 519.822265625 271.372070312 526.498046875 c 5,53,54
 294.8359375 528.822265625 294.8359375 528.822265625 319 534 c 4,55,56
 342.8359375 538.822265625 342.8359375 538.822265625 370.15625 548.278320312 c 5,57,-1
 380.15234375 545.375 l 5,58,59
 379.8359375 522.822265625 379.8359375 522.822265625 379.26953125 521.416015625 c 4,60,61
 378.975585938 521.013671875 378.975585938 521.013671875 378.975585938 492.134765625 c 6,62,-1
 378.975585938 384.686523438 l 5,63,64
 405.8359375 404.822265625 405.8359375 404.822265625 431.013671875 413 c 4,65,66
 456.8359375 420.822265625 456.8359375 420.822265625 480.112304688 420.986328125 c 4,67,68
 518.8359375 420.822265625 518.8359375 420.822265625 539.5 402.110351562 c 4,69,70
 560.080078125 382.590820312 560.080078125 382.590820312 560.080078125 347.90234375 c 6,71,-1
 560.080078125 278.034179688 l 6,72,73
 559.8359375 256.822265625 559.8359375 256.822265625 562.725585938 250.9296875 c 4,74,75
 565.8359375 242.822265625 565.8359375 242.822265625 574.192382812 240.524414062 c 4,76,77
 582.8359375 238.822265625 582.8359375 238.822265625 602.416015625 237.37890625 c 5,78,79
 603.8359375 229.822265625 603.8359375 229.822265625 602.416015625 222.375 c 5,80,81
 584.8359375 222.822265625 584.8359375 222.822265625 568.018554688 222.858398438 c 4,82,83
 550.8359375 223.822265625 550.8359375 223.822265625 528.916015625 223.341796875 c 4,84,85
 506.8359375 223.822265625 506.8359375 223.822265625 490.990234375 222.858398438 c 4,86,87
 474.8359375 222.822265625 474.8359375 222.822265625 458.35546875 222.375 c 5,0,1
666 207 m 1,88,89
 654 119 654 119 648 28 c 1,90,91
 593 12 593 12 536 -1 c 128,-1,92
 479 -14 479 -14 414 -14 c 0,93,94
 303 -14 303 -14 221.5 30 c 128,-1,95
 140 74 140 74 95 153.5 c 128,-1,96
 50 233 50 233 50 341 c 0,97,98
 50 450 50 450 95 533.5 c 128,-1,99
 140 617 140 617 222 664 c 128,-1,100
 304 711 304 711 415 711 c 0,101,102
 456 711 456 711 487 706 c 128,-1,103
 518 701 518 701 562 691 c 0,104,105
 582 687 582 687 597 683 c 128,-1,106
 612 679 612 679 628 679 c 0,107,108
 633 679 633 679 639 679.5 c 128,-1,109
 645 680 645 680 649 681 c 1,110,111
 651 637 651 637 653 590 c 128,-1,112
 655 543 655 543 659 492 c 1,113,114
 639 489 639 489 625 490 c 1,115,116
 586 671 586 671 420 671 c 0,117,118
 353 671 353 671 306 644.5 c 128,-1,119
 259 618 259 618 230 572.5 c 128,-1,120
 201 527 201 527 188 470 c 128,-1,121
 175 413 175 413 175 351 c 0,122,123
 175 263 175 263 201 189 c 128,-1,124
 227 115 227 115 283 71 c 128,-1,125
 339 27 339 27 427 27 c 0,126,127
 510 27 510 27 559.5 71 c 128,-1,128
 609 115 609 115 631 208 c 1,129,130
 639 208 639 208 647.5 208 c 128,-1,131
 656 208 656 208 666 207 c 1,88,89
EndSplineSet
Substitution2: "'c2sc' Capitals to Small Capitals in Latin lookup 37 subtable" Uacute.sc
Ligature2: "'ccmp' Glyph Composition/Decomposition in Latin lookup 29 subtable" U acutecomb
EndChar

StartChar: Ucircumflex
Encoding: 219 219 56
Width: 721
GlyphClass: 2
Flags: W
LayerCount: 2
Fore
SplineSet
666 207 m 1,0,1
 654 119 654 119 648 28 c 1,2,3
 593 12 593 12 536 -1 c 128,-1,4
 479 -14 479 -14 414 -14 c 0,5,6
 303 -14 303 -14 221.5 30 c 128,-1,7
 140 74 140 74 95 153.5 c 128,-1,8
 50 233 50 233 50 341 c 0,9,10
 50 450 50 450 95 533.5 c 128,-1,11
 140 617 140 617 222 664 c 128,-1,12
 304 711 304 711 415 711 c 0,13,14
 456 711 456 711 487 706 c 128,-1,15
 518 701 518 701 562 691 c 0,16,17
 582 687 582 687 597 683 c 128,-1,18
 612 679 612 679 628 679 c 0,19,20
 633 679 633 679 639 679.5 c 128,-1,21
 645 680 645 680 649 681 c 1,22,23
 651 637 651 637 653 590 c 128,-1,24
 655 543 655 543 659 492 c 1,25,26
 639 489 639 489 625 490 c 1,27,28
 586 671 586 671 420 671 c 0,29,30
 353 671 353 671 306 644.5 c 128,-1,31
 259 618 259 618 230 572.5 c 128,-1,32
 201 527 201 527 188 470 c 128,-1,33
 175 413 175 413 175 351 c 0,34,35
 175 263 175 263 201 189 c 128,-1,36
 227 115 227 115 283 71 c 128,-1,37
 339 27 339 27 427 27 c 0,38,39
 510 27 510 27 559.5 71 c 128,-1,40
 609 115 609 115 631 208 c 1,41,42
 639 208 639 208 647.5 208 c 128,-1,43
 656 208 656 208 666 207 c 1,0,1
EndSplineSet
Substitution2: "'c2sc' Capitals to Small Capitals in Latin lookup 37 subtable" Ucircumflex.sc
Ligature2: "'ccmp' Glyph Composition/Decomposition in Latin lookup 29 subtable" U circumflexcomb
EndChar

StartChar: Udieresis
Encoding: 220 220 57
Width: 721
GlyphClass: 2
Flags: W
LayerCount: 2
Fore
SplineSet
438.9609375 91.484375 m 5,0,1
 437.97265625 102.428710938 437.97265625 102.428710938 438.9609375 112.688476562 c 5,2,3
 454.290039062 114.055664062 454.290039062 114.055664062 461.708007812 117.134765625 c 132,-1,4
 469.125976562 120.211914062 469.125976562 120.211914062 471.59765625 130.471679688 c 132,-1,5
 474.0703125 140.732421875 474.0703125 140.732421875 474.0703125 163.303710938 c 6,6,-1
 474.0703125 301.471679688 l 6,7,8
 474.0703125 342.51171875 474.0703125 342.51171875 464.921875 362.690429688 c 132,-1,9
 455.7734375 382.8671875 455.7734375 382.8671875 428.577148438 382.8671875 c 4,10,11
 414.235351562 382.8671875 414.235351562 382.8671875 400.884765625 375.686523438 c 132,-1,12
 387.533203125 368.50390625 387.533203125 368.50390625 372.203125 349.3515625 c 5,13,-1
 372.203125 170.14453125 l 6,14,15
 372.203125 143.467773438 372.203125 143.467773438 374.4296875 131.83984375 c 132,-1,16
 376.654296875 120.211914062 376.654296875 120.211914062 383.82421875 117.134765625 c 132,-1,17
 390.994140625 114.055664062 390.994140625 114.055664062 406.32421875 112.688476562 c 5,18,19
 408.796875 102.428710938 408.796875 102.428710938 406.32421875 91.484375 c 5,20,21
 393.9609375 91.484375 393.9609375 91.484375 379.126953125 92.16796875 c 132,-1,22
 364.291015625 92.8515625 364.291015625 92.8515625 345.995117188 92.8515625 c 260,23,24
 327.698242188 92.8515625 327.698242188 92.8515625 313.357421875 92.16796875 c 132,-1,25
 299.017578125 91.484375 299.017578125 91.484375 284.182617188 91.484375 c 5,26,27
 282.69921875 102.428710938 282.69921875 102.428710938 284.182617188 112.688476562 c 5,28,29
 300.995117188 114.055664062 300.995117188 114.055664062 308.907226562 117.134765625 c 132,-1,30
 316.819335938 120.211914062 316.819335938 120.211914062 319.291992188 130.471679688 c 132,-1,31
 321.764648438 140.732421875 321.764648438 140.732421875 321.764648438 163.303710938 c 6,32,-1
 321.764648438 492.9921875 l 6,33,34
 321.764648438 512.828125 321.764648438 512.828125 321.26953125 524.797851562 c 132,-1,35
 320.775390625 536.767578125 320.775390625 536.767578125 316.819335938 543.607421875 c 4,36,37
 312.86328125 551.1328125 312.86328125 551.1328125 305.446289062 554.209960938 c 132,-1,38
 298.028320312 557.288085938 298.028320312 557.288085938 281.7109375 559.33984375 c 5,39,40
 280.2265625 568.232421875 280.2265625 568.232421875 281.7109375 577.807617188 c 5,41,42
 301.489257812 581.228515625 301.489257812 581.228515625 321.764648438 588.41015625 c 132,-1,43
 342.0390625 595.591796875 342.0390625 595.591796875 364.78515625 608.587890625 c 5,44,-1
 373.192382812 604.484375 l 5,45,46
 372.697265625 589.436523438 372.697265625 589.436523438 372.450195312 570.626953125 c 132,-1,47
 372.203125 551.815429688 372.203125 551.815429688 372.203125 529.244140625 c 6,48,-1
 372.203125 377.396484375 l 5,49,50
 394.456054688 406.123046875 394.456054688 406.123046875 415.965820312 417.41015625 c 132,-1,51
 437.4765625 428.696289062 437.4765625 428.696289062 457.256835938 428.696289062 c 4,52,53
 489.89453125 428.696289062 489.89453125 428.696289062 507.202148438 402.01953125 c 132,-1,54
 524.509765625 375.34375 524.509765625 375.34375 524.509765625 325.412109375 c 6,55,-1
 524.509765625 170.14453125 l 6,56,57
 524.509765625 143.467773438 524.509765625 143.467773438 526.734375 131.83984375 c 132,-1,58
 528.9609375 120.211914062 528.9609375 120.211914062 536.376953125 117.134765625 c 132,-1,59
 543.794921875 114.055664062 543.794921875 114.055664062 560.11328125 112.688476562 c 5,60,61
 561.1015625 102.428710938 561.1015625 102.428710938 560.11328125 91.484375 c 5,62,63
 545.278320312 91.484375 545.278320312 91.484375 531.185546875 92.16796875 c 132,-1,64
 517.091796875 92.8515625 517.091796875 92.8515625 498.30078125 92.8515625 c 4,65,66
 480.004882812 92.8515625 480.004882812 92.8515625 466.405273438 92.16796875 c 132,-1,67
 452.806640625 91.484375 452.806640625 91.484375 438.9609375 91.484375 c 5,0,1
666 207 m 1,68,69
 654 119 654 119 648 28 c 1,70,71
 593 12 593 12 536 -1 c 128,-1,72
 479 -14 479 -14 414 -14 c 0,73,74
 303 -14 303 -14 221.5 30 c 128,-1,75
 140 74 140 74 95 153.5 c 128,-1,76
 50 233 50 233 50 341 c 0,77,78
 50 450 50 450 95 533.5 c 128,-1,79
 140 617 140 617 222 664 c 128,-1,80
 304 711 304 711 415 711 c 0,81,82
 456 711 456 711 487 706 c 128,-1,83
 518 701 518 701 562 691 c 0,84,85
 582 687 582 687 597 683 c 128,-1,86
 612 679 612 679 628 679 c 0,87,88
 633 679 633 679 639 679.5 c 128,-1,89
 645 680 645 680 649 681 c 1,90,91
 651 637 651 637 653 590 c 128,-1,92
 655 543 655 543 659 492 c 1,93,94
 639 489 639 489 625 490 c 1,95,96
 586 671 586 671 420 671 c 0,97,98
 353 671 353 671 306 644.5 c 128,-1,99
 259 618 259 618 230 572.5 c 128,-1,100
 201 527 201 527 188 470 c 128,-1,101
 175 413 175 413 175 351 c 0,102,103
 175 263 175 263 201 189 c 128,-1,104
 227 115 227 115 283 71 c 128,-1,105
 339 27 339 27 427 27 c 0,106,107
 510 27 510 27 559.5 71 c 128,-1,108
 609 115 609 115 631 208 c 1,109,110
 639 208 639 208 647.5 208 c 128,-1,111
 656 208 656 208 666 207 c 1,68,69
EndSplineSet
Substitution2: "'c2sc' Capitals to Small Capitals in Latin lookup 37 subtable" Udieresis.sc
Ligature2: "'ccmp' Glyph Composition/Decomposition in Latin lookup 29 subtable" U dieresiscomb
EndChar

StartChar: Yacute
Encoding: 221 221 58
Width: 511
GlyphClass: 2
Flags: W
LayerCount: 2
Fore
SplineSet
291 -104 m 256,0,1
 286 -104 286 -104 280.5 -104 c 128,-1,2
 275 -104 275 -104 270 -103 c 1,3,-1
 270 -11 l 1,4,5
 201 -8 201 -8 150.5 26.5 c 128,-1,6
 100 61 100 61 72.5 117.5 c 128,-1,7
 45 174 45 174 45 244 c 0,8,9
 45 310 45 310 71 369 c 128,-1,10
 97 428 97 428 147 467 c 128,-1,11
 197 506 197 506 270 513 c 1,12,-1
 270 601 l 1,13,14
 292 602 292 602 313 601 c 1,15,-1
 313 514 l 1,16,17
 349 512 349 512 388 501 c 128,-1,18
 427 490 427 490 454 468.5 c 128,-1,19
 481 447 481 447 481 414 c 0,20,21
 481 389 481 389 467 376 c 128,-1,22
 453 363 453 363 433 363 c 0,23,24
 407 363 407 363 387 388 c 128,-1,25
 367 413 367 413 367 459 c 1,26,27
 353 465 353 465 339.5 468.5 c 128,-1,28
 326 472 326 472 313 473 c 1,29,-1
 313 56 l 2,30,31
 315 56 315 56 318 56 c 0,32,33
 388 56 388 56 467 102 c 1,34,35
 477 91 477 91 483 80 c 1,36,37
 450 43 450 43 405 20 c 128,-1,38
 360 -3 360 -3 313 -9 c 1,39,-1
 313 -103 l 1,40,41
 307 -104 307 -104 301.5 -104 c 128,-1,42
 296 -104 296 -104 291 -104 c 256,0,1
270 62 m 1,43,-1
 270 472 l 1,44,45
 228 466 228 466 199 436.5 c 128,-1,46
 170 407 170 407 155 362.5 c 128,-1,47
 140 318 140 318 140 264 c 0,48,49
 140 180 140 180 175.5 128 c 128,-1,50
 211 76 211 76 270 62 c 1,43,-1
EndSplineSet
Substitution2: "'c2sc' Capitals to Small Capitals in Latin lookup 37 subtable" Yacute.sc
Ligature2: "'ccmp' Glyph Composition/Decomposition in Latin lookup 29 subtable" Y acutecomb
EndChar

StartChar: Eth
Encoding: 208 208 59
Width: 772
GlyphClass: 2
Flags: W
AnchorPoint: "Anchor-23" 555 0 basechar 0
AnchorPoint: "Anchor-22" 520 0 basechar 0
AnchorPoint: "Anchor-21" 549 0 basechar 0
AnchorPoint: "Anchor-20" 518 38 basechar 0
AnchorPoint: "Anchor-11" 343 150 basechar 0
AnchorPoint: "Anchor-10" 539 0 basechar 0
AnchorPoint: "Anchor-9" 539 0 basechar 0
AnchorPoint: "Anchor-8" 649 0 basechar 0
AnchorPoint: "Anchor-7" 539 0 basechar 0
AnchorPoint: "Anchor-5" 539 0 basechar 0
AnchorPoint: "Anchor-4" 629 0 basechar 0
AnchorPoint: "Anchor-3" 538 0 basechar 0
AnchorPoint: "Anchor-2" 538 0 basechar 0
AnchorPoint: "Anchor-1" 538 0 basechar 0
AnchorPoint: "Anchor-0" 539 0 basechar 0
LayerCount: 2
Fore
SplineSet
656 63 m 1,0,-1
 648 63 l 1,1,-1
 579 122 l 1,2,3
 614 163 614 163 637.5 212.5 c 128,-1,4
 661 262 661 262 661 296 c 0,5,6
 661 319 661 319 645 334 c 128,-1,7
 629 349 629 349 609 349 c 0,8,9
 582 349 582 349 539.5 324 c 128,-1,10
 497 299 497 299 451 265 c 1,11,-1
 452 -10 l 1,12,-1
 442 -10 l 1,13,-1
 362 44 l 1,14,-1
 363 201 l 1,15,16
 338 184 338 184 317.5 176 c 128,-1,17
 297 168 297 168 273 168 c 0,18,19
 237 168 237 168 202.5 185.5 c 128,-1,20
 168 203 168 203 139.5 231 c 128,-1,21
 111 259 111 259 93.5 289.5 c 128,-1,22
 76 320 76 320 75 347 c 0,23,24
 74 361 74 361 74 373 c 128,-1,25
 74 385 74 385 74 396 c 0,26,27
 74 425 74 425 74.5 465.5 c 128,-1,28
 75 506 75 506 75 545 c 1,29,-1
 6 545 l 1,30,-1
 -28 610 l 1,31,-1
 -28 620 l 1,32,-1
 766 620 l 1,33,-1
 800 555 l 1,34,-1
 800 545 l 1,35,-1
 449 545 l 1,36,-1
 450 367 l 1,37,38
 499 400 499 400 527 412 c 128,-1,39
 555 424 555 424 575 424 c 0,40,41
 593 424 593 424 618.5 412 c 128,-1,42
 644 400 644 400 668.5 377 c 128,-1,43
 693 354 693 354 709 319.5 c 128,-1,44
 725 285 725 285 725 240 c 0,45,46
 725 194 725 194 707.5 152 c 128,-1,47
 690 110 690 110 656 63 c 1,0,-1
364 305 m 1,48,-1
 366 545 l 1,49,-1
 160 545 l 1,50,-1
 162 325 l 2,51,52
 162 278 162 278 183.5 255.5 c 128,-1,53
 205 233 205 233 227 233 c 0,54,55
 256 233 256 233 288.5 253 c 128,-1,56
 321 273 321 273 364 305 c 1,48,-1
EndSplineSet
Substitution2: "'c2sc' Capitals to Small Capitals in Latin lookup 37 subtable" Eth.sc
EndChar

StartChar: Thorn
Encoding: 222 222 60
Width: 471
GlyphClass: 2
Flags: W
LayerCount: 2
Fore
SplineSet
434 97 m 1,0,1
 444 85 444 85 449 74 c 1,2,3
 366 -12 366 -12 259 -12 c 0,4,5
 190 -12 190 -12 141 21 c 128,-1,6
 92 54 92 54 65.5 109 c 128,-1,7
 39 164 39 164 39 231 c 0,8,9
 39 304 39 304 69 363 c 128,-1,10
 99 422 99 422 153.5 457 c 128,-1,11
 208 492 208 492 279 492 c 0,12,13
 316 492 316 492 354 481.5 c 128,-1,14
 392 471 392 471 418 449 c 128,-1,15
 444 427 444 427 444 393 c 0,16,17
 444 366 444 366 428 352 c 128,-1,18
 412 338 412 338 390 338 c 0,19,20
 360 338 360 338 339 365.5 c 128,-1,21
 318 393 318 393 318 439 c 1,22,23
 300 451 300 451 270 451 c 0,24,25
 234 451 234 451 209.5 433 c 128,-1,26
 185 415 185 415 169.5 385 c 128,-1,27
 154 355 154 355 147 320.5 c 128,-1,28
 140 286 140 286 140 253 c 0,29,30
 140 197 140 197 159 153 c 128,-1,31
 178 109 178 109 215 83.5 c 128,-1,32
 252 58 252 58 307 58 c 0,33,34
 339 58 339 58 369.5 67 c 128,-1,35
 400 76 400 76 434 97 c 1,0,1
EndSplineSet
Substitution2: "'c2sc' Capitals to Small Capitals in Latin lookup 37 subtable" Thorn.sc
EndChar

StartChar: a
Encoding: 97 97 61
Width: 493
GlyphClass: 2
Flags: W
LayerCount: 2
Fore
SplineSet
383 -10 m 0,0,1
 317 -10 317 -10 300 56 c 1,2,3
 229 -12 229 -12 155 -12 c 0,4,5
 104 -12 104 -12 68.5 18.5 c 128,-1,6
 33 49 33 49 33 103 c 0,7,8
 33 235 33 235 302 269 c 1,9,10
 302 293 302 293 302.5 318 c 128,-1,11
 303 343 303 343 303 371 c 0,12,13
 303 406 303 406 277.5 425.5 c 128,-1,14
 252 445 252 445 216 445 c 0,15,16
 190 445 190 445 172 437 c 1,17,18
 172 414 172 414 162 390 c 128,-1,19
 152 366 152 366 134.5 349.5 c 128,-1,20
 117 333 117 333 92 333 c 0,21,22
 70 333 70 333 57.5 345.5 c 128,-1,23
 45 358 45 358 45 376 c 0,24,25
 45 400 45 400 67.5 421.5 c 128,-1,26
 90 443 90 443 125 458.5 c 128,-1,27
 160 474 160 474 198 483 c 128,-1,28
 236 492 236 492 266 492 c 0,29,30
 303 492 303 492 334.5 478.5 c 128,-1,31
 366 465 366 465 385.5 438.5 c 128,-1,32
 405 412 405 412 405 373 c 0,33,34
 405 349 405 349 404 310.5 c 128,-1,35
 403 272 403 272 402.5 228.5 c 128,-1,36
 402 185 402 185 401 146 c 128,-1,37
 400 107 400 107 400 83 c 0,38,39
 400 51 400 51 428 51 c 0,40,41
 446 51 446 51 483 63 c 1,42,43
 487 58 487 58 488.5 52 c 128,-1,44
 490 46 490 46 491 41 c 1,45,46
 466 14 466 14 438.5 2 c 128,-1,47
 411 -10 411 -10 383 -10 c 0,0,1
300 83 m 1,48,-1
 302 233 l 1,49,50
 210 221 210 221 175.5 194 c 128,-1,51
 141 167 141 167 141 125 c 0,52,53
 141 90 141 90 159.5 71.5 c 128,-1,54
 178 53 178 53 206 53 c 0,55,56
 224 53 224 53 246.5 61 c 128,-1,57
 269 69 269 69 300 83 c 1,48,-1
EndSplineSet
Substitution2: "'smcp' Lowercase to Small Capitals in Latin lookup 38 subtable" A.sc
EndChar

StartChar: b
Encoding: 98 98 62
Width: 602
GlyphClass: 2
Flags: W
AnchorPoint: "Anchor-22" 520 0 basechar 0
AnchorPoint: "Anchor-20" 539 20 basechar 0
AnchorPoint: "Anchor-11" 352 125 basechar 0
AnchorPoint: "Anchor-10" 602 0 basechar 0
AnchorPoint: "Anchor-9" 602 0 basechar 0
AnchorPoint: "Anchor-8" 602 0 basechar 0
AnchorPoint: "Anchor-7" 602 0 basechar 0
AnchorPoint: "Anchor-5" 602 0 basechar 0
AnchorPoint: "Anchor-4" 602 0 basechar 0
AnchorPoint: "Anchor-3" 602 0 basechar 0
AnchorPoint: "Anchor-2" 422 0 basechar 0
AnchorPoint: "Anchor-1" 602 0 basechar 0
AnchorPoint: "Anchor-0" 412 0 basechar 0
LayerCount: 2
Fore
SplineSet
256 128 m 0,0,1
 202 128 202 128 161.5 147 c 128,-1,2
 121 166 121 166 94 195.5 c 128,-1,3
 67 225 67 225 54 258.5 c 128,-1,4
 41 292 41 292 41 321 c 0,5,6
 41 365 41 365 67 397.5 c 128,-1,7
 93 430 93 430 137.5 448.5 c 128,-1,8
 182 467 182 467 235 467 c 0,9,10
 299 467 299 467 349.5 438 c 128,-1,11
 400 409 400 409 425 357 c 1,12,-1
 428 357 l 1,13,-1
 429 545 l 1,14,-1
 6 545 l 1,15,-1
 -28 610 l 1,16,-1
 -28 620 l 1,17,-1
 596 620 l 1,18,-1
 630 555 l 1,19,-1
 630 545 l 1,20,-1
 513 545 l 1,21,-1
 515 -10 l 1,22,-1
 505 -10 l 1,23,-1
 425 42 l 1,24,-1
 426 202 l 1,25,-1
 424 202 l 1,26,27
 399 164 399 164 351 146 c 128,-1,28
 303 128 303 128 256 128 c 0,0,1
226 192 m 0,29,30
 262 192 262 192 294 204 c 1,31,-1
 164 367 l 1,32,33
 141 352 141 352 126.5 331 c 128,-1,34
 112 310 112 310 112 282 c 0,35,36
 112 242 112 242 145 217 c 128,-1,37
 178 192 178 192 226 192 c 0,29,30
205 385 m 1,38,-1
 333 224 l 1,39,40
 356 241 356 241 370 264 c 128,-1,41
 384 287 384 287 384 315 c 0,42,43
 384 359 384 359 349 376.5 c 128,-1,44
 314 394 314 394 268 394 c 0,45,46
 235 394 235 394 205 385 c 1,38,-1
EndSplineSet
Substitution2: "'smcp' Lowercase to Small Capitals in Latin lookup 38 subtable" B.sc
EndChar

StartChar: c
Encoding: 99 99 63
Width: 721
GlyphClass: 2
Flags: W
LayerCount: 2
Fore
SplineSet
458.35546875 217.375 m 1,0,1
 457 225 457 225 458.35546875 232.37890625 c 1,2,3
 477 234 477 234 485.403320312 235.524414062 c 0,4,5
 496 238 496 238 497.163085938 244.961914062 c 0,6,7
 500 268 500 268 500.103515625 268.194335938 c 2,8,-1
 500.103515625 340.698242188 l 2,9,10
 500 369 500 369 489.225585938 384.015625 c 0,11,12
 478 399 478 399 446.008789062 398.294921875 c 0,13,14
 429 398 429 398 413.080078125 393.211914062 c 0,15,16
 397 388 397 388 378.975585938 374.578125 c 1,17,-1
 378.975585938 273.034179688 l 2,18,19
 379 253 379 253 381.622070312 245.9296875 c 0,20,21
 384 238 384 238 392.793945312 235.524414062 c 0,22,23
 401 234 401 234 419.547851562 232.37890625 c 1,24,25
 423 225 423 225 419.547851562 217.375 c 1,26,27
 405 217 405 217 387.208007812 217.858398438 c 0,28,29
 370 218 370 218 347.8125 218.341796875 c 256,30,31
 326 218 326 218 309.00390625 217.858398438 c 0,32,33
 292 218 292 218 274.3125 217.375 c 1,34,35
 273 225 273 225 274.3125 232.37890625 c 1,36,37
 300 234 300 234 303.711914062 235.524414062 c 0,38,39
 313 238 313 238 316.059570312 244.961914062 c 128,-1,40
 319 252 319 252 319 268.194335938 c 2,41,-1
 319 498.482421875 l 2,42,43
 319 500 319 500 318.412109375 520.98828125 c 0,44,45
 318 527 318 527 313.120117188 534.298828125 c 0,46,47
 309 540 309 540 299.595703125 541.799804688 c 0,48,49
 291 544 291 544 271.372070312 545.4296875 c 1,50,51
 270 552 270 552 271.372070312 558.498046875 c 1,52,53
 295 561 295 561 319 566 c 128,-1,54
 343 571 343 571 370.15625 580.278320312 c 1,55,-1
 380.15234375 577.375 l 1,56,57
 380 555 380 555 379.26953125 553.416015625 c 0,58,59
 378.975585938 552.962317425 378.975585938 552.962317425 378.975585938 524.134765625 c 2,60,-1
 378.975585938 416.686523438 l 1,61,62
 406 437 406 437 431.013671875 445 c 0,63,64
 457 453 457 453 480.112304688 452.986328125 c 0,65,66
 519 453 519 453 539.5 434.110351562 c 0,67,68
 560.080078125 414.925350189 560.080078125 414.925350189 560.080078125 379.90234375 c 2,69,-1
 560.080078125 273.034179688 l 2,70,71
 560 251 560 251 562.725585938 245.9296875 c 0,72,73
 566 237 566 237 574.192382812 235.524414062 c 0,74,75
 583 234 583 234 602.416015625 232.37890625 c 1,76,77
 604 225 604 225 602.416015625 217.375 c 1,78,79
 585 217 585 217 568.018554688 217.858398438 c 0,80,81
 551 218 551 218 528.916015625 218.341796875 c 0,82,83
 507 218 507 218 490.990234375 217.858398438 c 0,84,85
 475 218 475 218 458.35546875 217.375 c 1,0,1
666 207 m 1,86,87
 654 119 654 119 648 28 c 1,88,89
 593 12 593 12 536 -1 c 128,-1,90
 479 -14 479 -14 414 -14 c 0,91,92
 303 -14 303 -14 221.5 30 c 128,-1,93
 140 74 140 74 95 153.5 c 128,-1,94
 50 233 50 233 50 341 c 0,95,96
 50 450 50 450 95 533.5 c 128,-1,97
 140 617 140 617 222 664 c 128,-1,98
 304 711 304 711 415 711 c 0,99,100
 456 711 456 711 487 706 c 128,-1,101
 518 701 518 701 562 691 c 0,102,103
 582 687 582 687 597 683 c 128,-1,104
 612 679 612 679 628 679 c 0,105,106
 633 679 633 679 639 679.5 c 128,-1,107
 645 680 645 680 649 681 c 1,108,109
 651 637 651 637 653 590 c 128,-1,110
 655 543 655 543 659 492 c 1,111,112
 639 489 639 489 625 490 c 1,113,114
 586 671 586 671 420 671 c 0,115,116
 353 671 353 671 306 644.5 c 128,-1,117
 259 618 259 618 230 572.5 c 128,-1,118
 201 527 201 527 188 470 c 128,-1,119
 175 413 175 413 175 351 c 0,120,121
 175 263 175 263 201 189 c 128,-1,122
 227 115 227 115 283 71 c 128,-1,123
 339 27 339 27 427 27 c 0,124,125
 510 27 510 27 559.5 71 c 128,-1,126
 609 115 609 115 631 208 c 1,127,128
 639 208 639 208 647.5 208 c 128,-1,129
 656 208 656 208 666 207 c 1,86,87
EndSplineSet
Substitution2: "'smcp' Lowercase to Small Capitals in Latin lookup 38 subtable" C.sc
EndChar

StartChar: d
Encoding: 100 100 64
Width: 577
GlyphClass: 2
Flags: W
AnchorPoint: "Anchor-22" 520 0 basechar 0
AnchorPoint: "Anchor-21" 549 0 basechar 0
AnchorPoint: "Anchor-20" 540 20 basechar 0
AnchorPoint: "Anchor-11" 477 10 basechar 0
AnchorPoint: "Anchor-10" 502 0 basechar 0
AnchorPoint: "Anchor-9" 502 0 basechar 0
AnchorPoint: "Anchor-8" 562 0 basechar 0
AnchorPoint: "Anchor-7" 562 0 basechar 0
AnchorPoint: "Anchor-6" 582 -7 basechar 0
AnchorPoint: "Anchor-5" 529 0 basechar 0
AnchorPoint: "Anchor-4" 562 0 basechar 0
AnchorPoint: "Anchor-3" 560 0 basechar 0
AnchorPoint: "Anchor-2" 450 0 basechar 0
AnchorPoint: "Anchor-1" 560 0 basechar 0
AnchorPoint: "Anchor-0" 560 0 basechar 0
LayerCount: 2
Fore
SplineSet
355 7 m 0,0,1
 258 7 258 7 171 72 c 128,-1,2
 84 137 84 137 26 259 c 1,3,-1
 64 281 l 1,4,5
 91 228 91 228 127.5 182.5 c 128,-1,6
 164 137 164 137 214 109.5 c 128,-1,7
 264 82 264 82 331 82 c 0,8,9
 387 82 387 82 416.5 99.5 c 128,-1,10
 446 117 446 117 457 141.5 c 128,-1,11
 468 166 468 166 468 187 c 0,12,13
 468 204 468 204 458 214.5 c 128,-1,14
 448 225 448 225 430 225 c 0,15,16
 411 225 411 225 379.5 219 c 128,-1,17
 348 213 348 213 318 207 c 128,-1,18
 288 201 288 201 271 201 c 0,19,20
 246 201 246 201 218.5 216.5 c 128,-1,21
 191 232 191 232 167 257.5 c 128,-1,22
 143 283 143 283 128 314.5 c 128,-1,23
 113 346 113 346 113 378 c 0,24,25
 113 415 113 415 142 437.5 c 128,-1,26
 171 460 171 460 232 460 c 2,27,-1
 390 460 l 1,28,-1
 390 545 l 1,29,-1
 6 545 l 1,30,-1
 -28 610 l 1,31,-1
 -28 620 l 1,32,-1
 571 620 l 1,33,-1
 605 555 l 1,34,-1
 605 545 l 1,35,-1
 471 545 l 1,36,37
 472 508 472 508 472.5 467 c 128,-1,38
 473 426 473 426 473 393 c 1,39,-1
 461 385 l 1,40,-1
 250 385 l 2,41,42
 185 385 185 385 185 339 c 0,43,44
 185 308 185 308 202.5 290.5 c 128,-1,45
 220 273 220 273 238 273 c 0,46,47
 247 273 247 273 268 277 c 128,-1,48
 289 281 289 281 315 285.5 c 128,-1,49
 341 290 341 290 365 294 c 128,-1,50
 389 298 389 298 404 298 c 0,51,52
 432 298 432 298 462.5 275 c 128,-1,53
 493 252 493 252 514.5 215 c 128,-1,54
 536 178 536 178 536 137 c 0,55,56
 536 111 536 111 518 80.5 c 128,-1,57
 500 50 500 50 460 28.5 c 128,-1,58
 420 7 420 7 355 7 c 0,0,1
EndSplineSet
Substitution2: "'smcp' Lowercase to Small Capitals in Latin lookup 38 subtable" D.sc
EndChar

StartChar: e
Encoding: 101 101 65
Width: 497
GlyphClass: 2
Flags: W
LayerCount: 2
Fore
SplineSet
259 -12 m 0,0,1
 188 -12 188 -12 139 21 c 128,-1,2
 90 54 90 54 64.5 109.5 c 128,-1,3
 39 165 39 165 39 232 c 0,4,5
 39 301 39 301 65.5 360 c 128,-1,6
 92 419 92 419 143 455.5 c 128,-1,7
 194 492 194 492 267 492 c 0,8,9
 355 492 355 492 404.5 439.5 c 128,-1,10
 454 387 454 387 454 304 c 0,11,12
 454 294 454 294 453.5 286.5 c 128,-1,13
 453 279 453 279 452 274 c 1,14,-1
 137 277 l 2,15,16
 137 273 137 273 137 270 c 0,17,18
 137 172 137 172 182 116 c 128,-1,19
 227 60 227 60 308 60 c 0,20,21
 376 60 376 60 442 104 c 1,22,23
 452 92 452 92 457 81 c 1,24,25
 372 -12 372 -12 259 -12 c 0,0,1
140 314 m 1,26,-1
 347 318 l 2,27,28
 348 320 348 320 348 323.5 c 128,-1,29
 348 327 348 327 348 328 c 0,30,31
 348 382 348 382 324.5 418 c 128,-1,32
 301 454 301 454 255 454 c 0,33,34
 212 454 212 454 180 419 c 128,-1,35
 148 384 148 384 140 314 c 1,26,-1
EndSplineSet
Substitution2: "'smcp' Lowercase to Small Capitals in Latin lookup 38 subtable" E.sc
EndChar

StartChar: f
Encoding: 102 102 66
Width: 772
GlyphClass: 2
Flags: W
AnchorPoint: "Anchor-23" 555 0 basechar 0
AnchorPoint: "Anchor-22" 520 0 basechar 0
AnchorPoint: "Anchor-21" 549 0 basechar 0
AnchorPoint: "Anchor-20" 518 38 basechar 0
AnchorPoint: "Anchor-11" 343 150 basechar 0
AnchorPoint: "Anchor-10" 539 0 basechar 0
AnchorPoint: "Anchor-9" 539 0 basechar 0
AnchorPoint: "Anchor-8" 649 0 basechar 0
AnchorPoint: "Anchor-7" 539 0 basechar 0
AnchorPoint: "Anchor-5" 539 0 basechar 0
AnchorPoint: "Anchor-4" 629 0 basechar 0
AnchorPoint: "Anchor-3" 538 0 basechar 0
AnchorPoint: "Anchor-2" 538 0 basechar 0
AnchorPoint: "Anchor-1" 538 0 basechar 0
AnchorPoint: "Anchor-0" 539 0 basechar 0
LayerCount: 2
Fore
SplineSet
656 63 m 1,0,-1
 648 63 l 1,1,-1
 579 122 l 1,2,3
 614 163 614 163 637.5 212.5 c 128,-1,4
 661 262 661 262 661 296 c 0,5,6
 661 319 661 319 645 334 c 128,-1,7
 629 349 629 349 609 349 c 0,8,9
 582 349 582 349 539.5 324 c 128,-1,10
 497 299 497 299 451 265 c 1,11,-1
 452 -10 l 1,12,-1
 442 -10 l 1,13,-1
 362 44 l 1,14,-1
 363 201 l 1,15,16
 338 184 338 184 317.5 176 c 128,-1,17
 297 168 297 168 273 168 c 0,18,19
 237 168 237 168 202.5 185.5 c 128,-1,20
 168 203 168 203 139.5 231 c 128,-1,21
 111 259 111 259 93.5 289.5 c 128,-1,22
 76 320 76 320 75 347 c 0,23,24
 74 361 74 361 74 373 c 128,-1,25
 74 385 74 385 74 396 c 0,26,27
 74 425 74 425 74.5 465.5 c 128,-1,28
 75 506 75 506 75 545 c 1,29,-1
 6 545 l 1,30,-1
 -28 610 l 1,31,-1
 -28 620 l 1,32,-1
 766 620 l 1,33,-1
 800 555 l 1,34,-1
 800 545 l 1,35,-1
 449 545 l 1,36,-1
 450 367 l 1,37,38
 499 400 499 400 527 412 c 128,-1,39
 555 424 555 424 575 424 c 0,40,41
 593 424 593 424 618.5 412 c 128,-1,42
 644 400 644 400 668.5 377 c 128,-1,43
 693 354 693 354 709 319.5 c 128,-1,44
 725 285 725 285 725 240 c 0,45,46
 725 194 725 194 707.5 152 c 128,-1,47
 690 110 690 110 656 63 c 1,0,-1
364 305 m 1,48,-1
 366 545 l 1,49,-1
 160 545 l 1,50,-1
 162 325 l 2,51,52
 162 278 162 278 183.5 255.5 c 128,-1,53
 205 233 205 233 227 233 c 0,54,55
 256 233 256 233 288.5 253 c 128,-1,56
 321 273 321 273 364 305 c 1,48,-1
EndSplineSet
Substitution2: "Single Substitution lookup 63 subtable" f._f
Substitution2: "Single Substitution lookup 61 subtable" f._ij
Substitution2: "Single Substitution lookup 60 subtable" f._asc
Substitution2: "'smcp' Lowercase to Small Capitals in Latin lookup 38 subtable" F.sc
EndChar

StartChar: g
Encoding: 103 103 67
Width: 548
GlyphClass: 2
Flags: W
LayerCount: 2
Fore
SplineSet
223 -255 m 0,0,1
 135 -255 135 -255 81 -224 c 128,-1,2
 27 -193 27 -193 27 -138 c 0,3,4
 27 -95 27 -95 57 -67 c 128,-1,5
 87 -39 87 -39 131 -11 c 1,6,7
 92 -2 92 -2 72 20.5 c 128,-1,8
 52 43 52 43 52 74 c 0,9,10
 52 128 52 128 131 183 c 1,11,12
 98 204 98 204 78 237.5 c 128,-1,13
 58 271 58 271 58 315 c 0,14,15
 58 370 58 370 86.5 409.5 c 128,-1,16
 115 449 115 449 161.5 470.5 c 128,-1,17
 208 492 208 492 261 492 c 0,18,19
 339 492 339 492 391 449 c 1,20,21
 445 492 445 492 497 492 c 0,22,23
 523 492 523 492 538 480.5 c 128,-1,24
 553 469 553 469 553 447 c 256,25,26
 553 425 553 425 539 412 c 128,-1,27
 525 399 525 399 505 399 c 0,28,29
 486 399 486 399 472.5 410.5 c 128,-1,30
 459 422 459 422 455 443 c 1,31,32
 441 440 441 440 432.5 436 c 128,-1,33
 424 432 424 432 413 425 c 1,34,35
 447 382 447 382 447 323 c 0,36,37
 447 268 447 268 420 229.5 c 128,-1,38
 393 191 393 191 348.5 170.5 c 128,-1,39
 304 150 304 150 251 150 c 0,40,41
 201 150 201 150 158 168 c 1,42,43
 133 143 133 143 133 115 c 0,44,45
 133 90 133 90 152 83.5 c 128,-1,46
 171 77 171 77 222 77 c 0,47,48
 245 77 245 77 277 77.5 c 128,-1,49
 309 78 309 78 324 78 c 0,50,51
 424 78 424 78 468 42.5 c 128,-1,52
 512 7 512 7 512 -55 c 0,53,54
 512 -104 512 -104 488 -141.5 c 128,-1,55
 464 -179 464 -179 423 -204.5 c 128,-1,56
 382 -230 382 -230 330.5 -242.5 c 128,-1,57
 279 -255 279 -255 223 -255 c 0,0,1
174 -16 m 0,58,59
 120 -61 120 -61 120 -111 c 0,60,61
 120 -146 120 -146 141 -168 c 128,-1,62
 162 -190 162 -190 196 -200 c 128,-1,63
 230 -210 230 -210 268 -210 c 0,64,65
 302 -210 302 -210 339 -200 c 128,-1,66
 376 -190 376 -190 402 -164.5 c 128,-1,67
 428 -139 428 -139 428 -93 c 0,68,69
 428 -51 428 -51 398.5 -33 c 128,-1,70
 369 -15 369 -15 289 -15 c 0,71,72
 270 -15 270 -15 242 -15.5 c 128,-1,73
 214 -16 214 -16 180 -16 c 0,74,75
 177 -16 177 -16 174 -16 c 0,58,59
253 185 m 256,76,77
 297 185 297 185 320.5 220.5 c 128,-1,78
 344 256 344 256 344 319 c 0,79,80
 344 383 344 383 320 420 c 128,-1,81
 296 457 296 457 250 457 c 0,82,83
 207 457 207 457 183.5 422.5 c 128,-1,84
 160 388 160 388 160 325 c 0,85,86
 160 261 160 261 184.5 223 c 128,-1,87
 209 185 209 185 253 185 c 256,76,77
EndSplineSet
Substitution2: "'smcp' Lowercase to Small Capitals in Latin lookup 38 subtable" G.sc
EndChar

StartChar: h
Encoding: 104 104 68
Width: 596
GlyphClass: 2
Flags: W
LayerCount: 2
Fore
SplineSet
333 -1 m 1,0,1
 331 15 331 15 333 30 c 1,2,3
 364 32 364 32 379 36.5 c 128,-1,4
 394 41 394 41 399 56 c 128,-1,5
 404 71 404 71 404 104 c 2,6,-1
 404 306 l 2,7,8
 404 366 404 366 385.5 395.5 c 128,-1,9
 367 425 367 425 312 425 c 0,10,11
 283 425 283 425 256 414.5 c 128,-1,12
 229 404 229 404 198 376 c 1,13,-1
 198 114 l 2,14,15
 198 75 198 75 202.5 58 c 128,-1,16
 207 41 207 41 221.5 36.5 c 128,-1,17
 236 32 236 32 267 30 c 1,18,19
 272 15 272 15 267 -1 c 1,20,21
 242 -1 242 -1 212 0 c 128,-1,22
 182 1 182 1 145 1 c 256,23,24
 108 1 108 1 79 0 c 128,-1,25
 50 -1 50 -1 20 -1 c 1,26,27
 17 15 17 15 20 30 c 1,28,29
 54 32 54 32 70 36.5 c 128,-1,30
 86 41 86 41 91 56 c 128,-1,31
 96 71 96 71 96 104 c 2,32,-1
 96 586 l 2,33,34
 96 615 96 615 95 632.5 c 128,-1,35
 94 650 94 650 86 660 c 0,36,37
 78 671 78 671 63 675.5 c 128,-1,38
 48 680 48 680 15 683 c 1,39,40
 12 696 12 696 15 710 c 1,41,42
 55 715 55 715 96 725.5 c 128,-1,43
 137 736 137 736 183 755 c 1,44,-1
 200 749 l 1,45,46
 199 727 199 727 198.5 699.5 c 128,-1,47
 198 672 198 672 198 639 c 2,48,-1
 198 417 l 1,49,50
 243 459 243 459 286.5 475.5 c 128,-1,51
 330 492 330 492 370 492 c 0,52,53
 436 492 436 492 471 453 c 128,-1,54
 506 414 506 414 506 341 c 2,55,-1
 506 114 l 2,56,57
 506 75 506 75 510.5 58 c 128,-1,58
 515 41 515 41 530 36.5 c 128,-1,59
 545 32 545 32 578 30 c 1,60,61
 580 15 580 15 578 -1 c 1,62,63
 548 -1 548 -1 519.5 0 c 128,-1,64
 491 1 491 1 453 1 c 0,65,66
 416 1 416 1 388.5 0 c 128,-1,67
 361 -1 361 -1 333 -1 c 1,0,1
EndSplineSet
Substitution2: "'smcp' Lowercase to Small Capitals in Latin lookup 38 subtable" H.sc
EndChar

StartChar: i
Encoding: 105 105 69
Width: 298
GlyphClass: 2
Flags: W
LayerCount: 2
Fore
SplineSet
277 -1 m 1,0,1
 249 -1 249 -1 219 0 c 128,-1,2
 189 1 189 1 154 1 c 0,3,4
 122 1 122 1 89.5 0 c 128,-1,5
 57 -1 57 -1 27 -1 c 1,6,7
 24 15 24 15 27 30 c 1,8,9
 61 32 61 32 77 36.5 c 128,-1,10
 93 41 93 41 98 56 c 128,-1,11
 103 71 103 71 103 104 c 2,12,-1
 103 328 l 2,13,14
 103 367 103 367 100 386 c 128,-1,15
 97 405 97 405 81.5 412.5 c 128,-1,16
 66 420 66 420 28 425 c 1,17,18
 25 439 25 439 28 451 c 1,19,20
 72 459 72 459 112 471 c 128,-1,21
 152 483 152 483 189 497 c 1,22,-1
 206 491 l 1,23,24
 205 460 205 460 204.5 433 c 128,-1,25
 204 406 204 406 204 382 c 2,26,-1
 204 114 l 2,27,28
 204 75 204 75 208.5 58 c 128,-1,29
 213 41 213 41 228.5 36.5 c 128,-1,30
 244 32 244 32 277 30 c 1,31,32
 280 15 280 15 277 -1 c 1,0,1
77 667 m 0,33,34
 77 696 77 696 97.5 716 c 128,-1,35
 118 736 118 736 147 736 c 0,36,37
 175 736 175 736 195.5 716 c 128,-1,38
 216 696 216 696 216 668 c 0,39,40
 216 642 216 642 196 620.5 c 128,-1,41
 176 599 176 599 145 599 c 0,42,43
 117 599 117 599 97 619 c 128,-1,44
 77 639 77 639 77 667 c 0,33,34
EndSplineSet
Substitution2: "Single Substitution lookup 62 subtable" i.f_
Substitution2: "'smcp' Lowercase to Small Capitals in Latin lookup 38 subtable" I.sc
EndChar

StartChar: j
Encoding: 106 106 70
Width: 282
GlyphClass: 2
Flags: W
LayerCount: 2
Fore
SplineSet
181 497 m 1,0,-1
 198 491 l 1,1,2
 197 463 197 463 196.5 436 c 128,-1,3
 196 409 196 409 196 381 c 0,4,5
 196 373 196 373 196 341 c 128,-1,6
 196 309 196 309 196.5 266 c 128,-1,7
 197 223 197 223 197.5 178.5 c 128,-1,8
 198 134 198 134 198 99.5 c 128,-1,9
 198 65 198 65 198 51 c 0,10,11
 198 -17 198 -17 192 -61 c 128,-1,12
 186 -105 186 -105 173 -133.5 c 128,-1,13
 160 -162 160 -162 137 -186 c 0,14,15
 73 -255 73 -255 -3 -255 c 0,16,17
 -43 -255 -43 -255 -59.5 -238.5 c 128,-1,18
 -76 -222 -76 -222 -76 -204 c 256,19,20
 -76 -186 -76 -186 -62 -172 c 128,-1,21
 -48 -158 -48 -158 -21 -158 c 0,22,23
 1 -158 1 -158 20.5 -169.5 c 128,-1,24
 40 -181 40 -181 52 -205 c 1,25,26
 69 -197 69 -197 78 -175.5 c 128,-1,27
 87 -154 87 -154 90.5 -126 c 128,-1,28
 94 -98 94 -98 95 -72 c 128,-1,29
 96 -46 96 -46 96 -29 c 0,30,31
 96 -8 96 -8 96 29 c 128,-1,32
 96 66 96 66 96 110.5 c 128,-1,33
 96 155 96 155 95.5 198.5 c 128,-1,34
 95 242 95 242 95 277 c 128,-1,35
 95 312 95 312 95 328 c 0,36,37
 95 367 95 367 91.5 386 c 128,-1,38
 88 405 88 405 72.5 412.5 c 128,-1,39
 57 420 57 420 20 425 c 1,40,41
 17 439 17 439 20 451 c 1,42,43
 62 459 62 459 101.5 470 c 128,-1,44
 141 481 141 481 181 497 c 1,0,-1
69 667 m 0,45,46
 69 696 69 696 89.5 716 c 128,-1,47
 110 736 110 736 139 736 c 0,48,49
 167 736 167 736 187.5 716 c 128,-1,50
 208 696 208 696 208 668 c 0,51,52
 208 642 208 642 188 620.5 c 128,-1,53
 168 599 168 599 137 599 c 0,54,55
 109 599 109 599 89 619 c 128,-1,56
 69 639 69 639 69 667 c 0,45,46
EndSplineSet
Substitution2: "Single Substitution lookup 62 subtable" j.f_
Substitution2: "'smcp' Lowercase to Small Capitals in Latin lookup 38 subtable" J.sc
EndChar

StartChar: k
Encoding: 107 107 71
Width: 763
GlyphClass: 2
Flags: W
AnchorPoint: "Anchor-23" 555 0 basechar 0
AnchorPoint: "Anchor-22" 520 0 basechar 0
AnchorPoint: "Anchor-21" 549 0 basechar 0
AnchorPoint: "Anchor-20" 520 36 basechar 0
AnchorPoint: "Anchor-11" 336 130 basechar 0
AnchorPoint: "Anchor-10" 541 0 basechar 0
AnchorPoint: "Anchor-9" 541 0 basechar 0
AnchorPoint: "Anchor-8" 651 0 basechar 0
AnchorPoint: "Anchor-7" 541 0 basechar 0
AnchorPoint: "Anchor-5" 541 0 basechar 0
AnchorPoint: "Anchor-4" 631 0 basechar 0
AnchorPoint: "Anchor-3" 540 0 basechar 0
AnchorPoint: "Anchor-2" 540 0 basechar 0
AnchorPoint: "Anchor-1" 540 0 basechar 0
AnchorPoint: "Anchor-0" 541 0 basechar 0
LayerCount: 2
Fore
SplineSet
645 68 m 1,0,-1
 637 68 l 1,1,-1
 568 127 l 1,2,3
 603 168 603 168 627.5 216 c 128,-1,4
 652 264 652 264 652 297 c 0,5,6
 652 323 652 323 637.5 336.5 c 128,-1,7
 623 350 623 350 604 350 c 0,8,9
 583 350 583 350 556 336.5 c 128,-1,10
 529 323 529 323 502 304 c 128,-1,11
 475 285 475 285 453 268 c 1,12,-1
 454 -10 l 1,13,-1
 444 -10 l 1,14,-1
 364 44 l 1,15,-1
 365 203 l 1,16,17
 330 177 330 177 307.5 163 c 128,-1,18
 285 149 285 149 266 143.5 c 128,-1,19
 247 138 247 138 224 138 c 0,20,21
 173 138 173 138 132.5 165 c 128,-1,22
 92 192 92 192 68.5 233.5 c 128,-1,23
 45 275 45 275 45 316 c 0,24,25
 45 359 45 359 68 390 c 128,-1,26
 91 421 91 421 127.5 438 c 128,-1,27
 164 455 164 455 203 455 c 0,28,29
 254 455 254 455 295.5 428.5 c 128,-1,30
 337 402 337 402 367 365 c 1,31,-1
 369 545 l 1,32,-1
 6 545 l 1,33,-1
 -28 610 l 1,34,-1
 -28 620 l 1,35,-1
 757 620 l 1,36,-1
 791 555 l 1,37,-1
 791 545 l 1,38,-1
 451 545 l 1,39,-1
 452 369 l 1,40,41
 485 392 485 392 516.5 408.5 c 128,-1,42
 548 425 548 425 571 425 c 0,43,44
 589 425 589 425 613.5 413.5 c 128,-1,45
 638 402 638 402 661.5 379 c 128,-1,46
 685 356 685 356 700.5 322 c 128,-1,47
 716 288 716 288 716 243 c 0,48,49
 716 197 716 197 697.5 156 c 128,-1,50
 679 115 679 115 645 68 c 1,0,-1
366 304 m 1,51,-1
 366 310 l 1,52,53
 340 338 340 338 304 358 c 128,-1,54
 268 378 268 378 229 378 c 0,55,56
 186 378 186 378 151.5 352 c 128,-1,57
 117 326 117 326 117 277 c 0,58,59
 117 239 117 239 137 220.5 c 128,-1,60
 157 202 157 202 184 202 c 0,61,62
 208 202 208 202 238.5 217.5 c 128,-1,63
 269 233 269 233 302 256 c 128,-1,64
 335 279 335 279 366 304 c 1,51,-1
EndSplineSet
Substitution2: "'smcp' Lowercase to Small Capitals in Latin lookup 38 subtable" K.sc
EndChar

StartChar: l
Encoding: 108 108 72
Width: 686
GlyphClass: 2
Flags: W
AnchorPoint: "Anchor-22" 630 0 basechar 0
AnchorPoint: "Anchor-21" 678 0 basechar 0
AnchorPoint: "Anchor-20" 665 18 basechar 0
AnchorPoint: "Anchor-11" 240 90 basechar 0
AnchorPoint: "Anchor-10" 686 0 basechar 0
AnchorPoint: "Anchor-9" 686 0 basechar 0
AnchorPoint: "Anchor-8" 686 0 basechar 0
AnchorPoint: "Anchor-7" 686 0 basechar 0
AnchorPoint: "Anchor-5" 686 0 basechar 0
AnchorPoint: "Anchor-4" 686 0 basechar 0
AnchorPoint: "Anchor-3" 686 0 basechar 0
AnchorPoint: "Anchor-2" 526 0 basechar 0
AnchorPoint: "Anchor-1" 686 0 basechar 0
AnchorPoint: "Anchor-0" 546 0 basechar 0
LayerCount: 2
Fore
SplineSet
264 -10 m 1,0,-1
 254 -10 l 1,1,2
 192 50 192 50 146 100 c 128,-1,3
 100 150 100 150 74.5 198 c 128,-1,4
 49 246 49 246 49 299 c 0,5,6
 49 341 49 341 65.5 375 c 128,-1,7
 82 409 82 409 113 429.5 c 128,-1,8
 144 450 144 450 187 450 c 0,9,10
 233 450 233 450 265.5 426 c 128,-1,11
 298 402 298 402 324 372 c 1,12,13
 347 400 347 400 376 419.5 c 128,-1,14
 405 439 405 439 439 439 c 0,15,16
 475 439 475 439 512 414 c 1,17,-1
 513 545 l 1,18,-1
 6 545 l 1,19,-1
 -28 610 l 1,20,-1
 -28 620 l 1,21,-1
 680 620 l 1,22,-1
 714 555 l 1,23,-1
 714 545 l 1,24,-1
 597 545 l 1,25,-1
 599 -10 l 1,26,-1
 589 -10 l 1,27,-1
 509 42 l 1,28,-1
 511 368 l 1,29,30
 504 370 504 370 496.5 372 c 128,-1,31
 489 374 489 374 481 374 c 0,32,33
 442 374 442 374 409.5 339.5 c 128,-1,34
 377 305 377 305 340 225 c 1,35,-1
 263 263 l 1,36,37
 270 281 270 281 280 301 c 128,-1,38
 290 321 290 321 302 340 c 1,39,40
 286 356 286 356 265.5 366 c 128,-1,41
 245 376 245 376 222 376 c 0,42,43
 182 376 182 376 155.5 347 c 128,-1,44
 129 318 129 318 129 265 c 0,45,46
 129 229 129 229 144.5 194.5 c 128,-1,47
 160 160 160 160 199 120 c 128,-1,48
 238 80 238 80 307 25 c 1,49,-1
 264 -10 l 1,0,-1
EndSplineSet
Substitution2: "'smcp' Lowercase to Small Capitals in Latin lookup 38 subtable" L.sc
EndChar

StartChar: m
Encoding: 109 109 73
Width: 612
GlyphClass: 2
Flags: W
AnchorPoint: "Anchor-23" 678 0 basechar 0
AnchorPoint: "Anchor-22" 630 0 basechar 0
AnchorPoint: "Anchor-21" 678 0 basechar 0
AnchorPoint: "Anchor-20" 602 60 basechar 0
AnchorPoint: "Anchor-11" 429 156 basechar 0
AnchorPoint: "Anchor-10" 612 0 basechar 0
AnchorPoint: "Anchor-9" 612 0 basechar 0
AnchorPoint: "Anchor-8" 612 0 basechar 0
AnchorPoint: "Anchor-7" 612 0 basechar 0
AnchorPoint: "Anchor-5" 612 0 basechar 0
AnchorPoint: "Anchor-4" 612 0 basechar 0
AnchorPoint: "Anchor-3" 612 0 basechar 0
AnchorPoint: "Anchor-2" 472 0 basechar 0
AnchorPoint: "Anchor-1" 612 0 basechar 0
AnchorPoint: "Anchor-0" 462 0 basechar 0
LayerCount: 2
Fore
SplineSet
78 310 m 2,0,-1
 132 310 l 1,1,-1
 133 545 l 1,2,-1
 6 545 l 1,3,-1
 -28 610 l 1,4,-1
 -28 620 l 1,5,-1
 606 620 l 1,6,-1
 640 555 l 1,7,-1
 640 545 l 1,8,-1
 523 545 l 1,9,-1
 525 -10 l 1,10,-1
 515 -10 l 1,11,-1
 435 42 l 1,12,-1
 436 235 l 1,13,-1
 217 235 l 1,14,-1
 217 163 l 2,15,16
 217 138 217 138 194 138 c 0,17,18
 179 138 179 138 155.5 153.5 c 128,-1,19
 132 169 132 169 108.5 193 c 128,-1,20
 85 217 85 217 69 242.5 c 128,-1,21
 53 268 53 268 53 287 c 0,22,23
 53 296 53 296 59 303 c 128,-1,24
 65 310 65 310 78 310 c 2,0,-1
439 545 m 1,25,-1
 215 545 l 1,26,-1
 216 310 l 1,27,-1
 437 310 l 1,28,-1
 439 545 l 1,25,-1
EndSplineSet
Substitution2: "'smcp' Lowercase to Small Capitals in Latin lookup 38 subtable" M.sc
EndChar

StartChar: n
Encoding: 110 110 74
Width: 570
GlyphClass: 2
Flags: W
AnchorPoint: "Anchor-22" 520 0 basechar 0
AnchorPoint: "Anchor-21" 549 0 basechar 0
AnchorPoint: "Anchor-20" 539 20 basechar 0
AnchorPoint: "Anchor-11" 385 168 basechar 0
AnchorPoint: "Anchor-10" 570 0 basechar 0
AnchorPoint: "Anchor-9" 570 0 basechar 0
AnchorPoint: "Anchor-8" 570 0 basechar 0
AnchorPoint: "Anchor-7" 570 0 basechar 0
AnchorPoint: "Anchor-5" 570 0 basechar 0
AnchorPoint: "Anchor-4" 570 0 basechar 0
AnchorPoint: "Anchor-3" 570 0 basechar 0
AnchorPoint: "Anchor-2" 420 0 basechar 0
AnchorPoint: "Anchor-1" 570 0 basechar 0
AnchorPoint: "Anchor-0" 450 0 basechar 0
LayerCount: 2
Fore
SplineSet
598 545 m 1,0,-1
 481 545 l 1,1,-1
 483 -10 l 1,2,-1
 473 -10 l 1,3,-1
 393 42 l 1,4,-1
 395 293 l 1,5,-1
 219 293 l 1,6,7
 219 235 219 235 213 212 c 128,-1,8
 207 189 207 189 184 189 c 0,9,10
 163 189 163 189 139 202 c 128,-1,11
 115 215 115 215 94.5 236 c 128,-1,12
 74 257 74 257 61 282 c 128,-1,13
 48 307 48 307 48 330 c 0,14,15
 48 358 48 358 70.5 364.5 c 128,-1,16
 93 371 93 371 132 371 c 0,17,18
 150 371 150 371 191 370.5 c 128,-1,19
 232 370 232 370 285.5 368.5 c 128,-1,20
 339 367 339 367 395 366 c 1,21,-1
 397 545 l 1,22,-1
 6 545 l 1,23,-1
 -28 610 l 1,24,-1
 -28 620 l 1,25,-1
 564 620 l 1,26,-1
 598 555 l 1,27,-1
 598 545 l 1,0,-1
EndSplineSet
Substitution2: "'smcp' Lowercase to Small Capitals in Latin lookup 38 subtable" N.sc
EndChar

StartChar: o
Encoding: 111 111 75
Width: 571
GlyphClass: 2
Flags: W
LayerCount: 2
Fore
SplineSet
281 -12 m 0,0,1
 208 -12 208 -12 153.5 19.5 c 128,-1,2
 99 51 99 51 69 106.5 c 128,-1,3
 39 162 39 162 39 234 c 0,4,5
 39 312 39 312 70.5 370 c 128,-1,6
 102 428 102 428 159 460 c 128,-1,7
 216 492 216 492 290 492 c 0,8,9
 363 492 363 492 417 460 c 128,-1,10
 471 428 471 428 501 372 c 128,-1,11
 531 316 531 316 531 245 c 0,12,13
 531 172 531 172 499.5 113.5 c 128,-1,14
 468 55 468 55 412 21.5 c 128,-1,15
 356 -12 356 -12 281 -12 c 0,0,1
152 246 m 0,16,17
 152 144 152 144 185.5 84.5 c 128,-1,18
 219 25 219 25 286 25 c 0,19,20
 350 25 350 25 384 81.5 c 128,-1,21
 418 138 418 138 418 233 c 0,22,23
 418 334 418 334 384 394 c 128,-1,24
 350 454 350 454 285 454 c 0,25,26
 221 454 221 454 186.5 399 c 128,-1,27
 152 344 152 344 152 246 c 0,16,17
EndSplineSet
Substitution2: "'smcp' Lowercase to Small Capitals in Latin lookup 38 subtable" O.sc
EndChar

StartChar: p
Encoding: 112 112 76
Width: 557
GlyphClass: 2
Flags: W
AnchorPoint: "Anchor-22" 520 0 basechar 0
AnchorPoint: "Anchor-21" 549 0 basechar 0
AnchorPoint: "Anchor-20" 539 20 basechar 0
AnchorPoint: "Anchor-11" 343 150 basechar 0
AnchorPoint: "Anchor-10" 557 0 basechar 0
AnchorPoint: "Anchor-9" 557 0 basechar 0
AnchorPoint: "Anchor-8" 557 0 basechar 0
AnchorPoint: "Anchor-7" 557 0 basechar 0
AnchorPoint: "Anchor-5" 557 0 basechar 0
AnchorPoint: "Anchor-4" 557 0 basechar 0
AnchorPoint: "Anchor-3" 557 0 basechar 0
AnchorPoint: "Anchor-2" 417 0 basechar 0
AnchorPoint: "Anchor-1" 557 0 basechar 0
AnchorPoint: "Anchor-0" 407 0 basechar 0
LayerCount: 2
Fore
SplineSet
278 168 m 0,0,1
 239 168 239 168 203 186 c 128,-1,2
 167 204 167 204 138 232 c 128,-1,3
 109 260 109 260 92 291 c 128,-1,4
 75 322 75 322 74 347 c 0,5,6
 73 361 73 361 73 373 c 128,-1,7
 73 385 73 385 73 396 c 0,8,9
 73 428 73 428 73.5 467 c 128,-1,10
 74 506 74 506 74 545 c 1,11,-1
 6 545 l 1,12,-1
 -28 610 l 1,13,-1
 -28 620 l 1,14,-1
 551 620 l 1,15,-1
 585 555 l 1,16,-1
 585 545 l 1,17,-1
 468 545 l 1,18,-1
 470 -10 l 1,19,-1
 460 -10 l 1,20,-1
 380 42 l 1,21,-1
 381 200 l 1,22,23
 328 168 328 168 278 168 c 0,0,1
384 545 m 1,24,-1
 159 545 l 1,25,-1
 161 325 l 2,26,27
 161 277 161 277 183 255 c 128,-1,28
 205 233 205 233 230 233 c 0,29,30
 260 233 260 233 297.5 252 c 128,-1,31
 335 271 335 271 382 304 c 1,32,-1
 384 545 l 1,24,-1
EndSplineSet
Substitution2: "'smcp' Lowercase to Small Capitals in Latin lookup 38 subtable" P.sc
EndChar

StartChar: q
Encoding: 113 113 77
Width: 578
GlyphClass: 2
Flags: W
LayerCount: 2
Fore
SplineSet
306 -266 m 1,0,1
 303 -250 303 -250 306 -235 c 1,2,3
 345 -233 345 -233 363.5 -228 c 128,-1,4
 382 -223 382 -223 387.5 -208.5 c 128,-1,5
 393 -194 393 -194 393 -162 c 2,6,-1
 393 50 l 1,7,8
 358 17 358 17 319.5 2.5 c 128,-1,9
 281 -12 281 -12 241 -12 c 0,10,11
 174 -12 174 -12 129 22 c 128,-1,12
 84 56 84 56 61.5 110 c 128,-1,13
 39 164 39 164 39 225 c 0,14,15
 39 299 39 299 70.5 359.5 c 128,-1,16
 102 420 102 420 159.5 456 c 128,-1,17
 217 492 217 492 295 492 c 0,18,19
 327 492 327 492 358 485 c 128,-1,20
 389 478 389 478 419 461 c 1,21,22
 433 467 433 467 446 474.5 c 128,-1,23
 459 482 459 482 472 490 c 1,24,25
 486 489 486 489 496 482 c 1,26,27
 495 462 495 462 494.5 432 c 128,-1,28
 494 402 494 402 494 363 c 2,29,-1
 494 -150 l 2,30,31
 494 -189 494 -189 498.5 -206 c 128,-1,32
 503 -223 503 -223 519.5 -227.5 c 128,-1,33
 536 -232 536 -232 571 -234 c 1,34,35
 574 -249 574 -249 571 -266 c 1,36,37
 540 -266 540 -266 508.5 -265 c 128,-1,38
 477 -264 477 -264 438 -264 c 0,39,40
 398 -264 398 -264 367.5 -265 c 128,-1,41
 337 -266 337 -266 306 -266 c 1,0,1
394 386 m 1,42,43
 372 420 372 420 344.5 435.5 c 128,-1,44
 317 451 317 451 281 451 c 0,45,46
 214 451 214 451 178.5 400.5 c 128,-1,47
 143 350 143 350 143 260 c 0,48,49
 143 209 143 209 156.5 161 c 128,-1,50
 170 113 170 113 202 82 c 128,-1,51
 234 51 234 51 291 51 c 0,52,53
 319 51 319 51 347.5 60.5 c 128,-1,54
 376 70 376 70 394 91 c 1,55,-1
 394 386 l 1,42,43
EndSplineSet
Substitution2: "'smcp' Lowercase to Small Capitals in Latin lookup 38 subtable" Q.sc
EndChar

StartChar: r
Encoding: 114 114 78
Width: 394
GlyphClass: 2
Flags: W
AnchorPoint: "Anchor-23" 391 0 basechar 0
AnchorPoint: "Anchor-22" 377 0 basechar 0
AnchorPoint: "Anchor-21" 378 0 basechar 0
AnchorPoint: "Anchor-20" 352 60 basechar 0
AnchorPoint: "Anchor-11" 238 168 basechar 0
AnchorPoint: "Anchor-10" 363 -10 basechar 0
AnchorPoint: "Anchor-9" 363 -10 basechar 0
AnchorPoint: "Anchor-8" 473 -10 basechar 0
AnchorPoint: "Anchor-7" 443 -10 basechar 0
AnchorPoint: "Anchor-5" 363 -10 basechar 0
AnchorPoint: "Anchor-4" 434 0 basechar 0
AnchorPoint: "Anchor-3" 360 0 basechar 0
AnchorPoint: "Anchor-2" 360 0 basechar 0
AnchorPoint: "Anchor-1" 360 0 basechar 0
AnchorPoint: "Anchor-0" 360 0 basechar 0
LayerCount: 2
Fore
SplineSet
322 -20 m 1,0,-1
 312 -20 l 1,1,-1
 114 223 l 2,2,3
 77 268 77 268 61.5 296.5 c 128,-1,4
 46 325 46 325 46 342 c 0,5,6
 46 374 46 374 97 374 c 0,7,8
 112 374 112 374 138 372 c 128,-1,9
 164 370 164 370 182 368 c 1,10,11
 187 393 187 393 188.5 425.5 c 128,-1,12
 190 458 190 458 190 482 c 0,13,14
 190 503 190 503 189.5 518 c 128,-1,15
 189 533 189 533 188 545 c 1,16,-1
 6 545 l 1,17,-1
 -28 610 l 1,18,-1
 -28 620 l 1,19,-1
 388 620 l 1,20,-1
 422 555 l 1,21,-1
 422 545 l 1,22,-1
 271 545 l 1,23,24
 272 526 272 526 273 503 c 128,-1,25
 274 480 274 480 274 471 c 0,26,27
 274 389 274 389 262 341 c 128,-1,28
 250 293 250 293 225.5 269 c 128,-1,29
 201 245 201 245 165 237 c 1,30,-1
 373 22 l 1,31,-1
 322 -20 l 1,0,-1
EndSplineSet
Substitution2: "'smcp' Lowercase to Small Capitals in Latin lookup 38 subtable" R.sc
EndChar

StartChar: s
Encoding: 115 115 79
Width: 679
GlyphClass: 2
Flags: W
AnchorPoint: "Anchor-22" 630 0 basechar 0
AnchorPoint: "Anchor-21" 678 0 basechar 0
AnchorPoint: "Anchor-20" 660 21 basechar 0
AnchorPoint: "Anchor-11" 280 90 basechar 0
AnchorPoint: "Anchor-10" 679 0 basechar 0
AnchorPoint: "Anchor-9" 679 0 basechar 0
AnchorPoint: "Anchor-8" 679 -10 basechar 0
AnchorPoint: "Anchor-7" 679 0 basechar 0
AnchorPoint: "Anchor-5" 679 0 basechar 0
AnchorPoint: "Anchor-4" 679 0 basechar 0
AnchorPoint: "Anchor-3" 679 0 basechar 0
AnchorPoint: "Anchor-2" 519 0 basechar 0
AnchorPoint: "Anchor-1" 679 0 basechar 0
AnchorPoint: "Anchor-0" 529 0 basechar 0
LayerCount: 2
Fore
SplineSet
316 -20 m 1,0,-1
 306 -20 l 1,1,-1
 129 196 l 2,2,3
 80 257 80 257 63 288.5 c 128,-1,4
 46 320 46 320 46 342 c 0,5,6
 46 374 46 374 97 374 c 0,7,8
 112 374 112 374 138.5 372 c 128,-1,9
 165 370 165 370 183 368 c 1,10,11
 188 393 188 393 189.5 425.5 c 128,-1,12
 191 458 191 458 191 482 c 0,13,14
 191 504 191 504 190.5 518.5 c 128,-1,15
 190 533 190 533 189 545 c 1,16,-1
 6 545 l 1,17,-1
 -28 610 l 1,18,-1
 -28 620 l 1,19,-1
 673 620 l 1,20,-1
 707 555 l 1,21,-1
 707 545 l 1,22,-1
 590 545 l 1,23,-1
 592 -10 l 1,24,-1
 582 -10 l 1,25,-1
 502 42 l 1,26,-1
 503 239 l 1,27,28
 462 224 462 224 417 224 c 0,29,30
 389 224 389 224 345 235.5 c 128,-1,31
 301 247 301 247 244 293 c 1,32,33
 220 249 220 249 159 237 c 1,34,-1
 367 22 l 1,35,-1
 316 -20 l 1,0,-1
260 333 m 1,36,37
 272 326 272 326 294.5 318.5 c 128,-1,38
 317 311 317 311 342.5 306 c 128,-1,39
 368 301 368 301 391 301 c 0,40,41
 426 301 426 301 457 312.5 c 128,-1,42
 488 324 488 324 504 338 c 1,43,-1
 506 545 l 1,44,-1
 270 545 l 1,45,46
 272 526 272 526 272.5 503 c 128,-1,47
 273 480 273 480 273 471 c 0,48,49
 273 427 273 427 269.5 391 c 128,-1,50
 266 355 266 355 260 333 c 1,36,37
EndSplineSet
Substitution2: "'smcp' Lowercase to Small Capitals in Latin lookup 38 subtable" S.sc
EndChar

StartChar: t
Encoding: 116 116 80
Width: 539
GlyphClass: 2
Flags: W
AnchorPoint: "Anchor-23" 555 0 basechar 0
AnchorPoint: "Anchor-22" 520 0 basechar 0
AnchorPoint: "Anchor-21" 549 0 basechar 0
AnchorPoint: "Anchor-20" 491 60 basechar 0
AnchorPoint: "Anchor-11" 450 40 basechar 0
AnchorPoint: "Anchor-10" 477 0 basechar 0
AnchorPoint: "Anchor-9" 477 0 basechar 0
AnchorPoint: "Anchor-8" 537 0 basechar 0
AnchorPoint: "Anchor-7" 502 0 basechar 0
AnchorPoint: "Anchor-6" 556 0 basechar 0
AnchorPoint: "Anchor-5" 497 0 basechar 0
AnchorPoint: "Anchor-4" 527 0 basechar 0
AnchorPoint: "Anchor-3" 499 0 basechar 0
AnchorPoint: "Anchor-2" 414 0 basechar 0
AnchorPoint: "Anchor-1" 499 0 basechar 0
AnchorPoint: "Anchor-0" 499 0 basechar 0
LayerCount: 2
Fore
SplineSet
567 545 m 1,0,-1
 411 545 l 1,1,2
 411 517 411 517 411.5 483.5 c 128,-1,3
 412 450 412 450 412 419.5 c 128,-1,4
 412 389 412 389 412 368 c 1,5,-1
 400 360 l 1,6,-1
 272 360 l 2,7,8
 208 360 208 360 168.5 330 c 128,-1,9
 129 300 129 300 129 239 c 0,10,11
 129 196 129 196 149.5 167.5 c 128,-1,12
 170 139 170 139 204 125 c 128,-1,13
 238 111 238 111 279 111 c 0,14,15
 333 111 333 111 376.5 132 c 128,-1,16
 420 153 420 153 454 187 c 1,17,-1
 514 126 l 1,18,19
 475 84 475 84 427 60.5 c 128,-1,20
 379 37 379 37 325 37 c 0,21,22
 276 37 276 37 228 56 c 128,-1,23
 180 75 180 75 140.5 109.5 c 128,-1,24
 101 144 101 144 77.5 189.5 c 128,-1,25
 54 235 54 235 54 289 c 0,26,27
 54 346 54 346 81 377.5 c 128,-1,28
 108 409 108 409 156.5 422 c 128,-1,29
 205 435 205 435 269 435 c 2,30,-1
 329 435 l 1,31,-1
 329 545 l 1,32,-1
 6 545 l 1,33,-1
 -28 610 l 1,34,-1
 -28 620 l 1,35,-1
 533 620 l 1,36,-1
 567 555 l 1,37,-1
 567 545 l 1,0,-1
EndSplineSet
Substitution2: "'smcp' Lowercase to Small Capitals in Latin lookup 38 subtable" T.sc
EndChar

StartChar: u
Encoding: 117 117 81
Width: 583
GlyphClass: 2
Flags: W
LayerCount: 2
Fore
SplineSet
226 -12 m 0,0,1
 161 -12 161 -12 125.5 26.5 c 128,-1,2
 90 65 90 65 90 138 c 2,3,-1
 90 340 l 2,4,5
 90 379 90 379 86.5 398 c 128,-1,6
 83 417 83 417 67.5 425 c 128,-1,7
 52 433 52 433 15 438 c 1,8,9
 10 451 10 451 15 463 c 1,10,11
 58 469 58 469 97.5 476 c 128,-1,12
 137 483 137 483 177 493 c 1,13,-1
 192 486 l 1,14,15
 191 455 191 455 190.5 427.5 c 128,-1,16
 190 400 190 400 190 376 c 2,17,-1
 190 174 l 2,18,19
 190 114 190 114 208.5 84.5 c 128,-1,20
 227 55 227 55 281 55 c 0,21,22
 311 55 311 55 337.5 68.5 c 128,-1,23
 364 82 364 82 388 108 c 1,24,-1
 388 340 l 2,25,26
 388 379 388 379 384.5 398 c 128,-1,27
 381 417 381 417 365.5 425 c 128,-1,28
 350 433 350 433 313 438 c 1,29,30
 310 451 310 451 313 463 c 1,31,32
 356 469 356 469 395.5 476 c 128,-1,33
 435 483 435 483 476 493 c 1,34,-1
 491 486 l 1,35,36
 490 455 490 455 489.5 427.5 c 128,-1,37
 489 400 489 400 489 376 c 2,38,-1
 489 117 l 2,39,40
 489 87 489 87 492.5 72 c 128,-1,41
 496 57 496 57 512.5 50.5 c 128,-1,42
 529 44 529 44 567 40 c 1,43,44
 568 28 568 28 567 15 c 1,45,46
 524 11 524 11 485 5 c 128,-1,47
 446 -1 446 -1 409 -10 c 1,48,-1
 393 -3 l 1,49,-1
 391 67 l 1,50,51
 308 -12 308 -12 226 -12 c 0,0,1
EndSplineSet
Substitution2: "'smcp' Lowercase to Small Capitals in Latin lookup 38 subtable" U.sc
EndChar

StartChar: v
Encoding: 118 118 82
Width: 597
GlyphClass: 2
Flags: W
AnchorPoint: "Anchor-22" 520 0 basechar 0
AnchorPoint: "Anchor-21" 549 0 basechar 0
AnchorPoint: "Anchor-20" 539 20 basechar 0
AnchorPoint: "Anchor-11" 357 130 basechar 0
AnchorPoint: "Anchor-10" 597 0 basechar 0
AnchorPoint: "Anchor-9" 597 0 basechar 0
AnchorPoint: "Anchor-8" 597 0 basechar 0
AnchorPoint: "Anchor-7" 597 0 basechar 0
AnchorPoint: "Anchor-5" 597 0 basechar 0
AnchorPoint: "Anchor-4" 597 0 basechar 0
AnchorPoint: "Anchor-3" 597 0 basechar 0
AnchorPoint: "Anchor-2" 427 0 basechar 0
AnchorPoint: "Anchor-1" 597 0 basechar 0
AnchorPoint: "Anchor-0" 437 0 basechar 0
LayerCount: 2
Fore
SplineSet
251 133 m 0,0,1
 199 133 199 133 160 151 c 128,-1,2
 121 169 121 169 94.5 198 c 128,-1,3
 68 227 68 227 54.5 260 c 128,-1,4
 41 293 41 293 41 322 c 0,5,6
 41 364 41 364 66.5 397 c 128,-1,7
 92 430 92 430 134 448.5 c 128,-1,8
 176 467 176 467 225 467 c 0,9,10
 285 467 285 467 335 439 c 128,-1,11
 385 411 385 411 422 368 c 1,12,-1
 424 545 l 1,13,-1
 6 545 l 1,14,-1
 -28 610 l 1,15,-1
 -28 620 l 1,16,-1
 591 620 l 1,17,-1
 625 555 l 1,18,-1
 625 545 l 1,19,-1
 508 545 l 1,20,-1
 510 -10 l 1,21,-1
 500 -10 l 1,22,-1
 420 42 l 1,23,-1
 421 201 l 1,24,25
 386 178 386 178 360 163 c 128,-1,26
 334 148 334 148 308.5 140.5 c 128,-1,27
 283 133 283 133 251 133 c 0,0,1
422 313 m 1,28,29
 390 344 390 344 342.5 366.5 c 128,-1,30
 295 389 295 389 247 389 c 0,31,32
 192 389 192 389 153 360.5 c 128,-1,33
 114 332 114 332 114 279 c 0,34,35
 114 239 114 239 142 218 c 128,-1,36
 170 197 170 197 208 197 c 0,37,38
 245 197 245 197 294 221 c 128,-1,39
 343 245 343 245 422 305 c 1,40,-1
 422 313 l 1,28,29
EndSplineSet
Substitution2: "'smcp' Lowercase to Small Capitals in Latin lookup 38 subtable" V.sc
EndChar

StartChar: w
Encoding: 119 119 83
Width: 764
GlyphClass: 2
Flags: W
LayerCount: 2
Fore
SplineSet
538 4 m 1,0,-1
 490 -6 l 1,1,-1
 387 278 l 1,2,3
 358 210 358 210 329.5 144.5 c 128,-1,4
 301 79 301 79 272 5 c 1,5,-1
 217 -6 l 1,6,-1
 69 385 l 2,7,8
 61 407 61 407 52.5 418.5 c 128,-1,9
 44 430 44 430 29 436 c 128,-1,10
 14 442 14 442 -13 445 c 1,11,12
 -15 459 -15 459 -13 477 c 1,13,14
 16 477 16 477 47 476 c 128,-1,15
 78 475 78 475 111 475 c 0,16,17
 139 475 139 475 172 476 c 128,-1,18
 205 477 205 477 227 477 c 1,19,20
 228 461 228 461 227 445 c 1,21,22
 195 443 195 443 182 438 c 128,-1,23
 169 433 169 433 169 418 c 256,24,25
 169 403 169 403 179 376 c 0,26,27
 202 312 202 312 225.5 248 c 128,-1,28
 249 184 249 184 276 117 c 1,29,-1
 368 330 l 1,30,-1
 348 385 l 2,31,32
 340 407 340 407 333 418.5 c 128,-1,33
 326 430 326 430 313 436 c 128,-1,34
 300 442 300 442 274 445 c 1,35,36
 272 459 272 459 274 477 c 1,37,38
 303 477 303 477 332 476 c 128,-1,39
 361 475 361 475 392 475 c 0,40,41
 418 475 418 475 449 476 c 128,-1,42
 480 477 480 477 502 477 c 1,43,44
 505 461 505 461 502 445 c 1,45,46
 469 443 469 443 456 438 c 128,-1,47
 443 433 443 433 443 418 c 256,48,49
 443 403 443 403 453 376 c 0,50,51
 476 312 476 312 497 248 c 128,-1,52
 518 184 518 184 543 117 c 1,53,54
 572 183 572 183 599 246 c 128,-1,55
 626 309 626 309 650 373 c 0,56,57
 655 387 655 387 658.5 398 c 128,-1,58
 662 409 662 409 662 416 c 0,59,60
 662 430 662 430 649.5 436 c 128,-1,61
 637 442 637 442 602 445 c 1,62,63
 601 461 601 461 602 477 c 1,64,65
 626 477 626 477 651 476 c 128,-1,66
 676 475 676 475 705 475 c 0,67,68
 731 475 731 475 747 475.5 c 128,-1,69
 763 476 763 476 786 477 c 1,70,71
 788 460 788 460 786 445 c 1,72,73
 745 442 745 442 729.5 426.5 c 128,-1,74
 714 411 714 411 700 380 c 2,75,-1
 538 4 l 1,0,-1
EndSplineSet
Substitution2: "'smcp' Lowercase to Small Capitals in Latin lookup 38 subtable" W.sc
EndChar

StartChar: x
Encoding: 120 120 84
Width: 520
GlyphClass: 2
Flags: W
LayerCount: 2
Fore
SplineSet
272 -1 m 1,0,1
 269 14 269 14 272 30 c 1,2,3
 304 32 304 32 315 35.5 c 128,-1,4
 326 39 326 39 326 46 c 0,5,6
 326 50 326 50 321 60 c 128,-1,7
 316 70 316 70 308 82 c 0,8,9
 291 108 291 108 274 134.5 c 128,-1,10
 257 161 257 161 236 192 c 1,11,12
 211 160 211 160 186.5 128 c 128,-1,13
 162 96 162 96 142 68 c 0,14,15
 139 64 139 64 136 59 c 128,-1,16
 133 54 133 54 133 49 c 0,17,18
 133 41 133 41 146.5 36.5 c 128,-1,19
 160 32 160 32 194 30 c 1,20,21
 197 14 197 14 194 -1 c 1,22,23
 169 -1 169 -1 142 0 c 128,-1,24
 115 1 115 1 91 1 c 0,25,26
 65 1 65 1 42 0 c 128,-1,27
 19 -1 19 -1 -4 -1 c 1,28,29
 -7 16 -7 16 -4 30 c 1,30,31
 27 34 27 34 44 40.5 c 128,-1,32
 61 47 61 47 74.5 59.5 c 128,-1,33
 88 72 88 72 105 94 c 2,34,-1
 212 229 l 1,35,36
 189 263 189 263 161 304.5 c 128,-1,37
 133 346 133 346 104 388 c 0,38,39
 92 407 92 407 81 418 c 128,-1,40
 70 429 70 429 54 435.5 c 128,-1,41
 38 442 38 442 9 445 c 1,42,43
 6 459 6 459 9 477 c 1,44,45
 38 477 38 477 66.5 476 c 128,-1,46
 95 475 95 475 131 475 c 0,47,48
 160 475 160 475 198 476 c 128,-1,49
 236 477 236 477 259 477 c 1,50,51
 262 461 262 461 259 445 c 1,52,53
 228 443 228 443 216.5 439.5 c 128,-1,54
 205 436 205 436 205 428 c 0,55,56
 205 424 205 424 208.5 417 c 128,-1,57
 212 410 212 410 217 402 c 0,58,59
 234 375 234 375 250.5 349 c 128,-1,60
 267 323 267 323 284 297 c 1,61,62
 309 328 309 328 329.5 355.5 c 128,-1,63
 350 383 350 383 367 408 c 0,64,65
 375 419 375 419 375 426 c 0,66,67
 375 435 375 435 362.5 438.5 c 128,-1,68
 350 442 350 442 319 445 c 1,69,70
 316 461 316 461 319 477 c 1,71,72
 343 477 343 477 369 476 c 128,-1,73
 395 475 395 475 418 475 c 0,74,75
 444 475 444 475 465 476 c 128,-1,76
 486 477 486 477 510 477 c 1,77,78
 513 463 513 463 510 445 c 1,79,80
 481 442 481 442 464.5 435 c 128,-1,81
 448 428 448 428 435.5 415.5 c 128,-1,82
 423 403 423 403 405 382 c 0,83,84
 390 363 390 363 364.5 332 c 128,-1,85
 339 301 339 301 308 261 c 1,86,87
 333 223 333 223 359 185 c 128,-1,88
 385 147 385 147 426 88 c 0,89,90
 440 69 440 69 450.5 57.5 c 128,-1,91
 461 46 461 46 476.5 40 c 128,-1,92
 492 34 492 34 521 30 c 1,93,94
 524 16 524 16 521 -1 c 1,95,96
 490 -1 490 -1 459.5 0 c 128,-1,97
 429 1 429 1 397 1 c 0,98,99
 366 1 366 1 330.5 0 c 128,-1,100
 295 -1 295 -1 272 -1 c 1,0,1
EndSplineSet
Substitution2: "'smcp' Lowercase to Small Capitals in Latin lookup 38 subtable" X.sc
EndChar

StartChar: y
Encoding: 121 121 85
Width: 582
GlyphClass: 2
Flags: W
AnchorPoint: "Anchor-22" 520 0 basechar 0
AnchorPoint: "Anchor-21" 549 0 basechar 0
AnchorPoint: "Anchor-20" 539 20 basechar 0
AnchorPoint: "Anchor-11" 393 139 basechar 0
AnchorPoint: "Anchor-10" 582 0 basechar 0
AnchorPoint: "Anchor-9" 582 0 basechar 0
AnchorPoint: "Anchor-8" 582 0 basechar 0
AnchorPoint: "Anchor-7" 582 0 basechar 0
AnchorPoint: "Anchor-5" 582 0 basechar 0
AnchorPoint: "Anchor-4" 582 0 basechar 0
AnchorPoint: "Anchor-3" 582 0 basechar 0
AnchorPoint: "Anchor-2" 432 0 basechar 0
AnchorPoint: "Anchor-1" 582 0 basechar 0
AnchorPoint: "Anchor-0" 442 0 basechar 0
LayerCount: 2
Fore
SplineSet
289 136 m 0,0,1
 230 136 230 136 177.5 167.5 c 128,-1,2
 125 199 125 199 88.5 252 c 128,-1,3
 52 305 52 305 40 371 c 1,4,5
 118 390 118 390 154.5 412.5 c 128,-1,6
 191 435 191 435 191 469 c 0,7,8
 191 482 191 482 184.5 502 c 128,-1,9
 178 522 178 522 162 545 c 1,10,-1
 6 545 l 1,11,-1
 -28 610 l 1,12,-1
 -28 620 l 1,13,-1
 576 620 l 1,14,-1
 610 555 l 1,15,-1
 610 545 l 1,16,-1
 493 545 l 1,17,-1
 495 -10 l 1,18,-1
 485 -10 l 1,19,-1
 405 42 l 1,20,-1
 406 172 l 1,21,22
 376 152 376 152 346 144 c 128,-1,23
 316 136 316 136 289 136 c 0,0,1
409 545 m 1,24,-1
 217 545 l 1,25,26
 263 475 263 475 263 426 c 0,27,28
 263 388 263 388 231.5 359 c 128,-1,29
 200 330 200 330 127 310 c 1,30,31
 128 280 128 280 144.5 254.5 c 128,-1,32
 161 229 161 229 188.5 214 c 128,-1,33
 216 199 216 199 250 199 c 256,34,35
 284 199 284 199 323 216 c 128,-1,36
 362 233 362 233 407 270 c 1,37,-1
 409 545 l 1,24,-1
EndSplineSet
Substitution2: "'smcp' Lowercase to Small Capitals in Latin lookup 38 subtable" Y.sc
EndChar

StartChar: z
Encoding: 122 122 86
Width: 735
GlyphClass: 2
Flags: W
AnchorPoint: "Anchor-22" 630 0 basechar 0
AnchorPoint: "Anchor-20" 661 20 basechar 0
AnchorPoint: "Anchor-11" 437 80 basechar 0
AnchorPoint: "Anchor-10" 735 0 basechar 0
AnchorPoint: "Anchor-9" 735 0 basechar 0
AnchorPoint: "Anchor-8" 735 0 basechar 0
AnchorPoint: "Anchor-7" 735 0 basechar 0
AnchorPoint: "Anchor-5" 735 0 basechar 0
AnchorPoint: "Anchor-4" 735 0 basechar 0
AnchorPoint: "Anchor-3" 735 0 basechar 0
AnchorPoint: "Anchor-2" 565 0 basechar 0
AnchorPoint: "Anchor-1" 735 0 basechar 0
AnchorPoint: "Anchor-0" 565 0 basechar 0
LayerCount: 2
Fore
SplineSet
325 85 m 0,0,1
 274 85 274 85 230.5 110.5 c 128,-1,2
 187 136 187 136 150 179.5 c 128,-1,3
 113 223 113 223 81.5 278 c 128,-1,4
 50 333 50 333 22 393 c 1,5,-1
 63 411 l 1,6,7
 115 302 115 302 173 234 c 128,-1,8
 231 166 231 166 298 166 c 0,9,10
 339 166 339 166 362 189.5 c 128,-1,11
 385 213 385 213 385 246 c 0,12,13
 385 278 385 278 360.5 308.5 c 128,-1,14
 336 339 336 339 287 361 c 1,15,-1
 260 419 l 1,16,-1
 260 430 l 1,17,-1
 561 430 l 1,18,-1
 562 545 l 1,19,-1
 6 545 l 1,20,-1
 -28 610 l 1,21,-1
 -28 620 l 1,22,-1
 729 620 l 1,23,-1
 763 555 l 1,24,-1
 763 545 l 1,25,-1
 646 545 l 1,26,-1
 648 -10 l 1,27,-1
 638 -10 l 1,28,-1
 558 42 l 1,29,-1
 560 355 l 1,30,-1
 383 355 l 1,31,32
 423 314 423 314 443.5 280 c 128,-1,33
 464 246 464 246 464 208 c 0,34,35
 464 169 464 169 444.5 141.5 c 128,-1,36
 425 114 425 114 393.5 99.5 c 128,-1,37
 362 85 362 85 325 85 c 0,0,1
EndSplineSet
Substitution2: "'smcp' Lowercase to Small Capitals in Latin lookup 38 subtable" Z.sc
EndChar

StartChar: oacute
Encoding: 243 243 107
Width: 267
GlyphClass: 2
Flags: W
AnchorPoint: "Anchor-4" 357 0 basechar 0
AnchorPoint: "Anchor-3" 383 0 basechar 0
AnchorPoint: "Anchor-2" 267 100 basechar 0
AnchorPoint: "Anchor-0" 412 0 basechar 0
LayerCount: 2
Fore
SplineSet
295 545 m 1,0,-1
 178 545 l 1,1,-1
 180 -15 l 1,2,-1
 170 -15 l 1,3,-1
 90 37 l 1,4,-1
 94 545 l 1,5,-1
 6 545 l 1,6,-1
 -28 610 l 1,7,-1
 -28 620 l 1,8,-1
 94 620 l 1,9,-1
 96 812 l 1,10,-1
 106 812 l 1,11,-1
 177 756 l 1,12,-1
 178 620 l 1,13,-1
 261 620 l 1,14,-1
 295 555 l 1,15,-1
 295 545 l 1,0,-1
EndSplineSet
Substitution2: "'smcp' Lowercase to Small Capitals in Latin lookup 38 subtable" Oacute.sc
Ligature2: "'ccmp' Glyph Composition/Decomposition in Latin lookup 29 subtable" o acutecomb
EndChar

StartChar: ocircumflex
Encoding: 244 244 108
Width: 0
GlyphClass: 2
Flags: W
AnchorPoint: "Anchor-29" 100 -200 basemark 0
AnchorPoint: "Anchor-28" 0 -179 basemark 0
AnchorPoint: "Anchor-27" 90 -170 basemark 0
AnchorPoint: "Anchor-26" 45 -179 basemark 0
AnchorPoint: "Anchor-25" 0 -179 basemark 0
AnchorPoint: "Anchor-24" 91 -148 basemark 0
AnchorPoint: "Anchor-11" 0 0 mark 0
LayerCount: 2
Fore
SplineSet
-131 -40 m 1,0,-1
 -61 -110 l 1,1,-1
 -131 -178 l 1,2,-1
 -200 -110 l 1,3,-1
 -131 -40 l 1,0,-1
EndSplineSet
Substitution2: "'smcp' Lowercase to Small Capitals in Latin lookup 38 subtable" Ocircumflex.sc
Ligature2: "'ccmp' Glyph Composition/Decomposition in Latin lookup 29 subtable" o circumflexcomb
EndChar

StartChar: otilde
Encoding: 245 245 109
Width: 496
GlyphClass: 2
Flags: W
AnchorPoint: "Anchor-0" 400 0 basechar 0
LayerCount: 2
Fore
SplineSet
441 545 m 1,0,-1
 263 545 l 2,1,2
 226 545 226 545 201.5 535.5 c 128,-1,3
 177 526 177 526 177 497 c 0,4,5
 177 470 177 470 199.5 446 c 128,-1,6
 222 422 222 422 254 400 c 128,-1,7
 286 378 286 378 314 357 c 0,8,9
 345 335 345 335 376 309 c 128,-1,10
 407 283 407 283 428 251.5 c 128,-1,11
 449 220 449 220 449 178 c 0,12,13
 449 135 449 135 427.5 101.5 c 128,-1,14
 406 68 406 68 369 48.5 c 128,-1,15
 332 29 332 29 285 29 c 0,16,17
 241 29 241 29 205 46.5 c 128,-1,18
 169 64 169 64 140.5 91.5 c 128,-1,19
 112 119 112 119 90 151 c 128,-1,20
 68 183 68 183 52 211 c 1,21,-1
 90 233 l 1,22,23
 133 161 133 161 169.5 131.5 c 128,-1,24
 206 102 206 102 250 102 c 0,25,26
 300 102 300 102 334 128.5 c 128,-1,27
 368 155 368 155 368 210 c 0,28,29
 368 237 368 237 353.5 258.5 c 128,-1,30
 339 280 339 280 308 304 c 128,-1,31
 277 328 277 328 227 362 c 0,32,33
 181 394 181 394 151 417.5 c 128,-1,34
 121 441 121 441 106.5 466 c 128,-1,35
 92 491 92 491 92 524 c 0,36,37
 92 568 92 568 130.5 594 c 128,-1,38
 169 620 169 620 239 620 c 2,39,-1
 407 620 l 1,40,-1
 441 555 l 1,41,-1
 441 545 l 1,0,-1
EndSplineSet
Substitution2: "'smcp' Lowercase to Small Capitals in Latin lookup 38 subtable" Otilde.sc
Ligature2: "'ccmp' Glyph Composition/Decomposition in Latin lookup 29 subtable" o tildecomb
EndChar

StartChar: odieresis
Encoding: 246 246 110
Width: 267
GlyphClass: 2
Flags: W
AnchorPoint: "Anchor-4" 357 0 basechar 0
AnchorPoint: "Anchor-3" 267 0 basechar 0
AnchorPoint: "Anchor-2" 267 0 basechar 0
AnchorPoint: "Anchor-0" 267 0 basechar 0
LayerCount: 2
Fore
SplineSet
295 545 m 1,0,-1
 178 545 l 1,1,-1
 180 -15 l 1,2,-1
 170 -15 l 1,3,-1
 90 37 l 1,4,-1
 94 545 l 1,5,-1
 6 545 l 1,6,-1
 -28 610 l 1,7,-1
 -28 620 l 1,8,-1
 261 620 l 1,9,-1
 295 555 l 1,10,-1
 295 545 l 1,0,-1
EndSplineSet
Substitution2: "'smcp' Lowercase to Small Capitals in Latin lookup 38 subtable" Odieresis.sc
Ligature2: "'ccmp' Glyph Composition/Decomposition in Latin lookup 29 subtable" o dieresiscomb
EndChar

StartChar: oslash
Encoding: 248 248 111
Width: 267
GlyphClass: 2
Flags: W
AnchorPoint: "Anchor-4" 357 0 basechar 0
AnchorPoint: "Anchor-3" 348 0 basechar 0
AnchorPoint: "Anchor-2" 303 50 basechar 0
AnchorPoint: "Anchor-0" 369 30 basechar 0
LayerCount: 2
Fore
SplineSet
180 -15 m 1,0,-1
 170 -15 l 1,1,-1
 90 37 l 1,2,-1
 94 545 l 1,3,-1
 6 545 l 1,4,-1
 -28 610 l 1,5,-1
 -28 620 l 1,6,-1
 101 620 l 1,7,8
 94 687 94 687 71 727 c 128,-1,9
 48 767 48 767 15.5 785 c 128,-1,10
 -17 803 -17 803 -52 803 c 0,11,12
 -98 803 -98 803 -123 778.5 c 128,-1,13
 -148 754 -148 754 -148 716 c 0,14,15
 -148 690 -148 690 -134 659 c 1,16,-1
 -164 642 l 1,17,18
 -189 668 -189 668 -201.5 697.5 c 128,-1,19
 -214 727 -214 727 -214 756 c 0,20,21
 -214 806 -214 806 -179 843 c 128,-1,22
 -144 880 -144 880 -79 880 c 0,23,24
 -22 880 -22 880 27.5 848.5 c 128,-1,25
 77 817 77 817 113.5 758.5 c 128,-1,26
 150 700 150 700 167 620 c 1,27,-1
 261 620 l 1,28,-1
 295 555 l 1,29,-1
 295 545 l 1,30,-1
 178 545 l 1,31,-1
 180 -15 l 1,0,-1
EndSplineSet
Substitution2: "'smcp' Lowercase to Small Capitals in Latin lookup 38 subtable" Oslash.sc
EndChar

StartChar: germandbls
Encoding: 223 223 112
Width: 614
GlyphClass: 2
Flags: W
LayerCount: 2
Fore
SplineSet
33 -1 m 1,0,1
 31 14 31 14 33 31 c 1,2,3
 80 36 80 36 100 40.5 c 128,-1,4
 120 45 120 45 125 60.5 c 128,-1,5
 130 76 130 76 130 111 c 2,6,-1
 130 576 l 2,7,8
 130 618 130 618 125 636 c 128,-1,9
 120 654 120 654 99.5 659.5 c 128,-1,10
 79 665 79 665 33 669 c 1,11,12
 31 684 31 684 33 701 c 1,13,14
 54 701 54 701 82.5 700.5 c 128,-1,15
 111 700 111 700 139 699.5 c 128,-1,16
 167 699 167 699 185 699 c 0,17,18
 204 699 204 699 232.5 699.5 c 128,-1,19
 261 700 261 700 290.5 700.5 c 128,-1,20
 320 701 320 701 339 701 c 1,21,22
 342 686 342 686 339 669 c 1,23,24
 292 665 292 665 271 660 c 128,-1,25
 250 655 250 655 245 640 c 128,-1,26
 240 625 240 625 240 589 c 2,27,-1
 240 124 l 2,28,29
 240 90 240 90 240.5 69.5 c 128,-1,30
 241 49 241 49 242 42 c 1,31,-1
 384 42 l 2,32,33
 467 42 467 42 507 79 c 0,34,35
 540 111 540 111 576 191 c 1,36,37
 592 194 592 194 607 191 c 1,38,39
 595 130 595 130 587.5 81.5 c 128,-1,40
 580 33 580 33 575 0 c 1,41,42
 478 0 478 0 381.5 0.5 c 128,-1,43
 285 1 285 1 188 1 c 0,44,45
 169 1 169 1 140 0.5 c 128,-1,46
 111 0 111 0 82 -0.5 c 128,-1,47
 53 -1 53 -1 33 -1 c 1,0,1
EndSplineSet
EndChar

StartChar: ugrave
Encoding: 249 249 113
Width: 0
GlyphClass: 2
Flags: W
AnchorPoint: "Anchor-26" 0 0 mark 0
AnchorPoint: "Anchor-17" 0 0 mark 0
AnchorPoint: "Anchor-15" 0 -248 basemark 0
AnchorPoint: "Anchor-7" 0 0 mark 0
LayerCount: 2
Fore
SplineSet
-202 -139 m 1,0,-1
 -256 -77 l 1,1,2
 -232 -55 -232 -55 -206 -42 c 128,-1,3
 -180 -29 -180 -29 -147 -29 c 0,4,5
 -106 -29 -106 -29 -72 -49 c 128,-1,6
 -38 -69 -38 -69 -18 -101 c 128,-1,7
 2 -133 2 -133 2 -169 c 0,8,9
 2 -219 2 -219 -35.5 -249 c 128,-1,10
 -73 -279 -73 -279 -125 -279 c 0,11,12
 -172 -279 -172 -279 -220 -257 c 128,-1,13
 -268 -235 -268 -235 -311.5 -202 c 128,-1,14
 -355 -169 -355 -169 -389.5 -135.5 c 128,-1,15
 -424 -102 -424 -102 -443 -80 c 1,16,-1
 -408 -37 l 1,17,-1
 -401 -37 l 1,18,19
 -350 -101 -350 -101 -309.5 -139 c 128,-1,20
 -269 -177 -269 -177 -233 -194 c 128,-1,21
 -197 -211 -197 -211 -160 -211 c 0,22,23
 -112 -211 -112 -211 -85.5 -189.5 c 128,-1,24
 -59 -168 -59 -168 -59 -138 c 0,25,26
 -59 -113 -59 -113 -74.5 -102 c 128,-1,27
 -90 -91 -90 -91 -111 -91 c 0,28,29
 -140 -91 -140 -91 -162.5 -108 c 128,-1,30
 -185 -125 -185 -125 -202 -139 c 1,0,-1
EndSplineSet
Substitution2: "'smcp' Lowercase to Small Capitals in Latin lookup 38 subtable" Ugrave.sc
Ligature2: "'ccmp' Glyph Composition/Decomposition in Latin lookup 29 subtable" u gravecomb
EndChar

StartChar: uacute
Encoding: 250 250 114
Width: 0
GlyphClass: 2
Flags: W
AnchorPoint: "Anchor-28" 0 0 mark 0
AnchorPoint: "Anchor-19" 0 0 mark 0
AnchorPoint: "Anchor-15" 89 -249 basemark 0
AnchorPoint: "Anchor-9" 0 0 mark 0
LayerCount: 2
Fore
SplineSet
124 -286 m 1,0,1
 106 -262 106 -262 80 -230 c 128,-1,2
 54 -198 54 -198 21.5 -167.5 c 128,-1,3
 -11 -137 -11 -137 -48 -117 c 128,-1,4
 -85 -97 -85 -97 -125 -97 c 256,5,6
 -165 -97 -165 -97 -188.5 -117.5 c 128,-1,7
 -212 -138 -212 -138 -212 -167 c 0,8,9
 -212 -190 -212 -190 -198 -204 c 128,-1,10
 -184 -218 -184 -218 -160 -218 c 0,11,12
 -135 -218 -135 -218 -113 -204.5 c 128,-1,13
 -91 -191 -91 -191 -72 -175 c 1,14,-1
 -21 -241 l 1,15,16
 -42 -259 -42 -259 -67.5 -269.5 c 128,-1,17
 -93 -280 -93 -280 -123 -280 c 0,18,19
 -166 -280 -166 -280 -200 -259 c 128,-1,20
 -234 -238 -234 -238 -253.5 -204.5 c 128,-1,21
 -273 -171 -273 -171 -273 -136 c 0,22,23
 -273 -89 -273 -89 -241 -59 c 128,-1,24
 -209 -29 -209 -29 -160 -29 c 0,25,26
 -115 -29 -115 -29 -65.5 -53 c 128,-1,27
 -16 -77 -16 -77 30 -112.5 c 128,-1,28
 76 -148 76 -148 112.5 -184 c 128,-1,29
 149 -220 149 -220 168 -245 c 1,30,-1
 131 -286 l 1,31,-1
 124 -286 l 1,0,1
EndSplineSet
Substitution2: "'smcp' Lowercase to Small Capitals in Latin lookup 38 subtable" Uacute.sc
Ligature2: "'ccmp' Glyph Composition/Decomposition in Latin lookup 29 subtable" u acutecomb
EndChar

StartChar: ucircumflex
Encoding: 251 251 115
Width: 1000
GlyphClass: 2
Flags: W
AnchorPoint: "Anchor-4" 357 0 basechar 0
AnchorPoint: "Anchor-3" 323 0 basechar 0
AnchorPoint: "Anchor-2" 307 0 basechar 0
AnchorPoint: "Anchor-0" 338 30 basechar 0
LayerCount: 2
Fore
SplineSet
295 545 m 1,0,-1
 178 545 l 1,1,-1
 180 -15 l 1,2,-1
 170 -15 l 1,3,-1
 90 37 l 1,4,-1
 94 545 l 1,5,-1
 6 545 l 1,6,-1
 -28 610 l 1,7,-1
 -28 620 l 1,8,-1
 105 620 l 1,9,10
 62 694 62 694 32 737 c 0,11,12
 -1 782 -1 782 -26 800.5 c 128,-1,13
 -51 819 -51 819 -79 819 c 0,14,15
 -95 819 -95 819 -123.5 816 c 128,-1,16
 -152 813 -152 813 -175 808 c 1,17,-1
 -221 893 l 1,18,-1
 -220 900 l 1,19,20
 -181 907 -181 907 -153 909 c 128,-1,21
 -125 911 -125 911 -116 911 c 0,22,23
 -65 911 -65 911 -21 873 c 128,-1,24
 23 835 23 835 68 767 c 0,25,26
 110 703 110 703 159 620 c 1,27,-1
 261 620 l 1,28,-1
 295 555 l 1,29,-1
 295 545 l 1,0,-1
EndSplineSet
Substitution2: "'smcp' Lowercase to Small Capitals in Latin lookup 38 subtable" Ucircumflex.sc
Ligature2: "'ccmp' Glyph Composition/Decomposition in Latin lookup 29 subtable" u circumflexcomb
EndChar

StartChar: udieresis
Encoding: 252 252 116
Width: 267
GlyphClass: 2
Flags: W
AnchorPoint: "Anchor-4" 357 0 basechar 0
AnchorPoint: "Anchor-3" 340 0 basechar 0
AnchorPoint: "Anchor-2" 346 0 basechar 0
AnchorPoint: "Anchor-0" 344 30 basechar 0
LayerCount: 2
Fore
SplineSet
295 545 m 1,0,-1
 178 545 l 1,1,-1
 180 -15 l 1,2,-1
 170 -15 l 1,3,-1
 90 37 l 1,4,-1
 94 545 l 1,5,-1
 6 545 l 1,6,-1
 -28 610 l 1,7,-1
 -28 620 l 1,8,-1
 79 620 l 1,9,10
 47 662 47 662 22 684 c 0,11,12
 -6 708 -6 708 -28 716 c 128,-1,13
 -50 724 -50 724 -70 724 c 0,14,15
 -94 724 -94 724 -118.5 720.5 c 128,-1,16
 -143 717 -143 717 -171 711 c 1,17,-1
 -213 788 l 1,18,-1
 -212 795 l 1,19,20
 -167 804 -167 804 -144.5 806.5 c 128,-1,21
 -122 809 -122 809 -109 809 c 0,22,23
 -69 809 -69 809 -37 791 c 128,-1,24
 -5 773 -5 773 32.5 731.5 c 128,-1,25
 70 690 70 690 124 620 c 1,26,-1
 127 620 l 1,27,28
 85 703 85 703 57.5 754.5 c 128,-1,29
 30 806 30 806 9.5 833 c 128,-1,30
 -11 860 -11 860 -31 869.5 c 128,-1,31
 -51 879 -51 879 -78 879 c 0,32,33
 -99 879 -99 879 -121.5 876 c 128,-1,34
 -144 873 -144 873 -162 869 c 1,35,-1
 -204 947 l 1,36,-1
 -203 954 l 1,37,38
 -177 958 -177 958 -150.5 961 c 128,-1,39
 -124 964 -124 964 -107 964 c 0,40,41
 -49 964 -49 964 -7.5 925 c 128,-1,42
 34 886 34 886 75 808 c 0,43,44
 114 733 114 733 166 620 c 1,45,-1
 261 620 l 1,46,-1
 295 555 l 1,47,-1
 295 545 l 1,0,-1
EndSplineSet
Substitution2: "'smcp' Lowercase to Small Capitals in Latin lookup 38 subtable" Udieresis.sc
Ligature2: "'ccmp' Glyph Composition/Decomposition in Latin lookup 29 subtable" u dieresiscomb
EndChar

StartChar: ampersand
Encoding: 38 38 121
Width: 751
GlyphClass: 2
Flags: W
LayerCount: 2
Fore
SplineSet
597 -4 m 0,0,1
 555 -4 555 -4 525.5 17 c 128,-1,2
 496 38 496 38 457 88 c 1,3,4
 416 35 416 35 365 8 c 128,-1,5
 314 -19 314 -19 252 -19 c 0,6,7
 193 -19 193 -19 143.5 4.5 c 128,-1,8
 94 28 94 28 64.5 72 c 128,-1,9
 35 116 35 116 35 176 c 0,10,11
 35 226 35 226 57 266.5 c 128,-1,12
 79 307 79 307 115.5 337.5 c 128,-1,13
 152 368 152 368 197 390 c 1,14,15
 166 422 166 422 145 456.5 c 128,-1,16
 124 491 124 491 124 536 c 0,17,18
 124 584 124 584 148.5 618.5 c 128,-1,19
 173 653 173 653 213.5 672 c 128,-1,20
 254 691 254 691 302 691 c 0,21,22
 343 691 343 691 378 676 c 128,-1,23
 413 661 413 661 434.5 631.5 c 128,-1,24
 456 602 456 602 456 559 c 0,25,26
 456 505 456 505 419 466 c 128,-1,27
 382 427 382 427 317 401 c 1,28,29
 345 373 345 373 377.5 338 c 128,-1,30
 410 303 410 303 440 268 c 128,-1,31
 470 233 470 233 493 204 c 1,32,33
 562 309 562 309 562 350 c 0,34,35
 562 375 562 375 539 381 c 128,-1,36
 516 387 516 387 481 389 c 1,37,38
 478 405 478 405 481 420 c 1,39,40
 507 420 507 420 538.5 419 c 128,-1,41
 570 418 570 418 607 418 c 0,42,43
 642 418 642 418 667 419 c 128,-1,44
 692 420 692 420 715 420 c 1,45,46
 718 405 718 405 715 389 c 1,47,48
 690 387 690 387 671.5 382.5 c 128,-1,49
 653 378 653 378 639 365 c 0,50,51
 628 354 628 354 611.5 327.5 c 128,-1,52
 595 301 595 301 575 264 c 0,53,54
 563 244 563 244 548.5 219.5 c 128,-1,55
 534 195 534 195 518 171 c 1,56,57
 557 121 557 121 590 86.5 c 128,-1,58
 623 52 623 52 659 52 c 0,59,60
 670 52 670 52 687 56 c 128,-1,61
 704 60 704 60 720 68 c 1,62,63
 725 62 725 62 727.5 54 c 128,-1,64
 730 46 730 46 731 40 c 1,65,66
 673 -4 673 -4 597 -4 c 0,0,1
431 122 m 1,67,68
 400 163 400 163 369.5 200.5 c 128,-1,69
 339 238 339 238 304 277.5 c 128,-1,70
 269 317 269 317 223 363 c 1,71,72
 185 341 185 341 161.5 303 c 128,-1,73
 138 265 138 265 138 211 c 0,74,75
 138 138 138 138 180.5 93 c 128,-1,76
 223 48 223 48 294 48 c 0,77,78
 338 48 338 48 368.5 66.5 c 128,-1,79
 399 85 399 85 431 122 c 1,67,68
292 426 m 1,80,81
 371 464 371 464 371 554 c 0,82,83
 371 599 371 599 352 626 c 128,-1,84
 333 653 333 653 297 653 c 0,85,86
 264 653 264 653 243 629.5 c 128,-1,87
 222 606 222 606 222 565 c 0,88,89
 222 525 222 525 241 491.5 c 128,-1,90
 260 458 260 458 292 426 c 1,80,81
EndSplineSet
Substitution2: "'c2sc' Capitals to Small Capitals in Latin lookup 37 subtable" ampersand.sc
EndChar

StartChar: grave
Encoding: 96 96 122
Width: 360
GlyphClass: 2
Flags: W
LayerCount: 2
Fore
SplineSet
81 742 m 1,0,-1
 81 746 l 1,1,2
 116 752 116 752 155 752 c 0,3,4
 184 752 184 752 189 747 c 2,5,-1
 238 551 l 1,6,7
 232 549 232 549 223 548 c 0,8,9
 214 547 214 547 209 548 c 2,10,-1
 81 742 l 1,0,-1
EndSplineSet
EndChar

StartChar: dieresis
Encoding: 168 168 123
Width: 705
GlyphClass: 2
Flags: W
LayerCount: 2
Fore
SplineSet
576.891601562 289.443359375 m 6,0,1
 576.891601562 346.95703125 576.891601562 346.95703125 550.157226562 368.577148438 c 4,2,3
 523.0703125 390.8125 523.0703125 390.8125 521.0703125 390.8125 c 132,-1,4
 519.0703125 390.8125 519.0703125 390.8125 501.409179688 386.041992188 c 4,5,6
 484.0703125 380.8125 484.0703125 380.8125 468.185546875 373.084960938 c 4,7,8
 442.0703125 358.8125 442.0703125 358.8125 439.279296875 354.494140625 c 4,9,10
 432.0703125 343.8125 432.0703125 343.8125 420.337890625 332.243164062 c 5,11,-1
 420.337890625 156.190429688 l 5,12,13
 410.0703125 151.8125 410.0703125 151.8125 392.4609375 149.711914062 c 4,14,15
 375.0703125 147.8125 375.0703125 147.8125 360 147.740234375 c 5,16,-1
 360 577 l 5,17,18
 373.0703125 581.8125 373.0703125 581.8125 388.641601562 584.322265625 c 132,-1,19
 404.0703125 586.8125 404.0703125 586.8125 420.337890625 586.576171875 c 5,20,-1
 420.337890625 393.916015625 l 5,21,22
 429.0703125 405.8125 429.0703125 405.8125 440.806640625 413.6328125 c 4,23,24
 456.0703125 423.8125 456.0703125 423.8125 474.67578125 432.223632812 c 4,25,26
 506.0703125 445.8125 506.0703125 445.8125 516.303710938 446.024414062 c 4,27,28
 562.0703125 446.8125 562.0703125 446.8125 564.802734375 451.375976562 c 4,29,30
 565.0703125 451.8125 565.0703125 451.8125 600.94921875 423.7734375 c 4,31,32
 637.229492188 395.689453125 637.229492188 395.689453125 637.229492188 344.905273438 c 6,33,-1
 637.229492188 156.190429688 l 5,34,35
 626.0703125 151.8125 626.0703125 151.8125 609.350585938 149.711914062 c 4,36,37
 592.0703125 147.8125 592.0703125 147.8125 576.891601562 147.740234375 c 5,38,-1
 576.891601562 289.443359375 l 6,0,1
567 582 m 1,39,40
 559 567 559 567 540 554 c 128,-1,41
 521 541 521 541 494 537 c 1,42,43
 489 561 489 561 477.5 586.5 c 128,-1,44
 466 612 466 612 444.5 633 c 128,-1,45
 423 654 423 654 390.5 668 c 0,46,47
 348 686 348 686 311 682 c 0,48,49
 272 665.5 l 0,50,51
 230 649 230 649 212.5 613 c 128,-1,52
 195 577 195 577 173.5 519.5 c 128,-1,53
 152 462 152 462 152 380 c 0,54,55
 152 299 152 299 174 236 c 128,-1,56
 196 173 196 173 217.5 130.5 c 128,-1,57
 239 88 239 88 289.5 66 c 128,-1,58
 340 44 340 44 353 44 c 0,59,60
 420 44 420 44 466.5 66.5 c 128,-1,61
 513 89 513 89 545 126 c 1,62,63
 551 124 551 124 559 118 c 128,-1,64
 567 112 567 112 569 106 c 1,65,66
 561 92 561 92 543 71 c 128,-1,67
 525 50 525 50 494.5 30.5 c 128,-1,68
 464 11 464 11 418.5 -3.5 c 128,-1,69
 373 -18 373 -18 310 -18 c 0,70,71
 293 -18 293 -18 251.5 4.5 c 128,-1,72
 210 27 210 27 165 72.5 c 128,-1,73
 120 118 120 118 93 186.5 c 128,-1,74
 66 255 66 255 66 346 c 0,75,76
 66 426 66 426 95 496.5 c 128,-1,77
 124 567 124 567 157 619 c 128,-1,78
 190 671 190 671 255.5 701 c 128,-1,79
 321 731 321 731 350 731 c 0,80,81
 410 731 410 731 451.5 714 c 128,-1,82
 493 697 493 697 518.5 673 c 128,-1,83
 544 649 544 649 555.5 623.5 c 128,-1,84
 567 598 567 598 567 582 c 1,39,40
EndSplineSet
EndChar

StartChar: comma
Encoding: 44 44 124
Width: 297
GlyphClass: 2
Flags: W
LayerCount: 2
Fore
SplineSet
167 23 m 1,0,1
 150 10 150 10 129 10 c 0,2,3
 107 10 107 10 89 26.5 c 128,-1,4
 71 43 71 43 71 72 c 0,5,6
 71 103 71 103 92 123 c 128,-1,7
 113 143 113 143 146 143 c 0,8,9
 189 143 189 143 211 108 c 128,-1,10
 233 73 233 73 233 25 c 0,11,12
 233 -35 233 -35 198 -94.5 c 128,-1,13
 163 -154 163 -154 90 -189 c 1,14,-1
 73 -160 l 1,15,16
 122 -133 122 -133 149 -97 c 128,-1,17
 176 -61 176 -61 176 -17 c 0,18,19
 176 -10 176 -10 174.5 1 c 128,-1,20
 173 12 173 12 167 23 c 1,0,1
EndSplineSet
EndChar

StartChar: period
Encoding: 46 46 127
Width: 297
GlyphClass: 2
Flags: W
LayerCount: 2
Fore
SplineSet
75 62 m 256,0,1
 75 93 75 93 96 114.5 c 128,-1,2
 117 136 117 136 147 136 c 0,3,4
 181 136 181 136 201.5 113.5 c 128,-1,5
 222 91 222 91 222 62 c 0,6,7
 222 32 222 32 201.5 10 c 128,-1,8
 181 -12 181 -12 147 -12 c 0,9,10
 117 -12 117 -12 96 9.5 c 128,-1,11
 75 31 75 31 75 62 c 256,0,1
EndSplineSet
EndChar

StartChar: exclam
Encoding: 33 33 128
Width: 319
GlyphClass: 2
Flags: W
LayerCount: 2
Fore
SplineSet
243 655 m 2,0,-1
 191 207 l 1,1,2
 173 205 173 205 155 207 c 1,3,-1
 101 654 l 2,4,5
 101 681 101 681 121 696 c 128,-1,6
 141 711 141 711 173 711 c 0,7,8
 204 711 204 711 223.5 696.5 c 128,-1,9
 243 682 243 682 243 655 c 2,0,-1
100 60 m 256,10,11
 100 91 100 91 120.5 112 c 128,-1,12
 141 133 141 133 171 133 c 0,13,14
 204 133 204 133 224 111 c 128,-1,15
 244 89 244 89 244 60 c 256,16,17
 244 31 244 31 224 9.5 c 128,-1,18
 204 -12 204 -12 171 -12 c 0,19,20
 141 -12 141 -12 120.5 8.5 c 128,-1,21
 100 29 100 29 100 60 c 256,10,11
EndSplineSet
EndChar

StartChar: question
Encoding: 63 63 129
Width: 412
GlyphClass: 2
Flags: W
LayerCount: 2
Fore
SplineSet
148 202 m 1,0,-1
 128 395 l 1,1,2
 144 394 144 394 150 394 c 128,-1,3
 156 394 156 394 157 394 c 0,4,5
 228 394 228 394 264.5 399.5 c 128,-1,6
 301 405 301 405 314.5 420 c 128,-1,7
 328 435 328 435 328 461 c 0,8,9
 328 511 328 511 297 559 c 128,-1,10
 266 607 266 607 214 632 c 1,11,12
 170 607 170 607 131 607 c 0,13,14
 103 607 103 607 84 620 c 128,-1,15
 65 633 65 633 65 657 c 256,16,17
 65 681 65 681 85.5 696 c 128,-1,18
 106 711 106 711 137 711 c 0,19,20
 172 711 172 711 210.5 692 c 128,-1,21
 249 673 249 673 284 641 c 128,-1,22
 319 609 319 609 342 570 c 0,23,24
 359 541 359 541 368 508.5 c 128,-1,25
 377 476 377 476 377 437 c 0,26,27
 377 359 377 359 335 328 c 128,-1,28
 293 297 293 297 193 297 c 1,29,-1
 185 202 l 1,30,31
 167 200 167 200 148 202 c 1,0,-1
167 -12 m 0,32,33
 136 -12 136 -12 115.5 8.5 c 128,-1,34
 95 29 95 29 95 60 c 256,35,36
 95 91 95 91 115.5 112 c 128,-1,37
 136 133 136 133 167 133 c 0,38,39
 199 133 199 133 219 111 c 128,-1,40
 239 89 239 89 239 60 c 256,41,42
 239 31 239 31 219 9.5 c 128,-1,43
 199 -12 199 -12 167 -12 c 0,32,33
EndSplineSet
EndChar

StartChar: questiondown
Encoding: 191 191 130
Width: 532
GlyphClass: 2
Flags: W
AnchorPoint: "Anchor-23" 555 0 basechar 0
AnchorPoint: "Anchor-22" 520 0 basechar 0
AnchorPoint: "Anchor-21" 549 0 basechar 0
AnchorPoint: "Anchor-20" 516 40 basechar 0
AnchorPoint: "Anchor-11" 278 -47 basechar 0
AnchorPoint: "Anchor-10" 462 -50 basechar 0
AnchorPoint: "Anchor-9" 462 -50 basechar 0
AnchorPoint: "Anchor-8" 536 -77 basechar 0
AnchorPoint: "Anchor-7" 536 -83 basechar 0
AnchorPoint: "Anchor-5" 536 -158 basechar 0
AnchorPoint: "Anchor-4" 536 -133 basechar 0
AnchorPoint: "Anchor-3" 534 0 basechar 0
AnchorPoint: "Anchor-2" 394 0 basechar 0
AnchorPoint: "Anchor-1" 534 0 basechar 0
AnchorPoint: "Anchor-0" 534 0 basechar 0
LayerCount: 2
Fore
SplineSet
440 -121 m 1,0,-1
 429 -164 l 1,1,2
 309 -134 309 -134 236 -91 c 128,-1,3
 163 -48 163 -48 129.5 2 c 128,-1,4
 96 52 96 52 96 103 c 256,5,6
 96 154 96 154 125 198 c 1,7,8
 94 224 94 224 71.5 262.5 c 128,-1,9
 49 301 49 301 49 341 c 0,10,11
 49 394 49 394 92.5 427 c 128,-1,12
 136 460 136 460 229 460 c 2,13,-1
 364 460 l 1,14,-1
 364 545 l 1,15,-1
 6 545 l 1,16,-1
 -28 610 l 1,17,-1
 -28 620 l 1,18,-1
 526 620 l 1,19,-1
 560 555 l 1,20,-1
 560 545 l 1,21,-1
 446 545 l 1,22,23
 446 507 446 507 446.5 465.5 c 128,-1,24
 447 424 447 424 447 393 c 1,25,-1
 435 385 l 1,26,-1
 247 385 l 2,27,28
 188 385 188 385 155 366 c 128,-1,29
 122 347 122 347 122 306 c 0,30,31
 122 286 122 286 132 266.5 c 128,-1,32
 142 247 142 247 155 234 c 1,33,34
 187 263 187 263 229.5 280 c 128,-1,35
 272 297 272 297 319 297 c 256,36,37
 366 297 366 297 398.5 281.5 c 128,-1,38
 431 266 431 266 450.5 242 c 128,-1,39
 470 218 470 218 479 192 c 128,-1,40
 488 166 488 166 488 145 c 0,41,42
 488 62 488 62 383 18 c 1,43,-1
 336 85 l 1,44,45
 369 101 369 101 393.5 124.5 c 128,-1,46
 418 148 418 148 418 183 c 0,47,48
 418 212 418 212 398 225.5 c 128,-1,49
 378 239 378 239 343 239 c 0,50,51
 296 239 296 239 258.5 216.5 c 128,-1,52
 221 194 221 194 199.5 158.5 c 128,-1,53
 178 123 178 123 178 84 c 0,54,55
 178 49 178 49 201 11.5 c 128,-1,56
 224 -26 224 -26 281.5 -60 c 128,-1,57
 339 -94 339 -94 440 -121 c 1,0,-1
EndSplineSet
Substitution2: "'case' Case-Sensitive Forms in Latin lookup 30 subtable" questiondown.case
EndChar

StartChar: slash
Encoding: 47 47 131
Width: 377
GlyphClass: 2
Flags: W
LayerCount: 2
Fore
SplineSet
363 748 m 1,0,-1
 33 -177 l 1,1,-1
 -29 -177 l 1,2,-1
 298 748 l 1,3,-1
 363 748 l 1,0,-1
EndSplineSet
Substitution2: "'frac' Diagonal Fractions in Latin lookup 34 subtable" fraction
EndChar

StartChar: backslash
Encoding: 92 92 132
Width: 377
GlyphClass: 2
Flags: W
LayerCount: 2
Fore
SplineSet
342 -177 m 1,0,-1
 14 748 l 1,1,-1
 79 748 l 1,2,-1
 406 -177 l 1,3,-1
 342 -177 l 1,0,-1
EndSplineSet
EndChar

StartChar: bar
Encoding: 124 124 133
Width: 304
GlyphClass: 2
Flags: W
LayerCount: 2
Fore
SplineSet
178 -262 m 1,0,-1
 126 -262 l 1,1,-1
 126 790 l 1,2,-1
 178 790 l 1,3,-1
 178 -262 l 1,0,-1
EndSplineSet
EndChar

StartChar: parenleft
Encoding: 40 40 134
Width: 397
GlyphClass: 2
Flags: W
LayerCount: 2
Fore
SplineSet
300 754 m 1,0,-1
 322 732 l 1,1,2
 148 594 148 594 148 285 c 0,3,4
 148 -25 148 -25 322 -163 c 1,5,-1
 300 -184 l 1,6,7
 60 -13 60 -13 60 287 c 0,8,9
 60 438 60 438 120 555.5 c 128,-1,10
 180 673 180 673 300 754 c 1,0,-1
EndSplineSet
Substitution2: "'case' Case-Sensitive Forms in Latin lookup 30 subtable" parenleft.case
EndChar

StartChar: parenright
Encoding: 41 41 135
Width: 397
GlyphClass: 2
Flags: W
LayerCount: 2
Fore
SplineSet
97 -184 m 1,0,-1
 75 -162 l 1,1,2
 249 -24 249 -24 249 285 c 0,3,4
 249 595 249 595 75 733 c 1,5,-1
 97 754 l 1,6,7
 337 583 337 583 337 283 c 0,8,9
 337 132 337 132 277 14.5 c 128,-1,10
 217 -103 217 -103 97 -184 c 1,0,-1
EndSplineSet
Substitution2: "'case' Case-Sensitive Forms in Latin lookup 30 subtable" parenright.case
EndChar

StartChar: bracketleft
Encoding: 91 91 136
Width: 409
GlyphClass: 2
Flags: W
LayerCount: 2
Fore
SplineSet
329 -183 m 1,0,-1
 100 -183 l 1,1,-1
 100 753 l 1,2,-1
 329 753 l 1,3,-1
 329 710 l 1,4,-1
 172 710 l 1,5,-1
 172 -140 l 1,6,-1
 329 -140 l 1,7,-1
 329 -183 l 1,0,-1
EndSplineSet
Substitution2: "'case' Case-Sensitive Forms in Latin lookup 30 subtable" bracketleft.case
EndChar

StartChar: bracketright
Encoding: 93 93 137
Width: 409
GlyphClass: 2
Flags: W
LayerCount: 2
Fore
SplineSet
80 753 m 1,0,-1
 309 753 l 1,1,-1
 309 -183 l 1,2,-1
 80 -183 l 1,3,-1
 80 -140 l 1,4,-1
 236 -140 l 1,5,-1
 236 710 l 1,6,-1
 80 710 l 1,7,-1
 80 753 l 1,0,-1
EndSplineSet
Substitution2: "'case' Case-Sensitive Forms in Latin lookup 30 subtable" bracketright.case
EndChar

StartChar: braceleft
Encoding: 123 123 138
Width: 395
GlyphClass: 2
Flags: W
LayerCount: 2
Fore
SplineSet
118 288 m 1,0,-1
 118 284 l 1,1,2
 162 275 162 275 183.5 257.5 c 128,-1,3
 205 240 205 240 212 213 c 128,-1,4
 219 186 219 186 219 146 c 2,5,-1
 219 -45 l 2,6,7
 219 -101 219 -101 240.5 -129 c 128,-1,8
 262 -157 262 -157 315 -157 c 1,9,-1
 315 -191 l 1,10,11
 252 -191 252 -191 212 -176.5 c 128,-1,12
 172 -162 172 -162 152.5 -124.5 c 128,-1,13
 133 -87 133 -87 133 -19 c 2,14,-1
 133 171 l 2,15,16
 133 208 133 208 125 228 c 128,-1,17
 117 248 117 248 98 257.5 c 128,-1,18
 79 267 79 267 45 272 c 1,19,-1
 45 300 l 1,20,21
 79 305 79 305 98 314.5 c 128,-1,22
 117 324 117 324 125 344 c 128,-1,23
 133 364 133 364 133 401 c 2,24,-1
 133 590 l 2,25,26
 133 658 133 658 152.5 695 c 128,-1,27
 172 732 172 732 212 746.5 c 128,-1,28
 252 761 252 761 315 761 c 1,29,-1
 315 726 l 1,30,31
 262 726 262 726 240.5 698.5 c 128,-1,32
 219 671 219 671 219 616 c 2,33,-1
 219 425 l 2,34,35
 219 386 219 386 212 358.5 c 128,-1,36
 205 331 205 331 183.5 314 c 128,-1,37
 162 297 162 297 118 288 c 1,0,-1
EndSplineSet
Substitution2: "'case' Case-Sensitive Forms in Latin lookup 30 subtable" braceleft.case
EndChar

StartChar: braceright
Encoding: 125 125 139
Width: 395
GlyphClass: 2
Flags: W
LayerCount: 2
Fore
SplineSet
277 284 m 1,0,-1
 277 288 l 1,1,2
 234 297 234 297 212 314 c 128,-1,3
 190 331 190 331 183 358.5 c 128,-1,4
 176 386 176 386 176 425 c 2,5,-1
 176 616 l 2,6,7
 176 671 176 671 154.5 698.5 c 128,-1,8
 133 726 133 726 80 726 c 1,9,-1
 80 761 l 1,10,11
 143 761 143 761 183 746.5 c 128,-1,12
 223 732 223 732 242.5 695 c 128,-1,13
 262 658 262 658 262 590 c 2,14,-1
 262 401 l 2,15,16
 262 364 262 364 270 344 c 128,-1,17
 278 324 278 324 297.5 314.5 c 128,-1,18
 317 305 317 305 350 300 c 1,19,-1
 350 272 l 1,20,21
 317 267 317 267 297.5 257.5 c 128,-1,22
 278 248 278 248 270 228 c 128,-1,23
 262 208 262 208 262 171 c 2,24,-1
 262 -19 l 2,25,26
 262 -87 262 -87 242.5 -124.5 c 128,-1,27
 223 -162 223 -162 183 -176.5 c 128,-1,28
 143 -191 143 -191 80 -191 c 1,29,-1
 80 -157 l 1,30,31
 133 -157 133 -157 154.5 -129 c 128,-1,32
 176 -101 176 -101 176 -45 c 2,33,-1
 176 146 l 2,34,35
 176 186 176 186 183 213 c 128,-1,36
 190 240 190 240 212 257.5 c 128,-1,37
 234 275 234 275 277 284 c 1,0,-1
EndSplineSet
Substitution2: "'case' Case-Sensitive Forms in Latin lookup 30 subtable" braceright.case
EndChar

StartChar: quotesingle
Encoding: 39 39 140
Width: 239
GlyphClass: 2
Flags: W
LayerCount: 2
Fore
SplineSet
179 674 m 2,0,-1
 134 418 l 1,1,-1
 103 418 l 1,2,-1
 60 674 l 2,3,4
 60 691 60 691 78.5 701 c 128,-1,5
 97 711 97 711 119 711 c 256,6,7
 141 711 141 711 160 701 c 128,-1,8
 179 691 179 691 179 674 c 2,0,-1
EndSplineSet
EndChar

StartChar: asterisk
Encoding: 42 42 142
Width: 458
GlyphClass: 2
Flags: W
LayerCount: 2
Fore
SplineSet
106 358 m 0,0,1
 75 358 75 358 75 388 c 0,2,3
 75 402 75 402 81.5 421 c 128,-1,4
 88 440 88 440 101 447 c 0,5,6
 115 454 115 454 145 468.5 c 128,-1,7
 175 483 175 483 207 508 c 1,8,9
 175 518 175 518 151 521 c 128,-1,10
 127 524 127 524 111 525 c 0,11,12
 100 526 100 526 92 527 c 128,-1,13
 84 528 84 528 79 530 c 0,14,15
 62 539 62 539 51 556 c 128,-1,16
 40 573 40 573 40 588 c 0,17,18
 40 604 40 604 54 612 c 128,-1,19
 68 620 68 620 84 620 c 0,20,21
 98 620 98 620 108.5 617 c 128,-1,22
 119 614 119 614 129 604 c 0,23,24
 141 592 141 592 160.5 571 c 128,-1,25
 180 550 180 550 216 526 c 1,26,27
 216 556 216 556 211 583 c 128,-1,28
 206 610 206 610 202 627 c 0,29,30
 200 635 200 635 199 640.5 c 128,-1,31
 198 646 198 646 198 649 c 0,32,33
 198 658 198 658 205 673 c 128,-1,34
 212 688 212 688 223.5 699.5 c 128,-1,35
 235 711 235 711 249 711 c 0,36,37
 266 711 266 711 277.5 691 c 128,-1,38
 289 671 289 671 289 648 c 0,39,40
 289 638 289 638 279 619 c 128,-1,41
 269 600 269 600 256 575 c 128,-1,42
 243 550 243 550 235 523 c 1,43,44
 274 535 274 535 297.5 548 c 128,-1,45
 321 561 321 561 335 570 c 128,-1,46
 349 579 349 579 362 579 c 0,47,48
 385 579 385 579 404 568 c 128,-1,49
 423 557 423 557 423 541 c 0,50,51
 423 529 423 529 412.5 517 c 128,-1,52
 402 505 402 505 388 497 c 128,-1,53
 374 489 374 489 361 489 c 0,54,55
 357 489 357 489 350 490 c 128,-1,56
 343 491 343 491 334 493 c 0,57,58
 317 497 317 497 292.5 500.5 c 128,-1,59
 268 504 268 504 239 504 c 1,60,61
 269 463 269 463 295.5 440.5 c 128,-1,62
 322 418 322 418 326 411 c 0,63,64
 335 392 335 392 335 372 c 0,65,66
 335 356 335 356 327 343.5 c 128,-1,67
 319 331 319 331 305 331 c 0,68,69
 289 331 289 331 269 345.5 c 128,-1,70
 249 360 249 360 244 379 c 0,71,72
 241 393 241 393 237 424.5 c 128,-1,73
 233 456 233 456 222 493 c 1,74,75
 189 450 189 450 177 417 c 128,-1,76
 165 384 165 384 160 379 c 0,77,78
 149 369 149 369 134.5 363.5 c 128,-1,79
 120 358 120 358 106 358 c 0,0,1
EndSplineSet
EndChar

StartChar: hyphen
Encoding: 45 45 143
Width: 353
GlyphClass: 2
Flags: W
LayerCount: 2
Fore
SplineSet
307 213 m 1,0,-1
 43 213 l 1,1,2
 42 252 42 252 43 291 c 1,3,-1
 307 291 l 1,4,5
 309 253 309 253 307 213 c 1,0,-1
EndSplineSet
Substitution2: "'case' Case-Sensitive Forms in Latin lookup 30 subtable" hyphen.case
EndChar

StartChar: guillemotleft
Encoding: 171 171 144
Width: 721
GlyphClass: 2
Flags: W
LayerCount: 2
Fore
SplineSet
438.9609375 91.484375 m 5,0,1
 437.97265625 102.428710938 437.97265625 102.428710938 438.9609375 112.688476562 c 5,2,3
 454.290039062 114.055664062 454.290039062 114.055664062 461.708007812 117.134765625 c 132,-1,4
 469.125976562 120.211914062 469.125976562 120.211914062 471.59765625 130.471679688 c 132,-1,5
 474.0703125 140.732421875 474.0703125 140.732421875 474.0703125 163.303710938 c 6,6,-1
 474.0703125 301.471679688 l 6,7,8
 474.0703125 342.51171875 474.0703125 342.51171875 464.921875 362.690429688 c 132,-1,9
 455.7734375 382.8671875 455.7734375 382.8671875 428.577148438 382.8671875 c 4,10,11
 414.235351562 382.8671875 414.235351562 382.8671875 400.884765625 375.686523438 c 132,-1,12
 387.533203125 368.50390625 387.533203125 368.50390625 372.203125 349.3515625 c 5,13,-1
 372.203125 170.14453125 l 6,14,15
 372.203125 143.467773438 372.203125 143.467773438 374.4296875 131.83984375 c 132,-1,16
 376.654296875 120.211914062 376.654296875 120.211914062 383.82421875 117.134765625 c 132,-1,17
 390.994140625 114.055664062 390.994140625 114.055664062 406.32421875 112.688476562 c 5,18,19
 408.796875 102.428710938 408.796875 102.428710938 406.32421875 91.484375 c 5,20,21
 393.9609375 91.484375 393.9609375 91.484375 379.126953125 92.16796875 c 132,-1,22
 364.291015625 92.8515625 364.291015625 92.8515625 345.995117188 92.8515625 c 260,23,24
 327.698242188 92.8515625 327.698242188 92.8515625 313.357421875 92.16796875 c 132,-1,25
 299.017578125 91.484375 299.017578125 91.484375 284.182617188 91.484375 c 5,26,27
 282.69921875 102.428710938 282.69921875 102.428710938 284.182617188 112.688476562 c 5,28,29
 300.995117188 114.055664062 300.995117188 114.055664062 308.907226562 117.134765625 c 132,-1,30
 316.819335938 120.211914062 316.819335938 120.211914062 319.291992188 130.471679688 c 132,-1,31
 321.764648438 140.732421875 321.764648438 140.732421875 321.764648438 163.303710938 c 6,32,-1
 321.764648438 492.9921875 l 6,33,34
 321.764648438 512.828125 321.764648438 512.828125 321.26953125 524.797851562 c 132,-1,35
 320.775390625 536.767578125 320.775390625 536.767578125 316.819335938 543.607421875 c 4,36,37
 312.86328125 551.1328125 312.86328125 551.1328125 305.446289062 554.209960938 c 132,-1,38
 298.028320312 557.288085938 298.028320312 557.288085938 281.7109375 559.33984375 c 5,39,40
 280.2265625 568.232421875 280.2265625 568.232421875 281.7109375 577.807617188 c 5,41,42
 301.489257812 581.228515625 301.489257812 581.228515625 321.764648438 588.41015625 c 132,-1,43
 342.0390625 595.591796875 342.0390625 595.591796875 364.78515625 608.587890625 c 5,44,-1
 373.192382812 604.484375 l 5,45,46
 372.697265625 589.436523438 372.697265625 589.436523438 372.450195312 570.626953125 c 132,-1,47
 372.203125 551.815429688 372.203125 551.815429688 372.203125 529.244140625 c 6,48,-1
 372.203125 377.396484375 l 5,49,50
 394.456054688 406.123046875 394.456054688 406.123046875 415.965820312 417.41015625 c 132,-1,51
 437.4765625 428.696289062 437.4765625 428.696289062 457.256835938 428.696289062 c 4,52,53
 489.89453125 428.696289062 489.89453125 428.696289062 507.202148438 402.01953125 c 132,-1,54
 524.509765625 375.34375 524.509765625 375.34375 524.509765625 325.412109375 c 6,55,-1
 524.509765625 170.14453125 l 6,56,57
 524.509765625 143.467773438 524.509765625 143.467773438 526.734375 131.83984375 c 132,-1,58
 528.9609375 120.211914062 528.9609375 120.211914062 536.376953125 117.134765625 c 132,-1,59
 543.794921875 114.055664062 543.794921875 114.055664062 560.11328125 112.688476562 c 5,60,61
 561.1015625 102.428710938 561.1015625 102.428710938 560.11328125 91.484375 c 5,62,63
 545.278320312 91.484375 545.278320312 91.484375 531.185546875 92.16796875 c 132,-1,64
 517.091796875 92.8515625 517.091796875 92.8515625 498.30078125 92.8515625 c 4,65,66
 480.004882812 92.8515625 480.004882812 92.8515625 466.405273438 92.16796875 c 132,-1,67
 452.806640625 91.484375 452.806640625 91.484375 438.9609375 91.484375 c 5,0,1
666 207 m 1,68,69
 654 119 654 119 648 28 c 1,70,71
 593 12 593 12 536 -1 c 128,-1,72
 479 -14 479 -14 414 -14 c 0,73,74
 303 -14 303 -14 221.5 30 c 128,-1,75
 140 74 140 74 95 153.5 c 128,-1,76
 50 233 50 233 50 341 c 0,77,78
 50 450 50 450 95 533.5 c 128,-1,79
 140 617 140 617 222 664 c 128,-1,80
 304 711 304 711 415 711 c 0,81,82
 456 711 456 711 487 706 c 128,-1,83
 518 701 518 701 562 691 c 0,84,85
 582 687 582 687 597 683 c 128,-1,86
 612 679 612 679 628 679 c 0,87,88
 633 679 633 679 639 679.5 c 128,-1,89
 645 680 645 680 649 681 c 1,90,91
 651 637 651 637 653 590 c 128,-1,92
 655 543 655 543 659 492 c 1,93,94
 639 489 639 489 625 490 c 1,95,96
 586 671 586 671 420 671 c 0,97,98
 353 671 353 671 306 644.5 c 128,-1,99
 259 618 259 618 230 572.5 c 128,-1,100
 201 527 201 527 188 470 c 128,-1,101
 175 413 175 413 175 351 c 0,102,103
 175 263 175 263 201 189 c 128,-1,104
 227 115 227 115 283 71 c 128,-1,105
 339 27 339 27 427 27 c 0,106,107
 510 27 510 27 559.5 71 c 128,-1,108
 609 115 609 115 631 208 c 1,109,110
 639 208 639 208 647.5 208 c 128,-1,111
 656 208 656 208 666 207 c 1,68,69
EndSplineSet
Substitution2: "'case' Case-Sensitive Forms in Latin lookup 30 subtable" guillemotleft.case
EndChar

StartChar: section
Encoding: 167 167 145
Width: 705
GlyphClass: 2
Flags: W
LayerCount: 2
Fore
SplineSet
571.040039062 273.169921875 m 6,0,1
 571.040039062 309.973416077 571.040039062 309.973416077 545.83984375 326.705078125 c 4,2,3
 522 343 522 343 521.559570312 343.690429688 c 4,4,5
 505 344 505 344 488.440429688 340.03515625 c 132,-1,6
 472 336 472 336 457.120117188 330.14453125 c 4,7,8
 442 324 442 324 429.400390625 315.955078125 c 4,9,10
 416 308 416 308 406.360351562 298.969726562 c 5,11,-1
 406.360351562 232.450195312 l 5,12,13
 396 229 396 229 380.080078125 227.504882812 c 132,-1,14
 364 226 364 226 349.48046875 226 c 5,15,-1
 349.48046875 435.66015625 l 5,16,17
 362 440 362 440 376.48046875 441.25 c 4,18,19
 391 443 391 443 406.360351562 442.969726562 c 5,20,-1
 406.360351562 323.91015625 l 5,21,22
 416 331 416 331 430.83984375 338.959960938 c 4,23,24
 445 347 445 347 463.240234375 353.150390625 c 4,25,26
 481 360 481 360 502.48046875 363.684570312 c 4,27,28
 524 368 524 368 548.200195312 367.76953125 c 4,29,30
 560 368 560 368 593.719726562 346.700195312 c 4,31,32
 627.919921875 326.048355298 627.919921875 326.048355298 627.919921875 286.5 c 6,33,-1
 627.919921875 232.450195312 l 5,34,35
 618 229 618 229 601.639648438 227.504882812 c 4,36,37
 585 226 585 226 571.040039062 226 c 5,38,-1
 571.040039062 273.169921875 l 6,0,1
647 582 m 1,39,40
 639 567 639 567 620 554 c 128,-1,41
 601 541 601 541 574 537 c 1,42,43
 569 561 569 561 557.5 586.5 c 128,-1,44
 546 612 546 612 524.5 633 c 128,-1,45
 503 654 503 654 470.5 668 c 128,-1,46
 438 682 438 682 391 682 c 0,47,48
 349 682 349 682 307 665.5 c 128,-1,49
 265 649 265 649 231 613 c 128,-1,50
 197 577 197 577 175.5 519.5 c 128,-1,51
 154 462 154 462 154 380 c 0,52,53
 154 299 154 299 176 236 c 128,-1,54
 198 173 198 173 236 130.5 c 128,-1,55
 274 88 274 88 324.5 66 c 128,-1,56
 375 44 375 44 433 44 c 0,57,58
 500 44 500 44 546.5 66.5 c 128,-1,59
 593 89 593 89 625 126 c 1,60,61
 631 124 631 124 639 118 c 128,-1,62
 647 112 647 112 649 106 c 1,63,64
 641 92 641 92 623 71 c 128,-1,65
 605 50 605 50 574.5 30.5 c 128,-1,66
 544 11 544 11 498.5 -3.5 c 128,-1,67
 453 -18 453 -18 390 -18 c 0,68,69
 328 -18 328 -18 270 4.5 c 128,-1,70
 212 27 212 27 167 72.5 c 128,-1,71
 122 118 122 118 95 186.5 c 128,-1,72
 68 255 68 255 68 346 c 0,73,74
 68 426 68 426 97 496.5 c 128,-1,75
 126 567 126 567 175.5 619 c 128,-1,76
 225 671 225 671 290.5 701 c 128,-1,77
 356 731 356 731 430 731 c 0,78,79
 490 731 490 731 531.5 714 c 128,-1,80
 573 697 573 697 598.5 673 c 128,-1,81
 624 649 624 649 635.5 623.5 c 128,-1,82
 647 598 647 598 647 582 c 1,39,40
EndSplineSet
EndChar

StartChar: asciicircum
Encoding: 94 94 146
Width: 584
GlyphClass: 2
Flags: W
LayerCount: 2
Fore
SplineSet
75 348 m 1,0,-1
 273 711 l 1,1,2
 281 712 281 712 292 711.5 c 128,-1,3
 303 711 303 711 311 710 c 1,4,-1
 509 348 l 1,5,6
 499 343 499 343 487.5 337.5 c 128,-1,7
 476 332 476 332 465 327 c 1,8,-1
 292 642 l 1,9,-1
 119 327 l 1,10,11
 109 332 109 332 97 337.5 c 128,-1,12
 85 343 85 343 75 348 c 1,0,-1
EndSplineSet
EndChar

StartChar: asciitilde
Encoding: 126 126 147
Width: 581
GlyphClass: 2
Flags: W
LayerCount: 2
Fore
SplineSet
529 287 m 1,0,1
 531 263 531 263 529 238 c 1,2,3
 501 216 501 216 472.5 207 c 128,-1,4
 444 198 444 198 415 198 c 0,5,6
 383 198 383 198 351.5 207 c 128,-1,7
 320 216 320 216 292 226 c 0,8,9
 258 239 258 239 226.5 248 c 128,-1,10
 195 257 195 257 166 257 c 256,11,12
 137 257 137 257 109 249 c 128,-1,13
 81 241 81 241 52 218 c 1,14,15
 47 241 47 241 52 266 c 1,16,17
 81 289 81 289 109 298 c 128,-1,18
 137 307 137 307 166 307 c 0,19,20
 198 307 198 307 229 297.5 c 128,-1,21
 260 288 260 288 291 277 c 0,22,23
 339 260 339 260 366 253.5 c 128,-1,24
 393 247 393 247 415 247 c 0,25,26
 444 247 444 247 472.5 255.5 c 128,-1,27
 501 264 501 264 529 287 c 1,0,1
EndSplineSet
EndChar

StartChar: brokenbar
Encoding: 166 166 148
Width: 705
GlyphClass: 2
Flags: W
LayerCount: 2
Fore
SplineSet
541.66015625 174.150390625 m 6,0,1
 541.66015625 251.518619088 541.66015625 251.518619088 538.709960938 292.424804688 c 4,2,3
 536 330 536 330 523.370117188 329.950195312 c 4,4,5
 511 330 511 330 497.41015625 321.875 c 4,6,7
 484 314 484 314 471.745117188 300.025390625 c 4,8,9
 460 286 460 286 462.3046875 268.674804688 c 4,10,11
 465 251 465 251 456.700195312 231.150390625 c 5,12,-1
 456.700195312 194.099609375 l 5,13,14
 448 186 448 186 435.165039062 183.174804688 c 4,15,16
 422 180 422 180 410.08984375 179.849609375 c 5,17,-1
 410.08984375 477.25 l 5,18,19
 420 486 420 486 432.21484375 489.599609375 c 4,20,21
 444 493 444 493 456.700195312 493.400390625 c 5,22,-1
 456.700195312 317.599609375 l 5,23,24
 465 334 465 334 463.485351562 350.849609375 c 4,25,26
 461.925116184 381.469613359 461.925116184 381.469613359 476.759765625 382.200195312 c 4,27,28
 494.377461883 376.980568093 494.377461883 376.980568093 508.915039062 383.474609375 c 4,29,30
 528 392 528 392 529.26953125 392.5 c 4,31,32
 545.462411064 392.956639924 545.462411064 392.956639924 560.245117188 367.950195312 c 4,33,34
 588.26953125 320.544060592 588.26953125 320.544060592 588.26953125 234.950195312 c 6,35,-1
 588.26953125 194.099609375 l 5,36,37
 580 186 580 186 566.735351562 183.174804688 c 4,38,39
 553 180 553 180 541.66015625 179.849609375 c 5,40,-1
 541.66015625 174.150390625 l 6,0,1
647 582 m 1,41,42
 639 567 639 567 620 554 c 128,-1,43
 601 541 601 541 574 537 c 1,44,45
 569 561 569 561 557.5 586.5 c 128,-1,46
 546 612 546 612 524.5 633 c 128,-1,47
 503 654 503 654 470.5 668 c 128,-1,48
 438 682 438 682 391 682 c 0,49,50
 349 682 349 682 307 665.5 c 128,-1,51
 265 649 265 649 231 613 c 128,-1,52
 197 577 197 577 175.5 519.5 c 128,-1,53
 154 462 154 462 154 380 c 0,54,55
 154 299 154 299 176 236 c 128,-1,56
 198 173 198 173 236 130.5 c 128,-1,57
 274 88 274 88 324.5 66 c 128,-1,58
 375 44 375 44 433 44 c 0,59,60
 500 44 500 44 546.5 66.5 c 128,-1,61
 593 89 593 89 625 126 c 1,62,63
 631 124 631 124 639 118 c 128,-1,64
 647 112 647 112 649 106 c 1,65,66
 641 92 641 92 623 71 c 128,-1,67
 605 50 605 50 574.5 30.5 c 128,-1,68
 544 11 544 11 498.5 -3.5 c 128,-1,69
 453 -18 453 -18 390 -18 c 0,70,71
 328 -18 328 -18 270 4.5 c 128,-1,72
 212 27 212 27 167 72.5 c 128,-1,73
 122 118 122 118 95 186.5 c 128,-1,74
 68 255 68 255 68 346 c 0,75,76
 68 426 68 426 97 496.5 c 128,-1,77
 126 567 126 567 175.5 619 c 128,-1,78
 225 671 225 671 290.5 701 c 128,-1,79
 356 731 356 731 430 731 c 0,80,81
 490 731 490 731 531.5 714 c 128,-1,82
 573 697 573 697 598.5 673 c 128,-1,83
 624 649 624 649 635.5 623.5 c 128,-1,84
 647 598 647 598 647 582 c 1,41,42
EndSplineSet
EndChar

StartChar: underscore
Encoding: 95 95 149
Width: 400
GlyphClass: 2
Flags: W
LayerCount: 2
Fore
SplineSet
-35 -88 m 1,0,-1
 435 -88 l 1,1,-1
 435 -133 l 1,2,-1
 -35 -133 l 1,3,-1
 -35 -88 l 1,0,-1
EndSplineSet
EndChar

StartChar: at
Encoding: 64 64 150
Width: 916
GlyphClass: 2
Flags: W
LayerCount: 2
Fore
SplineSet
442 -193 m 0,0,1
 329 -193 329 -193 240 -147 c 128,-1,2
 151 -101 151 -101 100.5 -16 c 128,-1,3
 50 69 50 69 50 184 c 0,4,5
 50 282 50 282 86.5 362.5 c 128,-1,6
 123 443 123 443 186 501 c 128,-1,7
 249 559 249 559 331 591 c 128,-1,8
 413 623 413 623 504 623 c 0,9,10
 579 623 579 623 644 601.5 c 128,-1,11
 709 580 709 580 759 538.5 c 128,-1,12
 809 497 809 497 837 437.5 c 128,-1,13
 865 378 865 378 865 302 c 256,14,15
 865 226 865 226 838.5 168 c 128,-1,16
 812 110 812 110 770 71 c 128,-1,17
 728 32 728 32 681 12 c 128,-1,18
 634 -8 634 -8 593 -8 c 0,19,20
 550 -8 550 -8 525 13.5 c 128,-1,21
 500 35 500 35 500 76 c 0,22,23
 500 86 500 86 503 102 c 1,24,-1
 500 103 l 1,25,26
 482 76 482 76 456.5 50.5 c 128,-1,27
 431 25 431 25 400.5 8.5 c 128,-1,28
 370 -8 370 -8 337 -8 c 0,29,30
 293 -8 293 -8 268.5 24 c 128,-1,31
 244 56 244 56 244 109 c 0,32,33
 244 148 244 148 257 193.5 c 128,-1,34
 270 239 270 239 293 283.5 c 128,-1,35
 316 328 316 328 348.5 364.5 c 128,-1,36
 381 401 381 401 420 423 c 128,-1,37
 459 445 459 445 502 445 c 0,38,39
 522 445 522 445 541.5 440 c 128,-1,40
 561 435 561 435 583 425 c 1,41,-1
 583 425 l 1,42,-1
 662 441 l 1,43,-1
 664 438 l 1,44,45
 664 438 664 438 658.5 417 c 128,-1,46
 653 396 653 396 645 363.5 c 128,-1,47
 637 331 637 331 627.5 293 c 128,-1,48
 618 255 618 255 609 219 c 128,-1,49
 600 183 600 183 594 156 c 128,-1,50
 588 129 588 129 586 118 c 0,51,52
 585 113 585 113 583 102 c 128,-1,53
 581 91 581 91 581 78 c 0,54,55
 581 60 581 60 589 46.5 c 128,-1,56
 597 33 597 33 620 33 c 0,57,58
 645 33 645 33 676 50 c 128,-1,59
 707 67 707 67 736 101 c 128,-1,60
 765 135 765 135 784 185 c 128,-1,61
 803 235 803 235 803 300 c 0,62,63
 803 393 803 393 762.5 456 c 128,-1,64
 722 519 722 519 653.5 551 c 128,-1,65
 585 583 585 583 502 583 c 0,66,67
 420 583 420 583 350 553 c 128,-1,68
 280 523 280 523 228 469.5 c 128,-1,69
 176 416 176 416 147 344.5 c 128,-1,70
 118 273 118 273 118 190 c 0,71,72
 118 86 118 86 162 9.5 c 128,-1,73
 206 -67 206 -67 282.5 -109 c 128,-1,74
 359 -151 359 -151 458 -151 c 0,75,76
 530 -151 530 -151 599.5 -127 c 128,-1,77
 669 -103 669 -103 727 -54 c 1,78,79
 733 -58 733 -58 738.5 -65 c 128,-1,80
 744 -72 744 -72 748 -77 c 1,81,82
 687 -138 687 -138 606 -165.5 c 128,-1,83
 525 -193 525 -193 442 -193 c 0,0,1
559 367 m 1,84,85
 517 402 517 402 480 402 c 0,86,87
 446 402 446 402 419.5 374.5 c 128,-1,88
 393 347 393 347 374 304.5 c 128,-1,89
 355 262 355 262 345 215 c 128,-1,90
 335 168 335 168 335 130 c 0,91,92
 335 93 335 93 345.5 71.5 c 128,-1,93
 356 50 356 50 380 50 c 0,94,95
 407 50 407 50 436 74.5 c 128,-1,96
 465 99 465 99 488 137 c 128,-1,97
 511 175 511 175 521 215 c 2,98,-1
 559 367 l 1,84,85
EndSplineSet
EndChar

StartChar: copyright
Encoding: 169 169 151
Width: 705
GlyphClass: 2
Flags: W
LayerCount: 2
Fore
SplineSet
578.040039062 273.169921875 m 6,0,1
 578.040039062 309.973632812 578.040039062 309.973632812 552.83984375 326.705078125 c 4,2,3
 529 343 529 343 528.559570312 343.690429688 c 4,4,5
 512 344 512 344 495.440429688 340.03515625 c 132,-1,6
 479 336 479 336 464.120117188 330.14453125 c 4,7,8
 449 324 449 324 436.400390625 315.955078125 c 4,9,10
 423 308 423 308 413.360351562 298.969726562 c 5,11,-1
 413.360351562 232.450195312 l 5,12,13
 403 229 403 229 387.080078125 227.504882812 c 132,-1,14
 371 226 371 226 356.48046875 226 c 5,15,-1
 356.48046875 435.66015625 l 5,16,17
 369 440 369 440 383.48046875 441.25 c 4,18,19
 398 443 398 443 413.360351562 442.969726562 c 5,20,-1
 413.360351562 323.91015625 l 5,21,22
 423 331 423 331 437.83984375 338.959960938 c 4,23,24
 452 347 452 347 470.240234375 353.150390625 c 4,25,26
 488 360 488 360 509.48046875 363.684570312 c 4,27,28
 531 368 531 368 555.200195312 367.76953125 c 4,29,30
 567 368 567 368 600.719726562 346.700195312 c 4,31,32
 634.919921875 326.048828125 634.919921875 326.048828125 634.919921875 286.5 c 6,33,-1
 634.919921875 232.450195312 l 5,34,35
 625 229 625 229 608.639648438 227.504882812 c 4,36,37
 592 226 592 226 578.040039062 226 c 5,38,-1
 578.040039062 273.169921875 l 6,0,1
567 582 m 1,39,40
 559 567 559 567 540 554 c 128,-1,41
 521 541 521 541 494 537 c 1,42,43
 489 561 489 561 477.5 586.5 c 128,-1,44
 466 612 466 612 444.5 633 c 128,-1,45
 423 654 423 654 390.5 668 c 0,46,47
 348 686 348 686 311 682 c 0,48,-1
 272 665.5 l 0,49,50
 230 649 230 649 212.5 613 c 128,-1,51
 195 577 195 577 173.5 519.5 c 128,-1,52
 152 462 152 462 152 380 c 0,53,54
 152 299 152 299 174 236 c 128,-1,55
 196 173 196 173 217.5 130.5 c 128,-1,56
 239 88 239 88 289.5 66 c 128,-1,57
 340 44 340 44 353 44 c 0,58,59
 420 44 420 44 466.5 66.5 c 128,-1,60
 513 89 513 89 545 126 c 1,61,62
 551 124 551 124 559 118 c 128,-1,63
 567 112 567 112 569 106 c 1,64,65
 561 92 561 92 543 71 c 128,-1,66
 525 50 525 50 494.5 30.5 c 128,-1,67
 464 11 464 11 418.5 -3.5 c 128,-1,68
 373 -18 373 -18 310 -18 c 0,69,70
 293 -18 293 -18 251.5 4.5 c 128,-1,71
 210 27 210 27 165 72.5 c 128,-1,72
 120 118 120 118 93 186.5 c 128,-1,73
 66 255 66 255 66 346 c 0,74,75
 66 426 66 426 95 496.5 c 128,-1,76
 124 567 124 567 157 619 c 128,-1,77
 190 671 190 671 255.5 701 c 128,-1,78
 321 731 321 731 350 731 c 0,79,80
 410 731 410 731 451.5 714 c 128,-1,81
 493 697 493 697 518.5 673 c 128,-1,82
 544 649 544 649 555.5 623.5 c 128,-1,83
 567 598 567 598 567 582 c 1,39,40
EndSplineSet
EndChar

